<?xml version="1.0" encoding="utf-8"?>
<!-- Generator: Adobe Illustrator 21.0.0, SVG Export Plug-In . SVG Version: 6.00 Build 0)  -->
<svg version="1.1" id="Layer_1" xmlns="http://www.w3.org/2000/svg" xmlns:xlink="http://www.w3.org/1999/xlink" x="0px" y="0px"
	 viewBox="0 0 152.4 384.2" style="enable-background:new 0 0 152.4 384.2;" xml:space="preserve">
<style type="text/css">
	.st0{fill:#434343;}
	.st1{fill:#383838;}
	.st2{fill:#67829D;}
	.st3{fill:#D32C39;}
	.st4{fill:#E2E2E2;}
	.st5{fill:#1D4375;}
	.st6{fill:#FAB292;}
	.st7{fill:#D1D1D1;}
	.st8{fill:#609440;}
	.st9{fill:#4E7235;}
	.st10{opacity:0.1;enable-background:new    ;}
	.st11{fill:#634C4A;}
	.st12{fill:#F6E1D8;}
	.st13{fill:#B74B29;}
	.st14{fill:#F47B55;}
	.st15{fill:#F2DFD9;}
	.st16{fill:#EF9C6F;}
</style>
<path id="XMLID_63_" class="st0" d="M16,135.6c-3.6,1.8-2.4,8.4,2.8,14.6c5.1,6.3,12.2,9.9,15.8,8.1s2.4-8.4-2.8-14.6
	C26.7,137.4,19.6,133.8,16,135.6z M32.6,155.8c-2.4,1.2-7.7-2.5-11.1-6.6s-5.7-9.6-3.3-10.8c2.4-1.2,10,2.6,13.4,6.7
	C34.9,149.2,34.9,154.6,32.6,155.8z"/>
<path id="XMLID_62_" class="st0" d="M10.7,160.8l-0.6,16.8c0,0-19.4,36.1,12.9,39.9s38.8-29.3,35.7-39.4s-19.5-40.3-19.5-40.3
	L10.7,160.8z"/>
<path id="XMLID_60_" class="st1" d="M60,178.6c-3.1-10.1-19.5-40.3-19.5-40.3l-16.9,13.6c7.6,12.5,15.5,32.8,12.6,64.9
	C58.2,212.3,62.6,187.3,60,178.6z"/>
<path id="XMLID_59_" class="st0" d="M46.3,106.7c0,0-8,11.9-22.6,45.2l9.7-3.2l20.7-42H46.3z"/>
<polygon id="XMLID_58_" class="st2" points="46.1,211 55.8,204.2 68.3,214.1 54.5,223.3 48.1,218.3 "/>
<path id="XMLID_107_" class="st3" d="M86.6,378.6v-3.8v-1.6v-17.7h16.1V370c0,0.9,0.7,1.6,1.6,1.6h14.6v6.9L86.6,378.6L86.6,378.6z"
	/>
<path id="XMLID_105_" class="st4" d="M86.6,381.5v-3h32.3v-6.9h0.8c6.1,0,11,4.9,11,11c0,0.8-0.7,1.5-1.5,1.5h-40
	C87.8,384.2,86.6,383,86.6,381.5z"/>
<path id="XMLID_113_" class="st3" d="M65.1,378.6v-3.8v-1.6v-17.7H49V370c0,0.9-0.7,1.6-1.6,1.6H32.8v6.9L65.1,378.6L65.1,378.6z"/>
<path id="XMLID_104_" class="st4" d="M65.1,381.5v-3H32.8v-6.9H32c-6.1,0-11,4.9-11,11c0,0.8,0.7,1.5,1.5,1.5h40
	C63.9,384.2,65.1,383,65.1,381.5z"/>
<polygon id="XMLID_78_" class="st5" points="86.6,211.9 65.1,211.9 49,211.9 49,228 49,356.6 65.1,356.6 65.1,228 86.6,228 
	86.6,356.6 102.7,356.6 102.7,228 102.7,211.9 "/>
<rect id="XMLID_56_" x="55.3" y="106.7" class="st4" width="41.1" height="109.3"/>
<g id="XMLID_53_">
	<path id="XMLID_85_" class="st6" d="M76.5,123.1c9,0,16.4-7.3,16.4-16.4H60.2C60.2,115.8,67.5,123.1,76.5,123.1z"/>
</g>
<path id="XMLID_51_" class="st7" d="M93.7,113c0.2-0.3,0.4-0.6,0.5-0.8h-2.4c-3.1,5.2-8.8,8.8-15.3,8.8s-12.2-3.5-15.3-8.8h-2.4
	c0.1,0.3,0.3,0.6,0.5,0.8h-0.5c0.1,0.2,0.3,0.5,0.4,0.7h-0.4c3.3,6.5,10,10.9,17.7,10.9s14.4-4.4,17.7-10.9h-0.4
	c0.1-0.2,0.3-0.5,0.4-0.7H93.7z"/>
<path class="st8" d="M58,106.7H46.3H46c-2.9,0-5.2,2.3-5.2,5.2v0.9h0.1v105.7c0,0.6,0.5,1.1,1.1,1.1h18.8c0.6,0,1.1-0.5,1.1-1.1
	V107.8c0-0.6-0.5-1.1-1.1-1.1H58z"/>
<path id="XMLID_44_" class="st8" d="M92.1,106.7H107c2.9,0,5.2,2.3,5.2,5.2v106.4c0,0.6-0.5,1.1-1.1,1.1H92.2
	c-0.6,0-1.1-0.5-1.1-1.1V107.8C91,107.2,91.5,106.7,92.1,106.7z"/>
<polygon id="XMLID_43_" class="st9" points="62,120.7 48.5,106.7 62,106.7 "/>
<polygon id="XMLID_42_" class="st9" points="91,120.7 104.6,106.7 91,106.7 "/>
<rect id="XMLID_41_" x="69" y="86.3" class="st6" width="15.1" height="27.6"/>
<rect id="XMLID_40_" x="69" y="73" class="st10" width="15.1" height="27.6"/>
<path id="XMLID_39_" class="st6" d="M37.2,53.8v-3.4l2.7,1.1v-23h68.7v56.3c0,7-5.7,12.6-12.6,12.6H69.4c-16.2,0-29.3-13-29.4-29.1
	c-0.2,0-0.5,0-0.7,0c-3.5,0-6.3-3.3-6.3-7.5C32.9,57.6,34.7,54.8,37.2,53.8z"/>
<path id="XMLID_38_" class="st11" d="M35.8,37.1c0.4-13.7,11.4-22.8,26.1-24.7h19.7l0,0l0,0h8.5c-1.1-4.7-3.3-7.2-3.4-7.2l0,0
	c7.1-2.1,12.8,1.2,12.8,1.2V0c0.2,0,0.5,0,0.7,0c11.2,0,20.3,9.1,20.3,20.3c0,11.2-9.1,20.3-20.3,20.3c-5.4,0-10.3-2.1-13.9-5.5
	H63.8l-0.2,2.3c-0.7,6.4-5.7,11.5-12.2,12.3L50,49.8c0,0.3,0,0.5,0,0.8c0,1.4,0,2.8,0,4.3c0,1.9,0,3.7,0,5.6c0,1.6,0,3.1,0,4.7
	c0,0.3-0.1,0.5-0.2,0.7c-0.8,1.5-3.4,1.1-3.4-0.7c0-0.5,0-1,0-1.5c0-1.6,0-3.1,0-4.7c-0.7-4.7-5.9-7.4-10.1-5.1l-1,0.5V40.7
	C35.5,39.5,35.6,38.3,35.8,37.1z"/>
<path id="XMLID_37_" class="st12" d="M66.6,61.1h-2.3c-2.3,0-4.2-1.6-4.2-3.5s1.9-3.5,4.2-3.5h2.3c2.3,0,4.2,1.6,4.2,3.5
	C70.8,59.5,68.9,61.1,66.6,61.1z"/>
<path id="XMLID_36_" class="st12" d="M93.4,61.1h-1.1c-2.3,0-4.2-1.6-4.2-3.5s1.9-3.5,4.2-3.5h1.5c-0.9,1-1.5,2.3-1.5,3.7
	C92.3,59,92.7,60.1,93.4,61.1z"/>
<path id="XMLID_35_" d="M98.8,57.6c0,1.9-1.9,3.5-4.2,3.5h-1.2c-0.7-0.9-1.1-2-1.1-3.2c0-1.4,0.6-2.8,1.5-3.7h0.7
	C96.9,54.1,98.8,55.6,98.8,57.6z"/>
<path id="XMLID_34_" d="M70.8,57.6c0,1.9-1.9,3.5-4.2,3.5h-1.2c-0.7-0.9-1.1-2-1.1-3.2c0-1.5,0.6-2.8,1.5-3.8h0.7
	C68.9,54.1,70.8,55.6,70.8,57.6z"/>
<path id="XMLID_33_" class="st11" d="M70.7,51.6c0.6-0.2,0.9-1.2,0.6-2.3l0,0c-0.4-1-1-1.4-1.8-1.6c-3.8,0-12.3,3.5-11.2,5.6l0,0
	C60.2,51.7,67.4,50.1,70.7,51.6z"/>
<path id="XMLID_32_" class="st11" d="M99.1,52.3c0.7-0.1,1-1.1,0.8-2.2l0,0c-0.3-1.1-0.8-1.5-1.6-1.8c-3.8-0.4-12.6,2-11.8,4.3l0,0
	C88.6,51.2,96,50.4,99.1,52.3z"/>
<path id="XMLID_31_" class="st0" d="M46.3,106.7c0,0,9.4,44.4-6.8,78.4v11.8c0,0,28.8-30.9,14.6-90.2L46.3,106.7z"/>
<path id="XMLID_30_" class="st13" d="M84.9,78.8c-1.9,0.7-13.9-0.3-15-1.1c-0.4-0.3-0.8-0.8-1.1-1.2c-0.7,1.5,0,4.5,1.9,7
	c1.5-0.8,3.7-1.4,6.9-1.5c3.8-0.1,6.4,0.9,8.1,2c1.7-2.2,2.2-4.9,1.6-6c-0.1-0.2-0.3-0.4-0.4-0.5C86.6,77.9,86.1,78.4,84.9,78.8z"/>
<path id="XMLID_29_" class="st14" d="M77.6,82.1c-3.2,0.1-5.4,0.7-6.9,1.5c1.9,2.6,5,4.6,9,4.1c2.7-0.4,4.7-1.8,6-3.6
	C84,82.9,81.4,81.9,77.6,82.1z"/>
<path id="XMLID_28_" class="st15" d="M84.9,78.8c1.2-0.4,1.7-1,1.9-1.3c-0.4-0.3-0.9-0.4-1.4-0.3c-2.5,0.6-9.5,0.8-14.1-1.2
	c-1.3-0.6-2.1-0.2-2.5,0.6c0.3,0.4,0.7,0.9,1.1,1.2C71,78.5,83,79.5,84.9,78.8z"/>
<path id="XMLID_27_" class="st16" d="M45.5,199.1c1.6-2.6,2.2-5.8,3.5-8.5c0.2-0.4,0.5-0.8,0.7-1.1l-4.9-2.7l-8.6,15.7l5.6,3
	C42.8,203.3,44.2,201.3,45.5,199.1z"/>
<polygon id="XMLID_26_" class="st9" points="41.2,195 41.2,195 36.6,203.9 28,199.2 27.1,196.2 34.2,182.7 37.1,181.7 45.9,186.1 
	"/>
<path id="XMLID_25_" class="st8" d="M46.6,128.1c0,0-23.6,2.9-29.9,25.1c0,0-3.7,18.6,18.3,29.4l-7.5,14.6c0,0-35.6-15.9-25.8-53
	c0,0,8.8-25.1,39.1-33"/>
<rect id="XMLID_24_" x="35.6" y="194.3" transform="matrix(0.4591 -0.8884 0.8884 0.4591 -150.4485 148.4192)" class="st9" width="22.2" height="6.9"/>
<path id="XMLID_23_" class="st16" d="M106.9,199.1c-1.6-2.6-2.2-5.8-3.5-8.5c-0.2-0.4-0.5-0.8-0.7-1.1l4.9-2.7l8.6,15.7l-5.6,3
	C109.6,203.3,108.2,201.3,106.9,199.1z"/>
<polygon id="XMLID_10_" class="st9" points="111.2,195 111.2,195 115.8,203.9 124.4,199.2 125.3,196.2 118.2,182.7 115.2,181.7 
	106.5,186.1 "/>
<path id="XMLID_9_" class="st8" d="M106.3,128.4c0,0,23,2.5,29.4,24.7c0,0,3.7,18.6-18.3,29.4l7.5,14.6c0,0,35.6-15.9,25.8-53
	c0,0-8.8-25.1-39.1-33"/>
<rect id="XMLID_8_" x="102.4" y="186.7" transform="matrix(0.8884 -0.4591 0.4591 0.8884 -78.9883 70.6523)" class="st9" width="6.9" height="22.2"/>
<path id="XMLID_5_" class="st15" d="M84.1,79c0,0,2.6-0.1,3.2-0.9c0,0-0.2-0.4-0.7-0.7"/>
<path id="XMLID_4_" class="st15" d="M70.8,78c0,0-1.5-0.3-2.2-0.7c0,0,0-0.4,0.2-0.8l1.2,0.1L70.8,78z"/>
<path id="XMLID_3_" class="st15" d="M85.2,78.9l2.3-0.2c0,0-0.1-0.4-0.2-0.7"/>
</svg>
