<?xml version="1.0" encoding="utf-8"?>
<!-- Generator: Adobe Illustrator 21.0.0, SVG Export Plug-In . SVG Version: 6.00 Build 0)  -->
<svg version="1.1" id="Layer_1" xmlns="http://www.w3.org/2000/svg" xmlns:xlink="http://www.w3.org/1999/xlink" x="0px" y="0px"
	 viewBox="0 0 2271.9 1995.5" style="enable-background:new 0 0 2271.9 1995.5;" xml:space="preserve">
<style type="text/css">
	.st0{fill:#FFFFFF;}
	.st1{fill:#D6D6D6;}
	.st2{fill:#EDEDED;}
</style>
<polygon class="st0" points="0,427.5 0,1388.4 2271.9,1388.2 2271.9,427.5 "/>
<g>
	<path class="st1" d="M2238.2,1717.7c-18.8,0-36.3,5.8-50.7,15.7c-31.2-26.1-71.3-59.7-73.8-61.1c-4.1-2.3-107.7-26.3-140.1-28.6
		c-6-61.9-57.6-110.1-120.3-110.1c-23.3,0-45,6.7-63.6,18.3c-13.2-36.7-47.9-63.1-88.7-63.1c-6.9,0-13.5,0.7-20,2.2
		c-7.4-45.5-46.2-80-93.1-80c-32.3,0-60.9,16.4-77.8,41.5c-12.9-15.3-32.3-25.1-53.9-25.1c-28.6,0-53,17.2-64.4,41.7
		c-2.7-0.5-5.5-0.8-8.3-0.8c-4.8,0-9.4,0.8-13.8,2.2c-8-9.5-20-15.6-33.2-15.6c-7.1,0-13.8,1.7-19.8,4.8
		c-11.8-22-34.6-36.9-61.1-36.9c-31.7,0-58.4,21.5-66.7,50.9c-2-4.6-3.4-7.8-3.6-8.1c-0.9-1.4-17.8-20.1-35.3-22.8
		c-17.5-2.7-57.1-2-66.1,0.9c-8.9,3-11.7,6.5-13.4,13.3c-0.5,1.6-0.7,4.1-1.1,7.2c-12.3-10.9-28.6-17.5-46.2-17.5
		c-5.1,0-9.9,0.6-14.6,1.6c-10.9-8.1-24.1-13-38.7-13c-4.1,0-8,0.3-11.8,1.1l0.3-0.5c0,0-49.8-14.2-51.3-14.2s-37,5.1-37,5.1
		s5.4,10.6,9.5,20.5c-9.4,1.7-18,6.1-24.4,12.8c-10.9-23.9-34.7-40.8-62.5-40.8c-20.1,0-38,8.7-50.6,22.5
		c-12.8-10-29-15.9-46.4-15.9c-8.9,0-17.4,1.6-25.3,4.4c-6.9-2-14.1-3.1-21.5-3.1c-33.1,0-61.2,21.7-71.3,51.8
		c-30,7.8-52.1,35.3-52.1,68.1v0.9c-12-5.6-25.4-8.7-39.5-8.7c-47.7,0-87.2,35.8-93.6,82.3l-300.1,17.3l-37.5,29.5
		c-14.8-10.5-32.9-16.7-52.4-16.7c-1.1,0-2.3,0-3.4,0.1v298.1c2,0.1,4.1,0.2,6.1,0.2c24.4,0,46.6-8.7,64-23.4
		c10.5,7.7,23.4,12.3,37.5,12.3c24.9,0,46.5-14.4,57.1-35.4c9.7,4.4,20.3,6.7,31.5,6.7c42.9,0,77.8-35.2,77.8-78.7v-1.9
		c7.4,2.7,15.4,4.2,23.8,4.2c26.3,0,49.2-15,60.7-37c6.2,7.5,15.5,12.2,25.8,12.2c12.9,0,24.3-7.5,29.8-18.3
		c3.6,1.1,7.4,1.6,11.3,1.6c22.7,0,41.2-18.6,41.2-41.7c0-1.7-0.1-3.4-0.3-5.1c3.5,0.9,7.1,1.4,10.9,1.4c14.9,0,27.8-8,35.1-20
		c39.9-11.2,69.1-48.3,69.1-92.2c0-6.7-0.7-13.3-2-19.6c5.2,1.3,10.7,2,16.3,2c26.9,0,50.2-15.5,61.8-38.3c4.6-0.5,9.4-1.4,13.7-2.7
		c8,2.8,16.4,4.4,25.3,4.4c25.5,0,48.1-12.8,62.1-32.2c10.3,6.1,22.1,9.7,35,9.7c25.7,0,47.9-14.3,59.7-35.3
		c8.4,10,20.9,16.4,35,16.4c9.4,0,18.2-2.8,25.4-7.8c10.9,20.5,32.3,34.6,57,34.6h0.9c12.9,14.4,31.6,23.5,52.4,23.5
		c27.8,0,51.6-16.2,63.2-39.7c3.2,3.8,8,6.3,13.3,6.3c7.5,0,13.8-4.7,16.3-11.4c4.6,6.9,12.5,11.4,21.4,11.4
		c7.7,0,14.4-3.3,19.2-8.7c3.6,10,13.2,17.2,24.3,17.2c12.8,0,23.4-9.4,25.5-21.9c12.6,12.8,30,20.6,49.1,20.6
		c22.9,0,43-11.1,55.8-28.3c7.1,5.1,15.8,8.1,25.2,8.1c4.8,0,9.4-0.8,13.8-2.2c8,9.5,20,15.6,33.2,15.6c8.4,0,16.2-2.3,22.9-6.5
		c12.8,12.8,30.4,20.8,49.8,20.8c18.8,0,35.8-7.3,48.4-19.4c15.8,30.1,47.2,50.5,83.3,50.5c6.9,0,13.5-0.7,20-2.2
		c7.4,45.5,46.2,80,93.1,80c11.5,0,22.5-2.2,32.6-5.9c8.6,59,58.9,104.3,119.6,104.3c3.7,0,7.4-0.2,10.9-0.5
		c1.7,38.4,33.1,68.9,71.5,68.9c2,0,4-0.1,6-0.2c4.3,15.3,18.2,26.6,34.7,26.6c9.5,0,18.2-3.8,24.7-9.9
		c8.8,29.7,35.8,51.4,67.9,51.4c9.2,0,18.1-1.7,26.3-5.1c5.4,13.9,18.8,23.9,34.4,23.9c5.1,0,9.8-1.1,14.3-2.8
		c10,30.6,38.4,52.6,72.1,52.6c32.6,0,60.4-20.8,71.2-50v-200.9C2272.9,1723,2256.2,1717.7,2238.2,1717.7z"/>
	<path id="XMLID_18_" class="st2" d="M1223,1453.1c4.3-1.2,22.1-22,22.1-22s-30.7-17.3-35-13.8c-4.3,3.6-1.5,10.9-4.6,13.8
		c-3.1,2.7-2.7,25.6-1.5,27.2C1205.2,1459.7,1223,1453.1,1223,1453.1z"/>
	<path class="st2" d="M2202.1,1463.2c-12,0-23.7,1.4-34.9,4c-22.3-57.6-77.6-98.4-142.3-98.4c-41.2,0-78.5,16.4-106,43.2
		c-12.5-3.6-25.7-5.5-39.3-5.5c-47.3,0-89.4,22.9-115.9,58.4c-17.8-29.7-50-49.5-86.8-49.5c-33.6,0-63.4,16.5-81.9,42
		c-11.3-26.9-37.8-45.8-68.4-45.8c-20.9,0-39.6,8.6-53.2,22.7c-6.9-32.8-34.9-57.8-68.9-59.5c-11.9-25.8-37.5-43.6-67.5-43.6
		c-34.1,0-62.7,23.1-71.6,54.8c-2.7-0.6-5.5-0.8-8.3-0.8c-23.3,0-42.3,19.1-42.3,42.8c0,2.6,0.2,5.1,0.7,7.5
		c-3.6-2-7.5-3.6-11.5-4.4c0.9-3.6,1.4-7.2,1.4-10.9c0-19.1-12.3-35.3-29.5-40.8c-2.9-37.5-33.9-66.9-71.7-66.9
		c-27.2,0-50.9,15.3-63.1,37.9c-8-2.8-16.7-4.5-25.7-4.5c-23.3,0-44.2,10.6-58.3,27.3c-7.7-9.2-19.2-15-32.1-15
		c-4,0-7.8,0.6-11.4,1.6c-11.5-27.8-38.6-47.2-70.2-47.2c-37.5,0-68.5,27.4-75,63.4c-9.4-4.2-20.1-6.7-31.2-6.7
		c-35.8,0-65.9,25-73.9,58.8c-7.7-2.6-15.8-4-24.4-4c-39.8,0-72.3,30.8-75.8,70.1c-4,0.3-7.7,1.3-11.3,2.8
		c-15.4-39.2-53.2-66.9-97.4-66.9c-21,0-40.4,6.3-56.9,17c-26.6-38.1-70.4-63.1-120.1-63.1c-71.5,0-131.1,51.7-144.3,120.3
		c-11.8-5.1-24.9-7.9-38.4-7.9c-38.4,0-71.8,22.5-87.9,55.3c-2.6-1-5.2-1.8-7.8-2.5v185.7c25.4-7,46.5-24.4,58.7-47.4
		c11.4,4.7,24,7.5,37.2,7.5c36.7,0,68.7-20.4,85.4-50.6c25.9,23.1,59.9,37.2,97.3,37.2c47.7,0,90.1-23,116.9-58.7
		c17,12,37.7,19.1,60.1,19.1c46.3,0,85.6-30.5,99.3-72.6c4,1.4,8.2,2.2,12.6,2.2c9.8,0,18.6-3.6,25.4-9.8
		c12.9,10.3,29.2,16.5,47,16.5c35.8,0,65.9-25,73.9-58.8c7.7,2.6,15.8,4,24.4,4c37.5,0,68.5-27.4,75-63.4c9.4,4.2,20.1,6.7,31.2,6.7
		c24.1,0,45.7-11.4,59.6-29.2c6.4,4,14,6.3,22,6.3c5.6,0,10.9-1.1,15.7-3.1c7.7,34.6,38.3,60.3,74.7,60.3c31,0,57.8-18.6,69.7-45.5
		c6,1.7,12.3,2.6,19,2.6c10.7,0,20.9-2.3,30.1-6.6c5.5,5.2,12.3,8.9,19.8,10.5c-0.9,3.6-1.4,7.2-1.4,10.9
		c0,23.6,18.9,42.8,42.3,42.8s42.3-19.1,42.3-42.8c0-2.6-0.2-5.1-0.7-7.5c6,3.4,13.1,5.5,20.5,5.5c10.6,0,20.3-4,27.8-10.5
		c12.6,12.5,29.5,20.5,48.3,21.5c11.9,25.8,37.5,43.6,67.5,43.6c20.9,0,39.6-8.6,53.2-22.7c7.1,34,37,59.6,72.7,59.6
		c5.8,0,11.4-0.7,16.8-2c6.6,14.1,20.9,23.7,37.3,23.7c5.6,0,10.9-1.2,15.8-3.1c18.6,24.4,47.7,40.1,80.5,40.1
		c24.4,0,46.7-8.7,64.2-23.1c18.6,59.6,73.6,102.8,138.5,102.8c34.6,0,66.1-12.2,91.1-32.5c16.9,6.5,35.1,10,54.2,10
		c12,0,23.7-1.4,34.9-4c22.3,57.6,77.6,98.4,142.3,98.4c31.4,0,60.6-9.6,84.9-26.1v-257.5
		C2262.7,1472.8,2233.5,1463.2,2202.1,1463.2z"/>
	<path id="XMLID_16_" class="st2" d="M1484.4,1455.6c4.6-0.2,60.7-47.5,60.7-47.5s-59.5-45.5-65.3-46.1s-40.2,46.2-40.2,48.6
		c0,2.2,26.8,56.5,26.8,56.5L1484.4,1455.6z"/>
	<path id="XMLID_15_" class="st2" d="M1231.4,1455.6c2.3-3.8,30.9-64,30.9-64l-49.5-23c0,0-31.8,36.2-30.6,41.2
		c1.4,4.8,11.3,29.7,13.1,34.4"/>
	<path class="st0" d="M2209.9,1322.3c-58.7,0-106.5,48.3-106.5,107.8c0,5.8,0.5,11.4,1.2,17c-16.3,4.1-29.7,15.9-36.4,31.3
		c-3.1-2.7-6.5-5.1-10.4-6.7c0.8-5.8,1.2-11.7,1.2-17.8c0-65-52-117.7-116.2-117.7c-45.2,0-84.4,26.2-103.7,64.3
		c-1.1-0.2-2.2-0.5-3.2-0.7v-1.3c0-65-52-117.7-116.2-117.7c-30.9,0-58.9,12.2-79.7,32.1c-2-9.5-5.5-18.6-10.1-26.7
		c-6.6,6.6-18.6,8.9-26.1,3.4c-3.6-2.7-7.5-4.6-11.7-6.6c0,0,0,0-0.1,0c-1.2-0.5-2.3-0.9-3.5-1.4c-3.1-1.2-6-2.2-9.1-3.1
		c-12-3.9-24.4-6.9-36.7-8.9c-1.7-0.3-3.6-0.5-5.4-0.8c-0.2,0-0.5-0.1-0.8-0.1c-2.9-0.3-6-0.6-8.9-0.8c-6.3-0.5-12.6-0.7-18.9-0.5
		c-2.9,0.1-6,0.3-8.9,0.7h-0.1c-1.2,0.2-2.6,0.5-3.8,0.7c-2.6,0.6-5.1,1.3-7.5,2.2c-0.7,0.3-1.5,0.7-2.2,1.1
		c-0.7,0.3-1.4,0.8-2.1,1.3c-0.3,0.3-0.7,0.8-1.1,1.2c-0.2,0.8-0.3,1.4-0.5,1.7c0,1.7-0.2,2.2-0.3,1.9c-0.3,11.2-8.5,19.7-19.1,21.2
		c-3.8,10.4-6,21.6-6,33.3c0,1.3,0,2.6,0.1,4c-0.8,0.1-1.7,0.2-2.5,0.3c-11.9-23-35.5-38.7-63-38.7c-20.9,0-39.6,9.1-52.6,23.6
		c-7.4-9.5-18.9-15.7-31.8-15.7c-16.8,0-31.2,10.4-37.3,25.1c-4.8-2-10-3.1-15.5-3.1c-1.9,0-3.6,0.1-5.4,0.3
		c-7.8-25.9-31.7-44.8-59.9-44.8c-20.9,0-39.4,10.4-50.7,26.2c-11.2-17.5-30.6-29-52.6-29c-14.7,0-28.3,5.2-38.9,13.7
		c-2.2-0.2-4.3-0.3-6.5-0.3c-17.4,0-33.2,7.2-44.6,18.8c-8-5.8-17.7-9.2-28.3-9.2c-6.9,0-13.3,1.4-19.2,4
		c-8.9-11.9-23.1-19.7-39-19.7c-16.1,0-30.4,7.9-39.4,20.1h-0.6c-2-4.7-4.3-9.1-6.9-13.3c-2.1,0.7-4.4,1.2-6.8,1.1
		c-23.2-0.8-45.2-7.8-67.8-12.3c-2.8-0.6-5.7-1.1-8.5-1.6c0,0,0,0-0.1,0c-0.3,0-0.6-0.1-0.8-0.1c-0.9-0.1-1.9-0.2-2.8-0.2
		c-5.4-0.5-10.7-0.6-16-0.1c-0.2,0-1.2,0.1-2,0.2c-0.7,0.1-1.5,0.2-1.7,0.3c-2.6,0.5-5.1,1.2-7.5,2c-1.2,0.3-2.6,0.8-3.7,1.3
		c-0.3,0.1-0.8,0.5-1.4,0.7c-2.6,1.4-5.1,2.8-7.5,4.4c-7.4,4.7-16.3,3.6-23-1.1c-5.2,7-9.4,15.1-12.3,23.6
		c-3.8-0.9-7.8-1.6-11.9-1.6c-27,0-48.9,22.2-48.9,49.5c0,3,0.2,5.9,0.8,8.7c-15.5-16.1-37.2-26.1-61.1-26.1
		c-47.2,0-85.4,38.7-85.4,86.5c0,19,6,36.6,16.3,50.9c-6.3,4.4-10.5,11.7-10.5,20c0,2.5,0.3,4.8,1.1,7c-0.6,0.2-1.1,0.5-1.7,0.7
		c-4.3-4.8-10.6-7.8-17.6-7.8c-10,0-18.6,6.3-22,15.1c-4.6-4-10.1-7-16.3-8.6c1.9-7.3,2.8-15,2.8-22.9c0-51.1-40.9-92.5-91.3-92.5
		c-36.9,0-68.5,22-83,53.9c-7.1-2.5-14.6-3.8-22.5-3.8c-9.8,0-19.2,2.2-27.6,5.8c-8.9-41.4-45.5-72.5-89.2-72.5
		c-50.5,0-91.3,41.4-91.3,92.5c0,5.6,0.5,11.1,1.5,16.4h-1.5c-15.9,0.3-30.6,6-42.3,15.3v110.7c11.8,9.5,26.7,15.2,42.8,15.2
		c37.2,0,67.6-29.7,69.3-67c7.1,1.7,14.4,2.7,22,2.7c20.3,0,38.9-6.7,54.1-18.1c11.1,23.7,35,40.1,62.6,40.1
		c20.5,0,38.9-9.1,51.6-23.4c15.1,11.2,33.7,17.8,53.9,17.8c16.4,0,31.8-4.4,45.2-12.2c6.6,12,19.4,20.3,34.1,20.3
		c20.9,0,38-16.7,38.9-37.6c2.7,1.1,5.7,1.7,8.8,1.7c3.7,0,7.2-0.9,10.4-2.5c4.3,4.8,10.6,7.8,17.6,7.8c13.2,0,23.8-10.9,23.8-24.1
		c0-2.5-0.3-4.8-1.1-7c6.2-2.5,11.1-7.5,13.4-13.7c10.3,4.5,21.5,6.9,33.5,6.9c32.7,0,61.2-18.8,75.6-46.2c3.1,1.4,6.3,2.2,9.8,2.2
		c13.2,0,23.8-10.9,23.8-24.1c0-6.9-2.9-13.1-7.5-17.5c8.8-3.9,15.2-11.8,17.4-21.5c6.4-1.3,12.3-3.9,17.5-7.5
		c16.6,20.3,41.8,33.3,69.7,33.3c26.7,0,50.7-11.7,67.3-30.3c4.6,1.4,9.4,2.2,14.6,2.2c16.1,0,30.4-7.9,39.4-20.1h2.2
		c6.9,0,13.3-1.4,19.2-4c8.9,11.9,23.1,19.7,39,19.7c8.5,0,16.6-2.2,23.4-6.1c11.4,14.9,29.2,24.4,49.5,24.4
		c14.7,0,28.3-5.2,38.9-13.7c2.1,0.2,4.3,0.3,6.5,0.3c20.9,0,39.4-10.4,50.7-26.2c11.2,17.5,30.6,29,52.6,29
		c13.8,0,26.7-4.6,37-12.3c7.4,7.2,17.2,11.7,28.3,11.7c16.8,0,31.2-10.4,37.3-25.1c4.8,2,10,3.1,15.5,3.1c5.4,0,10.4-1.1,15.1-3
		c6.8,32.5,35.3,56.9,69.5,56.9c22.5,0,42.6-10.6,55.5-27.2c4.8,2,10,3.1,15.5,3.1c11.3,0,21.5-4.7,28.9-12.4
		c15.8,12.8,35.9,20.5,57.8,20.5c8.3,0,16.2-1.1,23.9-3.1c8,25.6,29.6,45.1,56.3,49.8c21.4,26.3,53.8,43.2,90,43.2
		c14.3,0,28-2.6,40.7-7.5c12.6,21.2,35.5,35.5,61.8,35.5c13.1,0,25.4-3.6,36-9.8c21.2,22.8,51.3,37,84.7,37
		c29,0,55.5-10.8,75.9-28.6c6.4,4.4,14.3,7,22.6,7c13.5,0,25.4-6.7,32.7-17c9.9,13.6,25.8,22.5,43.7,22.5c20.1,0,37.7-11.1,47-27.5
		c4.9,2.3,10,4.2,15.2,5.8v1.4c0,59.5,47.7,107.8,106.5,107.8h0.1v-287.2C2267.6,1335.1,2240.2,1322.3,2209.9,1322.3z"/>
	<path id="XMLID_7_" class="st0" d="M0,1516.2v-254.4h2223v116.8l-70.3,56.3c0,0-52.8,55.1-56.8,56.7c-3.8,1.6-52.1,7.9-55.9,7.9
		s-319.7-66-319.7-66l-236-66.2c0,0-241.7,4.7-239.4,4.7c2.3,0-185.6-2.2-185.6-2.2l-122.2,3.8c0,0-104.2,19.7-111.1,20.4
		c-7,0.7-57.5,13.3-62.1,12.6c-4.6-0.8-82.4-17.6-82.4-17.6l-80.8,21.6c0,0-14,30.6-17.2,34.6c-3.1,3.9-75.4,71.1-75.4,71.1
		l-47.8,26.4l-192.7-8.1l-115.4-40.1L0,1516.2z"/>
</g>
<rect class="st0" width="2271.9" height="1040"/>
</svg>
