<?xml version="1.0" encoding="utf-8"?>
<!-- Generator: Adobe Illustrator 21.0.0, SVG Export Plug-In . SVG Version: 6.00 Build 0)  -->
<svg version="1.1" id="Layer_1" xmlns="http://www.w3.org/2000/svg" xmlns:xlink="http://www.w3.org/1999/xlink" x="0px" y="0px"
	 viewBox="0 0 3357.1 1899.4" style="enable-background:new 0 0 3357.1 1899.4;" xml:space="preserve">
<style type="text/css">
	.st0{fill:#88D5E5;}
	.st1{fill:#FFFFFF;}
	.st2{fill:#C4B5B2;}
	.st3{opacity:0.2;fill:#514848;enable-background:new    ;}
	.st4{fill:#B6821C;}
	.st5{fill:#9BB856;}
	.st6{fill:#AC7523;}
	.st7{fill:#885D19;}
	.st8{fill:#59A3FC;}
	.st9{fill:#907C7B;}
	.st10{opacity:0.2;fill:#907C7B;enable-background:new    ;}
	.st11{opacity:0.2;enable-background:new    ;}
	.st12{fill:#E1DFE4;}
	.st13{opacity:0.2;fill:#7C6E6D;enable-background:new    ;}
	.st14{fill:#8E8E8E;}
	.st15{fill:#EC313C;}
	.st16{fill:#E5DED9;}
	.st17{fill:none;}
	.st18{fill:#B43736;}
	.st19{opacity:0.3;enable-background:new    ;}
	.st20{opacity:0.3;fill:#EC313C;enable-background:new    ;}
	.st21{fill:#545557;}
	.st22{fill:#5DAF6B;}
	.st23{opacity:0.47;fill:#161616;enable-background:new    ;}
	.st24{opacity:0.22;enable-background:new    ;}
</style>
<rect x="-10.6" y="-6.5" class="st0" width="3376.1" height="1899.4"/>
<path class="st1" d="M3318.7,1102.7c-45.6,3.7-84.6,39.3-88.6,84.9c-4.5-6.8-13.8-10-21.6-7.4c-7.7,2.6-14.2,4.3-13.6,12.4
	c-9.6-21.8-33.2-35.4-57-36.3c-23.7-34.4-65.1-57-106.7-53.6c-45.6,3.7-84.6,39.3-88.6,84.9c-4.5-6.8-13.8-10-21.6-7.4
	c-7.7,2.6-14.2,4.3-13.6,12.4c-10.6-24.1-38.3-38.2-64.6-36.2c-26.2,2-50.2,18.1-65.3,39.7c-15.1,21.5-17.9,50.6-19.8,76.8
	c-9.6-5.6-22.8-4.4-31.1,3c-4.7,4.2-7.9,8.3-9,12.9c-2.4,1.7-4.7,3.4-7,5.2c-7.4-3.8-16.4-4.6-24.2-1.6c-11.2,4.3-10.4,9.8-10,21.8
	c-46.4,6.7-89.3,34.4-114.3,73.9c-25.1,39.5-35.1,90.1-21.3,134.8c-6.5-2.3-14.4,0.7-17.8,6.7c-3.4,6,1,19,6.3,23.5
	c-10.6-7.6-26.2-7.4-36.5,0.6s-18.9,26.9-14.2,39.1c-4.5-14.5-21.8-18.8-36.6-14.7c124.7-109.1,52-225.4,52-225.4
	c98.5-53.7,89.2-205,41.9-288c-47.4-83.1-127.1-135.4-223.5-136.8c-5.9-0.1-71.8,2-71.8,7c0-12.8-4.1-25.6-12-35.6
	c-11.4-14.5-29.8-18.6-48.2-17.4c23.8-22.8,48-46,63.5-75.1s21.1-65.4,6.3-94.9c-14.8-29.4-57.3-41.2-86.4-25.8
	c6.9-12.5,3.9-29.7-7-39c-10.8-9.3-26.4-15.7-37.7-7c17.3-42.4,17.3-92.6-4.8-132.7s-67.5-67.6-113.1-63.9
	c-29.9,2.4-56.9,18.5-73.1,42.2c-9.7-6.8-21.7-10.6-31.2-4.9c-0.6-0.5-0.6-0.5-1.1-1c16.4-41.9,16-91-5.8-130.4
	c-22.1-40.1-67.5-67.6-113.1-63.9s-84.6,39.3-88.6,84.9c-4.5-6.8-13.8-10-21.6-7.4c-7.7,2.6-14.2,4.3-13.6,12.4
	c-10.6-24.1-38.3-38.2-64.6-36.2c-26.2,2-50.2,18.1-65.3,39.7c-15.1,21.5-17.9,50.6-19.8,76.8c-9.6-5.6-22.8-4.4-31.1,3
	c-8,7.1-11.6,14-7.9,23.6c-0.2,0.1-0.2,0.1-0.4,0.2c-6.5-7-16.7-10.4-26.1-8.9c-15.6-13.7-35.7-22.5-57.2-24.3
	c-45.6-3.7-91,23.8-113.1,63.9c-22.1,40.1-22.2,90.4-4.8,132.7c-11.3-8.7-26.9-2.3-37.7,7c-10.8,9.3-13.9,26.5-7,39
	c-29.1-15.4-71.6-3.6-86.4,25.8c-10.2,20.4-10.7,44.2-4.8,66.5c-92.1,3.9-143.5,120.4-143.5,120.4c-77.8,50.8-32.1,120.5-32.1,120.5
	c-17.3,31.9-13.2,60.3-3.4,81.9c0.9,11.9,4.8,24.2,11.2,33c-3.4,2.9-5.7,7.4-5.6,11.9c0.1,2.4,0.6,4.7,1.4,6.8
	c-17.3,14.4-15.6,42.2-15.6,42.2c-68.5,0-86.4,81.4-86.4,81.4c-12,3.5-23.1,7.2-33.5,11c-1.4-2.4-4-4.3-8.4-6.1
	c-10.2-3.9-22.5-1.4-30.5,6c0.1-1.5-0.1-3-0.4-4.4c0.7-6.9-2.9-12.4-9.3-18.1c-8.3-7.4-21.5-8.6-31.1-3
	c-1.9-26.2-4.7-55.3-19.8-76.8s-39-37.7-65.3-39.7c-26.2-2-54,12.1-64.6,36.2c0.6-8.2-5.9-9.8-13.6-12.4c-7.7-2.6-17.1,0.5-21.6,7.4
	c-4-45.6-42.9-81.2-88.6-84.9c-43.8-3.6-87.4,21.7-110.4,59.2c-22.4,2.2-43.9,15.5-53,36.1c0.6-8.2-5.9-9.8-13.6-12.4
	s-17.1,0.5-21.6,7.4c-4-45.6-42.9-81.2-88.6-84.9c-45.6-3.7-91,23.8-113.1,63.9s-22.2,90.4-4.8,132.7c-11.3-8.7-26.9-2.3-37.7,7
	s-13.9,26.5-7,39c-5.7-3-12-5-18.5-6v200c0.6,0.6,1.3,1.2,1.9,1.8c-0.6,0-1.3-0.1-1.9-0.1v339.7c41.9,6.7,85.3-1.6,118.4-28.7
	c7.3,22,42,27.4,57.9,10.5c15.3,17.2,38.4,27,61.4,26.1c12.7-0.5,25.1-4.3,36.1-10.7c22.8,5.5,46.5,6.5,69.1,2.5
	c10.4,1.6,21.3,1.5,32.6-0.1c14.3-2,28-7.3,40.1-15.2c13.5,10.2,36.2,10.1,48.2-2.6c15.3,17.2,38.4,27,61.4,26.1
	c22.7-0.9,44.8-12.3,58.7-30.3h1.1c21.4,20.4,48.6,26.2,78,22.1c5.6-0.8,11.1-2.1,16.5-3.8c19.1,3.8,39.1,4.9,57.7,5
	c22.3,0,44.7-0.8,67-2.3V1861c20.5,7.8,44.6,6.9,64.5-2.3h49.3c29.9,18.8,70.7,23.1,106.6,23.2c22.3,0,44.7-0.8,67-2.3v-20.8h1319
	v20.8c22.3,1.6,44.6,2.4,67,2.3c35.9,0,76.7-4.3,106.6-23.2h49.3c19.9,9.2,44,10.1,64.5,2.3v18.5c22.3,1.6,44.6,2.4,67,2.3
	c18.7,0,38.6-1.2,57.7-5c5.3,1.8,10.8,3,16.4,3.8c29.7,4.2,57.1-1.8,78.6-22.6c13.9,18.3,36.2,30,59.1,30.9
	c22.9,0.9,46.1-8.9,61.4-26.1c12,12.7,34.7,12.8,48.2,2.6c12.1,7.9,25.8,13.2,40.1,15.2c11.3,1.6,22.2,1.7,32.6,0.1
	c22.5,4,46.2,3,69-2.5c11,6.4,23.4,10.1,36.1,10.7c22.9,0.9,46.1-8.9,61.4-26.1c9.3,9.9,25,12.1,37.9,7.9V1108
	C3347.6,1103.5,3333.2,1101.5,3318.7,1102.7z"/>
<path class="st1" d="M841,1746.7c-5.8,0.5-11.7,0.7-17.6,0.7H841V1746.7z"/>
<polyline class="st2" points="4917.6,925.6 4931.1,947.7 4903.1,954 "/>
<polyline class="st3" points="4917.6,925.6 4931.1,947.7 4903.1,954 "/>
<path class="st4" d="M4926.5,1015.1c0,230-186.4,416.5-416.5,416.5s-416.4-186.5-416.4-416.5H4926.5z"/>
<path class="st5" d="M4963.8,966.5L4963.8,966.5c0-2.8-2.2-5-5-5h-897.6c-2.8,0-5,2.2-5,5l0,0c0,2.8,2.2,5,5,5h897.7
	C4961.6,971.7,4963.8,969.3,4963.8,966.5z"/>
<path class="st6" d="M4926.4,1015.5h-832.6c0,50.1,8.8,98,25,142.4h782.6C4917.6,1113.5,4926.4,1065.6,4926.4,1015.5z"/>
<path class="st7" d="M4093.6,1016.1c0,17.1,1.1,33.8,2.9,50.3l827.1-0.9c1.8-16.1,2.9-32.7,2.9-49.4H4093.6L4093.6,1016.1z"/>
<path class="st5" d="M4984.4,1005.1L4984.4,1005.1c0-13.8-11.2-24.8-24.8-24.8h-899.2c-13.8,0-24.8,11.2-24.8,24.8l0,0
	c0,13.8,11.2,24.8,24.8,24.8h345c7,0,12.7,5.7,12.7,12.7l0,0c0,7-5.7,12.7-12.7,12.7h-120c-11,0-19.8,8.8-19.8,19.8l0,0
	c0,11,8.8,19.8,19.8,19.8h342.2c11,0,19.8-8.8,19.8-19.8l0,0c0-11-8.8-19.8-19.8-19.8h-120c-7,0-12.7-5.7-12.7-12.7l0,0
	c0-7,5.7-12.7,12.7-12.7h452.2C4973.4,1029.8,4984.4,1018.7,4984.4,1005.1z"/>
<path class="st5" d="M4973.5,1055h-55h-90.1h-55.1c-11,0-19.8,8.8-19.8,19.8s8.8,19.8,19.8,19.8h55.1h91h55.1c11,0,20-9,19.8-20.2
	C4994.1,1063.6,4984.6,1055,4973.5,1055z"/>
<path class="st5" d="M4173.5,1055h-145.2c-11,0-19.8,8.8-19.8,19.8l0,0c0,11,8.8,19.8,19.8,19.8h146.1c11,0,20-9,19.8-20.2
	C4194,1063.6,4184.5,1055,4173.5,1055z"/>
<g>
	<rect x="4066.6" y="970.9" class="st8" width="888.7" height="9.7"/>
	<path class="st8" d="M4289.8,1795.9v-772.3c0-15.6,4.9-30.9,14.1-43.5h-114.3c-11.6,12.5-18,28.9-18,45.9v769.9H4289.8
		L4289.8,1795.9z"/>
	<path class="st8" d="M4799.5,1795.9v-772.8c0-15.4,4.7-30.4,13.4-43.1l-101.6,0.1H4597c-11.6,12.5-18,28.9-18,45.9v769.9H4799.5
		L4799.5,1795.9z"/>
</g>
<path class="st2" d="M4642.4,926l-186.5-319.2c-2.8,19-16.8,10.5-16.8,10.5c-14.5-29.5-38.8-41.4-38.8-41.4
	c9.1,36.7-7.4,39.9-7.4,39.9c-17.4-9.5-17.7-39.4-17.7-41.1v376.9h252.3C4640.7,951.7,4649,937.4,4642.4,926z"/>
<path class="st9" d="M4351.3,509.4c-14.9,25.5-29.8,51-44.7,76.5c-2.2,3.7-4.6,7.4-6.6,11.2l0,0l-1.3,2.3c-0.2,0.3-0.4,0.6-0.6,1
	L4107.9,926c-6.7,11.4,1.7,25.7,15,25.7h252.3V587.9c0-0.1,0-0.1,0-0.1v-92C4365.9,495.8,4356.6,500.3,4351.3,509.4z M4316,600.4
	c1.8-1.3,3.6-2.8,5.2-4.3C4319.4,598,4317.7,599.4,4316,600.4z M4330.9,581.1c-0.7,1.5-1.4,2.8-2.2,4.1
	C4329.4,583.8,4330.1,582.4,4330.9,581.1z"/>
<path class="st3" d="M4528.3,924.4c-0.6-1.3-1.2-2.7-1.7-4c-2.7-6.5-5.3-13.1-7.6-19.7c-1.3-3.6-2.4-7.4-3.4-11.1
	c0-0.1-1.7-0.4-2-0.6c2.6-0.3,5.5-0.9,6.5-3.9c0.4-1.3-1.8-7.7-2-9.6c-0.3-4.7,0.1-9.4,1-14c-4.1,1.4-8.3,2.8-12.4,4.1
	c-5.2,1.7-10.5,3.3-16,3.5c-10.6,0.3-16.6-6-23.1-14.3c-2.8-3.6-5.8-7.1-9.7-9.1c-5.2-2.6-10.2-0.9-14.6,2.7
	c-15.1,12.1-26.5,30.3-43.8,38.9c-10.2,5.1-24.8,6.6-34.5-0.9c-4.3-3.4-7.2-8.7-8.8-14.3c-2.6-9-2.9-18.8-3.9-28.1
	c-1.9-16.3-0.7-44.8-11.9-57.2c-8.9-9.8-24.5,2.7-32,8.8c-14.1,11.4-28.1,22.9-42.1,34.4c-11.2,9.3-24,7.2-28.9-8
	c-3.7-11.4-1.8-25.1-7.6-35.6c-6.1-11.1-18.5-10.5-28.1-6.1c-12.3,5.6-17.4,15.4-24.3,27.2l-77.6,131.1c32,2.6,67.9,5.7,99.9,7.6
	c31.8,1.9,63.4,2,95.2,0.7c30.7-1.2,61.5-1.9,92.2-0.5c15.7,0.7,31.4,2,47,3.9c7.6,0.9,15.2,2,22.7,3.4c2.2-0.6,4.6-1,7.1-1.3
	c12.9-1.4,25.9-0.8,38.8-1.1c2.9-0.1,5.8-0.2,8.6-0.3c1.8-0.1,3.6-0.3,5.4-0.4c0.1,0,0.4,0,0.7-0.1c0.7-0.1,2-0.3,2.3-0.4
	c1.3-0.3,2.5-0.5,3.7-0.9c0.6-0.2,1.2-0.4,1.8-0.6c0.5-0.3,1-0.6,1.5-0.8c-0.1-7.1,0.6-14.5,2.3-21.3
	C4528.9,926,4528.7,925.4,4528.3,924.4z"/>
<path class="st1" d="M4398.9,509.4c-5.3-9.1-14.6-13.6-23.9-13.6v92v0.1c0,12.2,15.7,47.7,29.6,26.7c3.3-5,3.1-10.6,2.4-16.2
	c-0.4-2.9-1-5.9-0.9-8.8c0.1-7.1,12.2,1.6,14.1,3.1c6.1,4.9,9.7,10.8,13.3,17.6c2.7,5.1,7.7,12,14.5,11c6.2-1,8.3-8.6,8.3-13.9
	L4398.9,509.4z"/>
<path class="st1" d="M4351.2,509.4c-14.9,25.5-29.8,51-44.7,76.5c-2.3,4-5,7.9-7.1,12.1c-0.5,1.1-2.2,2.8-1.7,4
	c2.4,6.4,10.1,3.1,14.4,0.8c4.3-2.4,8.5-5.1,11.6-9c3.4-4.2,5.2-9.8,7.9-14.3c4.2,11.8,4.3,24.3,5.7,36.6c1,8.6,3.4,24.1,16.1,19.7
	c17-5.9,21.6-32.7,21.6-47.9v-92.1C4365.8,495.8,4356.5,500.3,4351.2,509.4z"/>
<path class="st10" d="M4351.1,509.4c-14.9,25.5-29.8,51-44.7,76.5c-2.2,3.7-4.6,7.4-6.6,11.2l0,0l-1.3,2.3c-0.2,0.3-0.4,0.6-0.6,1
	L4107.7,926c-6.7,11.4,1.7,25.7,15,25.7H4375V587.9c0-0.1,0-0.1,0-0.1v-92C4365.7,495.8,4356.4,500.3,4351.1,509.4z M4315.8,600.4
	c1.8-1.3,3.6-2.8,5.2-4.3C4319.2,598,4317.5,599.4,4315.8,600.4z M4330.7,581.1c-0.7,1.5-1.4,2.8-2.2,4.1
	C4329.2,583.8,4329.9,582.4,4330.7,581.1z"/>
<path class="st2" d="M4920.2,930l-157.7-269.9c-2.4,16.1-14.2,8.9-14.2,8.9c-12.2-25-32.8-35-32.8-35c7.7,31-6.3,33.8-6.3,33.8
	c-14.7-8-15-33.3-15-34.8v318.7h213.3C4918.8,951.7,4925.8,939.6,4920.2,930z"/>
<polygon class="st11" points="4550.4,768.6 4556.5,779 4460.6,943.6 4451.5,933.6 "/>
<path class="st9" d="M4674,577.7c-12.6,21.6-25.2,43.1-37.8,64.7c-1.8,3.1-3.9,6.2-5.6,9.5l0,0l-1.1,1.9c-0.2,0.3-0.3,0.5-0.5,0.8
	L4468.2,930c-5.6,9.6,1.4,21.7,12.7,21.7h213.3V644.1c0-0.1,0-0.1,0-0.1v-77.8C4686.3,566.2,4678.5,570,4674,577.7z M4644.1,654.6
	c1.6-1.1,3-2.3,4.4-3.7C4647,652.6,4645.5,653.8,4644.1,654.6z M4656.7,638.3c-0.6,1.2-1.2,2.4-1.8,3.5
	C4655.5,640.6,4656,639.4,4656.7,638.3z"/>
<path class="st12" d="M4694.2,644.1L4694.2,644.1C4694.2,644,4694.2,644,4694.2,644.1z"/>
<path class="st1" d="M4714.3,577.7c-4.5-7.7-12.3-11.5-20.2-11.5V644v0.1c0,10.3,13.3,40.4,25,22.6c2.8-4.2,2.7-8.9,2-13.7
	c-0.3-2.5-0.8-4.9-0.8-7.4c0-6,10.3,1.3,11.9,2.6c5.1,4.1,8.2,9.2,11.2,14.9c2.3,4.4,6.5,10.2,12.2,9.3c5.2-0.8,7-7.3,7-11.7
	L4714.3,577.7z"/>
<path class="st1" d="M4674,577.7c-12.6,21.6-25.2,43.1-37.8,64.7c-2,3.4-4.2,6.7-6,10.2c-0.5,0.9-1.8,2.3-1.4,3.4
	c2,5.4,8.6,2.7,12.1,0.6c3.7-2.1,7.2-4.3,9.8-7.6c2.8-3.5,4.4-8.3,6.7-12.1c3.6,10,3.6,20.6,4.8,31c0.8,7.3,2.8,20.4,13.6,16.6
	c14.3-5,18.3-27.7,18.3-40.5v-77.8C4686.3,566.2,4678.5,570,4674,577.7z"/>
<g>
	<path class="st3" d="M4823.8,780.3c-9.6-4.4-22-5-28.1,6.1c-5.8,10.6-3.9,24.2-7.6,35.6c-4.9,15.2-17.7,17.3-28.9,8
		c-14-11.6-28-23-42.1-34.4c-5.3-4.3-14.7-11.8-22.9-12.4v162.5c12.1,0.2,24.2,0.6,36.3,1.1c31.8,1.3,63.5,1.2,95.2-0.7
		c30.8-1.8,65.3-4.8,96.3-7.3c0.3-2.9-0.2-5.9-1.9-8.8l-72.2-123.6l0,0C4841,794.6,4836.1,785.9,4823.8,780.3z"/>
	<path class="st3" d="M4638.3,946.3c18.6-0.9,37.2-1,55.9-0.6V783.2c-3.4-0.2-6.5,0.7-9.1,3.6c-11.2,12.4-10,40.8-11.9,57.2
		c-1.1,9.3-1.3,19.2-3.9,28.1c-1.6,5.6-4.5,10.9-8.8,14.3c-9.7,7.6-24.2,6-34.5,0.9c-17.3-8.6-28.7-26.8-43.8-38.9
		c-4.4-3.5-9.4-5.3-14.6-2.7c-3.9,1.9-6.9,5.5-9.7,9.1c-6.5,8.3-12.5,14.6-23.1,14.3c-5.4-0.2-10.8-1.8-16-3.5
		c-3.6-1.2-7.2-2.4-10.9-3.6l-39.7,67.9c-0.8,1.3-1.3,2.6-1.6,4c7,5.2,32.1,7.4,32.1,13.7c0.5,0.3,1,0.6,1.5,0.8
		c0.6,0.2,1.2,0.4,1.8,0.6c1.2,0.4,2.5,0.6,3.7,0.9c0.4,0.1,1.6,0.3,2.3,0.4c0.3,0,0.6,0.1,0.7,0.1c1.8,0.2,3.6,0.3,5.4,0.4
		c2.9,0.2,5.8,0.3,8.6,0.3c10.3,0.2,20.5-0.1,30.8,0.5h27c3.6-0.5,7.2-1,10.8-1.4C4606.9,948.3,4622.6,947.1,4638.3,946.3z"/>
</g>
<path class="st13" d="M4674,577.7c-12.6,21.6-25.2,43.1-37.8,64.7c-1.8,3.1-3.9,6.2-5.6,9.5l0,0l-1.1,1.9c-0.2,0.3-0.3,0.5-0.5,0.8
	L4468.2,930c-5.6,9.6,1.4,21.7,12.7,21.7h213.3V644.1c0-0.1,0-0.1,0-0.1v-77.8C4686.3,566.2,4678.5,570,4674,577.7z M4644.1,654.6
	c1.6-1.1,3-2.3,4.4-3.7C4647,652.6,4645.5,653.8,4644.1,654.6z M4656.7,638.3c-0.6,1.2-1.2,2.4-1.8,3.5
	C4655.5,640.6,4656,639.4,4656.7,638.3z"/>
<path class="st1" d="M4431.1,833.6c-10.3,34.1-18.9,46.7-18.9,46.7h89.5v-46.7H4431.1L4431.1,833.6z"/>
<rect x="4515.3" y="398" class="st14" width="2.8" height="46.8"/>
<rect x="4541" y="398" class="st14" width="2.8" height="46.8"/>
<path class="st15" d="M4513.5,336.8v48.7c0,0.9,0.7,1.7,1.7,1.7c0.9,0,1.7-0.7,1.7-1.7v-48.7H4513.5z"/>
<path class="st15" d="M4516.8,331.9c0-0.9-0.7-1.7-1.7-1.7s-1.7,0.7-1.7,1.7v2.1h3.3v-2.1H4516.8z"/>
<rect x="4513.5" y="333.9" class="st16" width="3.3" height="2.8"/>
<path class="st15" d="M4501.6,364v5.8h-6.7c0,0.2,0,0.3,0,0.4v2.6h40.3v-2.6c0-2.2-0.4-4.3-1.1-6.2L4501.6,364L4501.6,364z"/>
<rect x="4504.7" y="398" class="st17" width="10.4" height="46.8"/>
<polygon class="st17" points="4501.6,398 4501.6,398 4492.5,398 4492.5,444.8 4501.6,444.8 "/>
<rect x="4466.4" y="398" class="st17" width="9.2" height="46.8"/>
<rect x="4530.1" y="398" class="st17" width="10.7" height="46.8"/>
<rect x="4516.7" y="398" class="st17" width="10.4" height="46.8"/>
<rect x="4542.4" y="398" class="st17" width="10.7" height="46.8"/>
<polygon class="st18" points="4478.6,443.1 4478.6,443.1 4489.5,443.1 4489.5,443.1 4489.4,443.1 "/>
<polygon class="st18" points="4466.4,443.1 4466.4,443.1 4477.2,443.1 4477.2,443.1 4475.5,443.1 "/>
<path class="st1" d="M4501.6,764.3h79c-2.7-15.3-5.3-32.4-7.6-51.5h-71.4V764.3L4501.6,764.3z"/>
<path class="st1" d="M4501.6,645.2c23.4,0,49,0,65-0.1c-1.1-16.1-2.1-33.2-2.8-51.4h-62.3L4501.6,645.2L4501.6,645.2L4501.6,645.2z"
	/>
<path class="st1" d="M4501.6,524.4h60.8c0-4.7,0-9.4,0-14.2c0-0.1,0-0.2,0-0.3c0,0,0.5-0.3,0.6-0.3c0.2-0.2,0.4-0.3,0.7-0.5
	c0.4-0.3,0.8-0.7,1.1-1.1c0.8-0.9,0.9-2,0.9-3.1c0-0.2,0-2.2,0-2.2h-64L4501.6,524.4L4501.6,524.4z"/>
<polygon class="st16" points="4475.5,398 4475.5,398 4475.5,444.8 4477.2,444.8 4477.2,398 "/>
<rect x="4501.6" y="398" class="st16" width="3.1" height="46.8"/>
<rect x="4527.1" y="398" class="st16" width="3.1" height="46.8"/>
<rect x="4553.2" y="398" class="st16" width="3.1" height="46.8"/>
<rect x="4540.9" y="398" class="st14" width="1.5" height="46.8"/>
<rect x="4478.6" y="398" class="st19" width="0" height="46.8"/>
<rect x="4489.5" y="398" class="st19" width="2.8" height="46.8"/>
<rect x="4477.1" y="398" class="st19" width="1.6" height="46.8"/>
<rect x="4463.8" y="446.5" class="st16" width="37.8" height="33"/>
<polygon class="st16" points="4501.6,479.4 4513.9,479.4 4567.9,479.4 4567.9,446.5 4501.6,446.5 "/>
<rect x="4463.8" y="446.5" class="st19" width="37.8" height="33"/>
<path class="st1" d="M4501.6,712.8h-47c-2.3,19.1-4.8,36.1-7.6,51.5h54.6V712.8z"/>
<path class="st1" d="M4501.6,712.8h-47c-2.3,19.1-4.8,36.1-7.6,51.5h54.6V712.8z"/>
<path class="st19" d="M4501.6,712.8h-47c-2.3,19.1-4.8,36.1-7.6,51.5h54.6V712.8z"/>
<path class="st1" d="M4501.6,645.2v-51.5h-37.8c-0.7,18.2-1.7,35.4-2.8,51.5C4471.3,645.2,4486,645.2,4501.6,645.2z"/>
<path class="st1" d="M4501.6,645.2v-51.5h-37.8c-0.7,18.2-1.7,35.4-2.8,51.5C4471.3,645.2,4486,645.2,4501.6,645.2z"/>
<path class="st19" d="M4501.6,645.2v-51.5h-37.8c-0.7,18.2-1.7,35.4-2.8,51.5C4471.3,645.2,4486,645.2,4501.6,645.2z"/>
<path class="st1" d="M4596.7,833.6h-95.1v46.7h12.3h101.7C4615.6,880.3,4607,867.8,4596.7,833.6z"/>
<path class="st1" d="M4431.1,833.6c-10.3,34.1-18.9,46.7-18.9,46.7h89.5v-46.7H4431.1L4431.1,833.6z"/>
<g>
	<path class="st15" d="M4562.4,524.4h-60.8v69.3h62.3C4563.1,572.1,4562.6,549.1,4562.4,524.4z"/>
	<path class="st15" d="M4463.8,593.7h37.8v-69.3h-36.3C4465.2,549.1,4464.7,572.2,4463.8,593.7z"/>
</g>
<path class="st18" d="M4501.6,524.4h-36.3c-0.2,24.7-0.7,47.7-1.6,69.3h37.8L4501.6,524.4L4501.6,524.4z"/>
<path class="st18" d="M4501.6,645.2c-15.6,0-30.3,0-40.6,0c-1.7,24.9-3.9,47.4-6.4,67.7h47V645.2L4501.6,645.2z"/>
<g>
	<path class="st15" d="M4501.6,712.8h71.4c-2.5-20.3-4.7-42.8-6.4-67.8c-16.1,0-41.6,0.1-65,0.1V712.8L4501.6,712.8L4501.6,712.8z"
		/>
	<path class="st20" d="M4501.6,645.2c-15.6,0-30.3,0-40.6,0c-1.7,24.9-3.9,47.4-6.4,67.7h47V645.2L4501.6,645.2z"/>
</g>
<g>
	<path class="st15" d="M4501.6,712.8h71.4c-2.5-20.3-4.7-42.8-6.4-67.8c-16.1,0-41.6,0.1-65,0.1V712.8L4501.6,712.8L4501.6,712.8z"
		/>
	<path class="st20" d="M4501.6,645.2c-15.6,0-30.3,0-40.6,0c-1.7,24.9-3.9,47.4-6.4,67.7h47V645.2L4501.6,645.2z"/>
</g>
<path class="st15" d="M4501.6,833.6h95.1c-5.2-17.2-10.9-40-16-69.3h-79L4501.6,833.6L4501.6,833.6z"/>
<path class="st1" d="M4501.6,502.6h-39.5c0,0,0,2.1,0,2.2c0,1.1,0.1,2.2,0.9,3.1c0.3,0.4,0.7,0.8,1.1,1.1c0.2,0.2,0.4,0.3,0.7,0.5
	l0.6,0.3c0,0.1,0,0.2,0,0.3c0,4.8,0,9.6,0,14.2h36.3v-21.7H4501.6z"/>
<path class="st19" d="M4501.6,502.6h-39.5c0,0,0,2.1,0,2.2c0,1.1,0.1,2.2,0.9,3.1c0.3,0.4,0.7,0.8,1.1,1.1c0.2,0.2,0.4,0.3,0.7,0.5
	l0.6,0.3c0,0.1,0,0.2,0,0.3c0,4.8,0,9.6,0,14.2h36.3v-21.7H4501.6z"/>
<polygon class="st18" points="4463.8,479.4 4451.6,479.4 4447.6,479.4 4447.6,494.5 4455.1,494.5 4455.1,502.6 4462.2,502.6 
	4501.6,502.6 4501.6,491 4501.7,491 4501.7,479.4 "/>
<g>
	<polygon class="st15" points="4567.9,479.4 4513.9,479.4 4501.6,479.4 4501.6,491 4501.6,502.6 4565.6,502.6 4572.7,502.6 
		4572.7,494.5 4580.2,494.5 4580.2,479.4 	"/>
	<polygon class="st19" points="4463.8,479.4 4451.6,479.4 4447.6,479.4 4447.6,494.5 4455.1,494.5 4455.1,502.6 4462.2,502.6 
		4501.6,502.6 4501.6,491 4501.7,491 4501.7,479.4 	"/>
</g>
<path class="st18" d="M4475.5,388.8v9.2h1.6h1.4l0,0h10.7l0,0h1.4h1.6h9.2v-28.3h-7C4484.1,369.7,4475.5,378.3,4475.5,388.8z"/>
<rect x="4503.3" y="398" class="st19" width="1.4" height="46.8"/>
<rect x="4528.7" y="398" class="st19" width="1.4" height="46.8"/>
<rect x="4554.8" y="398" class="st19" width="1.4" height="46.8"/>
<polygon class="st18" points="4542.4,443.1 4540.9,443.1 4530.1,443.1 4527.1,443.1 4516.7,443.1 4515.1,443.1 4504.7,443.1 
	4501.6,443.1 4492.5,443.1 4492.5,443.1 4501.6,443.1 4501.6,446.5 4567.9,446.5 4574.3,446.5 4574.3,443.1 4556.2,443.1 
	4553.2,443.1 "/>
<polygon class="st18" points="4457.5,443.1 4463.3,443.1 4463.3,443.1 "/>
<polygon class="st18" points="4463.8,446.5 4501.6,446.5 4501.6,443.1 4492.5,443.1 4492.5,443.1 4490.9,443.1 4489.5,443.1 
	4489.5,443.1 4478.6,443.1 4478.6,443.1 4478.6,443.1 4477.2,443.1 4477.2,443.1 4466.4,443.1 4466.4,443.1 4463.3,443.1 
	4463.3,443.1 4457.5,443.1 4457.5,446.5 "/>
<polygon class="st19" points="4463.8,446.5 4501.6,446.5 4501.6,443.1 4492.5,443.1 4492.5,443.1 4490.9,443.1 4489.5,443.1 
	4489.5,443.1 4478.6,443.1 4478.6,443.1 4478.6,443.1 4477.2,443.1 4477.2,443.1 4466.4,443.1 4466.4,443.1 4463.3,443.1 
	4463.3,443.1 4457.5,443.1 4457.5,446.5 "/>
<path class="st15" d="M4447.1,764.3c-5.1,29.4-10.8,52.1-16,69.3h70.6v-69.3H4447.1z"/>
<path class="st18" d="M4447.1,764.3c-5.1,29.4-10.8,52.1-16,69.3h70.6v-69.3H4447.1z"/>
<path class="st1" d="M4513.9,822L4513.9,822c-9.6,0-17.4,7.8-17.4,17.4v36.7h34.7v-36.7C4531.3,829.8,4523.5,822,4513.9,822z"/>
<path class="st21" d="M4513.9,820.9L4513.9,820.9c-9.9,0-18,8.1-18,18v38.2h36.1V839C4531.9,829,4523.8,820.9,4513.9,820.9z"/>
<path class="st19" d="M4431.1,833.6c-10.3,34.1-18.9,46.7-18.9,46.7h89.5v-46.7H4431.1L4431.1,833.6z"/>
<path class="st17" d="M4468.4,953c8.9-17.6,19.2-35.3,28.6-53.2C4487.6,917.6,4477.3,935,4468.4,953L4468.4,953z"/>
<path class="st5" d="M4468.3,953c8.9-18,19.2-35.4,28.6-53.2c5.5-10.6,10.7-21.2,15.1-31.9c-12.6,2.4-24.8,6.5-37.5,7.9
	c-16.9-1-33.6-5-50.6-6.5c-19.4,3.6-38.4,8.8-57.7,12.7c-7.6,0.7-11.7,7.8-16.7,12.7c-8.2,9.3-17.7,17.7-24.9,28
	c-1.4,2.1-2.8,4.2-4.1,6.3c25.4,6.1,49.9,15.6,75.2,22.3c23.3,6.4,48.4,9.6,72,3.1C4467.9,953.8,4468.1,953.4,4468.3,953
	C4468.4,953,4468.4,953,4468.3,953z"/>
<path class="st22" d="M4700.8,930.3c-7.1-8.1-14-16.6-20.6-25.1c-2.7-3.4-5.6-6.9-9.8-8.5c-17.3-7.6-34.4-15.8-51.7-23.5
	c-10.2-2.3-20.8-0.5-31.2-0.8c-9.3,0.6-18.7-1.5-27.5-4.5c-7.5-2.2-14.6-5.3-22.3-5.8c-8.7,0.6-17.1,3.7-25.7,5.5v0.1l0,0
	c-4.5,11-9.7,21.5-15.2,31.9c-9.4,18-19.8,35.7-28.6,53.2c-0.2,0.4-0.4,0.9-0.7,1.3l0,0l5.4-1.5c32.4-11.4,64.5-26.1,99.4-26
	c25.2-0.6,49.1,8.1,72.7,15.8c19.7,7.1,40.9,13.9,62,8.5C4705.1,944,4703.5,936.9,4700.8,930.3z"/>
<path class="st21" d="M4512.2,870.6L4512.2,870.6c-4.5,10.7-9.6,21.4-15.2,31.9C4502.5,892.1,4507.7,881.5,4512.2,870.6z"/>
<path class="st15" d="M4498.5,359.7C4498.5,359.6,4498.5,359.6,4498.5,359.7C4498.5,359.6,4498.5,359.6,4498.5,359.7z"/>
<path class="st15" d="M4499.5,358.4c0,0,0.1-0.1,0.1-0.2C4499.5,358.3,4499.5,358.4,4499.5,358.4z"/>
<path class="st15" d="M4499,359c0,0,0.1-0.1,0.2-0.2C4499,358.9,4499,359,4499,359z"/>
<path class="st19" d="M4495,369.7L4495,369.7c0.1-3.8,1.4-7.2,3.4-10.1C4496.8,361.9,4495,365.3,4495,369.7z"/>
<path class="st19" d="M4498.5,359.6c0.2-0.2,0.3-0.4,0.5-0.6C4498.8,359.2,4498.6,359.4,4498.5,359.6z"/>
<path class="st19" d="M4499.1,358.8c0.1-0.2,0.3-0.3,0.3-0.4C4499.3,358.6,4499.2,358.7,4499.1,358.8z"/>
<path class="st19" d="M4501.6,356.3L4501.6,356.3c0,0-0.9,0.7-2.1,2C4500.2,357.6,4500.9,356.9,4501.6,356.3z"/>
<path class="st18" d="M4501.6,356.3c-0.8,0.6-1.4,1.2-2.1,2c0,0-0.1,0.1-0.1,0.2c-0.1,0.2-0.3,0.3-0.3,0.4c0,0-0.1,0.1-0.2,0.2
	c-0.2,0.2-0.3,0.4-0.5,0.6l0,0c-2.1,2.8-3.4,6.3-3.4,10.1h6.7v-13.5H4501.6z"/>
<path class="st15" d="M4501.6,398L4501.6,398h3.1h10.4h1.5h10.4h3.1h10.7h1.5h10.7h3.1v-9.2c0-1-0.1-2-0.2-3h-54.3L4501.6,398
	L4501.6,398z"/>
<path class="st15" d="M4537.1,369.7h-35.4V380h52.3C4550.8,373.9,4544.4,369.7,4537.1,369.7z"/>
<path class="st16" d="M4501.6,380v5.9h54.3c-0.3-2.1-1-4.1-2-5.9H4501.6z"/>
<rect x="4501.6" y="380" class="st16" width="0" height="5.9"/>
<path class="st19" d="M4501.6,369.7h-7c-7.3,0-13.7,4.1-16.9,10.3h23.9V369.7z"/>
<path class="st19" d="M4475.5,388.8v9.2h1.6h1.4l0,0h10.7l0,0h1.4h1.6h9.2v-12.1h-25.9C4475.6,386.9,4475.5,387.9,4475.5,388.8z"/>
<path class="st16" d="M4477.8,380c-1,1.8-1.7,3.8-2,5.9h25.9V380H4477.8z"/>
<path class="st19" d="M4477.8,380c-1,1.8-1.7,3.8-2,5.9h25.9V380H4477.8z"/>
<path class="st15" d="M4532.1,360.1c-3.1-4.5-8.4-7.6-14.4-7.6h-5.1c-4.1,0-7.9,1.4-10.9,3.8v3.8L4532.1,360.1L4532.1,360.1z"/>
<path class="st16" d="M4501.6,364h32.5c-0.5-1.4-1.2-2.6-2-3.8h-30.5V364z"/>
<path class="st19" d="M4501.6,356.3c-0.8,0.6-1.4,1.2-2.1,2c0,0-0.1,0.1-0.1,0.2c-0.1,0.2-0.3,0.3-0.3,0.4c0,0-0.1,0.1-0.2,0.2
	c-0.2,0.2-0.3,0.4-0.5,0.6l0,0c-0.1,0.2-0.2,0.3-0.3,0.5h3.5V356.3L4501.6,356.3z"/>
<path class="st19" d="M4501.6,364h-5.6c-0.7,1.8-1.1,3.7-1.1,5.8h6.7V364L4501.6,364z"/>
<path class="st16" d="M4501.6,360.1h-3.5c-0.8,1.2-1.5,2.5-2,3.8h5.6L4501.6,360.1L4501.6,360.1z"/>
<path class="st19" d="M4501.6,360.1h-3.5c-0.8,1.2-1.5,2.5-2,3.8h5.6L4501.6,360.1L4501.6,360.1z"/>
<g>
	<path class="st21" d="M4525.6,690.1v-13.5c0-4.8,3.8-8.7,8.6-8.7c4.8,0,8.6,3.9,8.6,8.7v13.5H4525.6z"/>
	<path class="st23" d="M4534.3,667.7c3.2,0,5.9,1.7,7.5,4.4c-1.6-1.7-3.8-2.7-6.2-2.7c-4.8,0-8.6,3.9-8.6,8.7V690h-1.2v-13.5
		C4525.7,671.6,4529.6,667.7,4534.3,667.7z"/>
</g>
<g>
	<path class="st21" d="M4475.2,570.2v-13.5c0-4.8,3.8-8.7,8.6-8.7c4.8,0,8.6,3.9,8.6,8.7v13.5H4475.2z"/>
	<path class="st23" d="M4483.9,547.9c3.2,0,5.9,1.7,7.5,4.4c-1.6-1.7-3.8-2.7-6.2-2.7c-4.8,0-8.6,3.9-8.6,8.7v11.9h-1.2v-13.5
		C4475.3,551.8,4479.2,547.9,4483.9,547.9z"/>
</g>
<path class="st19" d="M4501.7,833.6v-7.9c0,0-3.4,2.9-5,7.9H4501.7z"/>
<g>
	<rect x="4506.3" y="484.3" class="st16" width="15.2" height="13.4"/>
	<rect x="4509" y="486.6" class="st14" width="9.9" height="8.8"/>
</g>
<path class="st22" d="M4705.1,943.8v14.1h-222.5v-23.2c0,0,73.9-24.8,75.9-26.5s40.8,1.8,49.2,3c8.4,1.2,22.7,6.4,23.9,7.6"/>
<path class="st5" d="M4707,950.9c-1.9-6.9-3.5-14-6.2-20.6c-7.1-8.1-14-16.6-20.6-25.1c-2.7-3.4-5.6-6.9-9.8-8.5
	c-17.3-7.6-34.4-15.8-51.7-23.5c-10.2-2.3-20.8-0.5-31.2-0.8c-9.3,0.6-18.7-1.5-27.5-4.5c-7.5-2.2-14.6-5.3-22.3-5.8
	c-8.7,0.6-17.1,3.7-25.7,5.5v0.1l0,0c-4.5,11-9.7,21.5-15.2,31.9c-9.4,18-19.8,35.7-28.6,53.2c-0.2,0.4-0.4,0.9-0.7,1.3l5.4-1.5
	c3.3-1.1,6.5-2.3,9.8-3.5v8.7h222.5v-6.5C4705.8,951.2,4706.4,951.1,4707,950.9z"/>
<path class="st5" d="M4333.3,945.9c0.7,0.2,1.4,0.3,2.2,0.5l11.9-23.1l-26.3,4.8c-0.1,0.3-5.2,8.4-10.3,16.3
	C4318.2,943.9,4325.5,944.2,4333.3,945.9z"/>
<path class="st24" d="M4707,950.9c-1.9-6.9-3.5-14-6.2-20.6c-7.1-8.1-14-16.6-20.6-25.1c-2.7-3.4-5.6-6.9-9.8-8.5
	c-17.3-7.6-34.4-15.8-51.7-23.5c-10.2-2.3-20.8-0.5-31.2-0.8c-9.3,0.6-18.7-1.5-27.5-4.5c-7.5-2.2-14.6-5.3-22.3-5.8
	c-8.7,0.6-17.1,3.7-25.7,5.5v0.1l0,0c-4.5,11-9.7,21.5-15.2,31.9c-9.4,18-19.8,35.7-28.6,53.2c-0.2,0.4-0.4,0.9-0.7,1.3l5.4-1.5
	c3.3-1.1,6.5-2.3,9.8-3.5v8.7h222.5v-6.5C4705.8,951.2,4706.4,951.1,4707,950.9z"/>
<path id="XMLID_2_" class="st5" d="M4056.2,966.5c-0.7-8.1,34.1-35.9,63-43.3c15.8-4.1,34.8-3.6,49.7,1.3
	c26.3,8.6,58.4,11.4,88.9,7.7l125.1-9.1c68.2-5.9,131.6,10.9,131.6,10.9c11.4,3,24.6,3.6,36.8,1.6c0,0,19.9-3.7,45.6-8
	c48.7-8.2,98.7,16.9,146,6.8c33.5-7.1,117.9-18.3,170.6,0.6c12.9,4.2,38.5,14.7,49.6,28.8C4958.5,964.9,4090.7,966.5,4056.2,966.5z"
	/>
<rect x="2" y="1835.3" class="st1" width="3353.5" height="64"/>
<path id="XMLID_3637_" class="st1" d="M716.4,289.8c-5.9-3.3-11.9-6.6-18.6-7.6c-6.7-1-14.2-0.2-18.2,5.3c-9-5.6-21.6-5.9-31.3-1.8
	c-1.9-5.6-10.1-8.3-15.2-5.5c0.6-6.1-3.2-12.3-8.8-14.6c-5.6-2.3-12.7-0.6-16.6,4c-1.4-2.1-4.2-3.1-6.6-2.5c-2.4,0.7-3.6,1.5-3.7,4
	c-3.5-7.5-9.6-13.9-17.3-16.7s-17-1.8-23.3,3.5s-9.3,14.5-5.6,21.8c-5.1-6.2-13.3-9.8-21.4-9.3c-8.1,0.5-16,5.3-20.3,12.1
	c-3.5-4.3-10.5-5.2-14.9-1.9c-1.8-4.1-7.8-5.3-10.9-2.1c1.6-4.8,0.3-10.5-3.2-14.2s-7.7-4.5-12.7-3.2c0.5-2.9,1-5.9,0.4-8.8
	c-0.6-2.9-2.6-5.7-5.4-6.4c-2.9-0.7-4.5,1.2-4.3,4.2c-4.5-7.6-13.4-12.3-22.3-11.8c-8.8,0.5-17.2,6.2-20.8,14.3
	c-2.7,5.9-2.5,12.6-0.2,18.6c-1.5-2.2-3.3-4.3-5.6-5.8c-4.2-2.8-10.6-2.9-13.7,1c-2.1,2.6-2.3,6.4-1.3,9.6s2.6,6.4,4.6,9.1
	c-1.5-2.3-4.2-3.6-6.9-3.4c-2.7,0.2-5.1,1.8-6.1,4.3c-3.1-2.4-7.5-1.9-11.4-1.3c-14.2,2.2-27.8,6.2-41.8,7.9h-0.2h0.1
	c-3.7,0.4-7.5,0.7-11.4,0.7h21.1c39,2.7,78.1,3.3,117.2,1.9c12.5-0.4,25,3.3,37.1,0.1c28.8,9.8,60.8,9.7,89.4-0.5
	c18.7,4.4,38.2,5.5,57.3,3.5c12.4-1.3,24.9,2.7,35.9-3.2c6.7,2.6,14.6,2.5,20.9-1c4.3,2.8,14.7-0.9,35.1-0.9
	C728.5,291.1,722.9,293.4,716.4,289.8z"/>
<path class="st1" d="M3120.3,378.4c1.3-3.4,1.8-7.1,1-10.6c-1.7-7.9-10.9-14.1-18.9-15.3c2.6-3.5,1.9-9.1-1.5-11.9
	s-8.5-4.6-11.4-1.3c2.2-6.3,4.4-13.4,1.7-19.5c-2.6-6.2-10.3-11.9-13.6-6.1c4.8-13.9,6.7-29.1,3.4-43.5
	c-3.3-14.3-12.3-27.7-25.4-34.5c-8.4-4.3-18.4-5.6-27.5-3.5c-0.6-3.7-1.8-7.3-3.6-10.6c-5.3-9.7-16.3-16.4-27.4-15.5
	s-20.5,9.5-21.4,20.5c-1.1-1.6-3.3-2.4-5.2-1.8c-1.9,0.6-3.4,1-3.3,3c-2.6-5.8-9.3-9.2-15.6-8.8c-6.3,0.5-12.1,4.4-15.8,9.6
	c-3.7,5.2-4.3,12.2-4.8,18.6c-2.3-1.4-5.5-1.1-7.5,0.7s-2.9,3.5-1.8,6c-1.9-2.2-5.2-3.1-7.9-2c-2.7,1-2.5,2.4-2.4,5.3
	c-11.2,1.6-21.6,8.3-27.7,17.9c-6.1,9.6-8.5,21.8-5.2,32.6c-1.6-0.6-3.5,0.2-4.3,1.6s0.2,4.6,1.5,5.7c-2.6-1.8-6.3-1.8-8.8,0.1
	s-4.6,6.5-3.4,9.5c-1.3-4.2-7-4.9-10.9-2.7c1.7-2.3,1.6-5.8-0.2-8.1c-1.8-2.3-5.2-4.4-7.8-3.3c2.2-14.1-2.9-29-13.2-38.8
	s-25.5-14.1-39.5-11.3c-4.3,0.9-8.6,2.5-12,5.4s-7.7,6.7-7.4,11.1c-3.3-1.4-7.3-0.7-10,1.6s-2.3,6.9-1.2,10.3
	c-2.7-2.8-8.3-0.2-8.9,3.7c-1.2-5.4-6.3-9.6-11.8-9.8s-12,3.6-13.6,8.9c1.1-2.5,0.3-5.7-1.8-7.5s-5.8-2.1-8.1-0.5
	c1.3-2.7,0.2-6.3-2.3-7.8c-2.6-1.5-6.5-1.6-8.2,0.9c-1.6-19.5-18.9-35.9-38.3-38.4s-39.3,7.5-50.7,23.4
	c-11.1,15.5-15.8,34.8-12.6,53.6c-0.6-2.4-2.3-4.5-4.6-5.4c-2.7-1.1-5.7-2.3-7.9-0.3c-3.3-5.6-10.8-7.9-17-5.8
	c-6.1,2-10.7,7.7-12.3,14s-0.3,13.6,2.2,19.5c-3.2-3-9.3-3.6-12.2-0.3c-6.8-6.4-18-7.3-25.8-2.3c-7.8,5.1-11.5,15.3-8.5,24.1
	c-3.2-3.9-10.7-1.5-11.4,3.5c-2.8-4.9-10.2-5-15-2.2c-4.9,2.9-8.1,7.8-12.2,11.6c-4.1,3.9-9.7,4.6-15.3,4.6h33.2
	c9.1,4.3,19.6,5.1,29.5,2.5c1.5,4,5.7,6.4,9.9,7.1c4.2,0.6,8.5-0.2,12.6-1.1c6.7-1.4,12.8-4.1,19.5-5.5c7.5,7.1,21.1,8.2,27.9,0.4
	c0.8,4.3,6.1,6.1,10.5,5.9s8.9-1.5,13,0.1c2.7,1,4.8,3.2,7.3,4.6c4.4,2.5,11,3,15.4,0.5c19.1,6.5,40.7,5.6,58.9-3.2
	c17.4,7.5,36.7,10.4,55.4,8.3c4.7-0.5,9.9-1.7,13.8-4.2c7.9,3.3,16.1,6,24.6,6.6c11.4,0.8,22.7-2.4,33.5-6.1l0,0
	c1.7,2.6,5.7,3.7,8.8,3.3c1.5-0.2,2.9-0.8,4.1-1.8c3.4,0.3,6.7,0.5,10.1,0.7c3.9,1.3,8.2,1.4,12.1,0.2c1.4,0,2.8-0.1,4.3-0.2
	c19.2,6.3,40.5,5.2,59.1-2.9c14,7.1,31.5,7.7,46.1,2.1c2.7,1.6,5.8,2.6,9,2.7c0.1,0,0.1,0,0.2,0c5.7,1.3,12.4-0.6,16.9-4.7
	c1.8,0.8,3.9,1,5.9,0.6c11.3,2,22.9,3.8,34.2,2.4c8.5,3.8,21,1.4,28.9-3.5c8.2,5.9,19.7,6.6,28.9,2.5c4.2,1.8,9.5,2.6,13.9,1.5
	s8.4-4.6,9.3-9.1C3122.1,383.4,3121.5,380.7,3120.3,378.4z"/>
</svg>
