<?xml version="1.0" encoding="utf-8"?>
<!-- Generator: Adobe Illustrator 19.0.0, SVG Export Plug-In . SVG Version: 6.00 Build 0)  -->
<svg version="1.1" id="Layer_1" xmlns="http://www.w3.org/2000/svg" xmlns:xlink="http://www.w3.org/1999/xlink" x="0px" y="0px"
	 viewBox="1957.1 -1925.3 4509.6 4690.3" style="enable-background:new 1957.1 -1925.3 4509.6 4690.3;" xml:space="preserve">
<style type="text/css">
	.st0{fill:#FFFFFF;}
	.st1{fill:#D9D9D8;}
	.st2{fill:#ECECEC;}
	.st3{fill:#1D1D1B;}
	.st4{fill:#B76B5F;}
	.st5{fill:#B74632;}
	.st6{fill:#A43E2E;}
	.st7{fill:#634019;}
</style>
<g id="Background">
</g>
<g id="Background_1_">
</g>
<g id="Background_2_">
</g>
<g>
	<path class="st0" d="M6352.2,898.5c0.6,0.1,1.2,0.1,1.8,0c2.3-0.4,4.2-2.2,4.8-4.6l0,0c26.3-114.9,43.5-232.5,51.1-349.5
		c0.2-3.3-2.1-6.1-5.2-6.3c-1.4-0.1-2.9,0.4-4,1.4c-1.2,1.1-1.9,2.6-1.9,4.3c-7.5,116.4-24.7,233.4-50.8,347.9
		C6347.3,894.6,6349.1,897.6,6352.2,898.5z"/>
	<path class="st0" d="M6464.6,371.1c-1.1-0.9-2.4-1.4-3.7-1.4c-1.4,0-2.7,0.6-3.8,1.6c-1.1,1.2-1.9,2.8-1.8,4.5
		c1.8,166.9-15,333.6-49.7,495.4c-2.5,11.4-4.8,21.8-7.1,31.8c-36,157.2-89.5,311.2-158.7,457.8c-0.8,1.5-0.8,3.3-0.2,4.8
		c0.5,1.3,1.5,2.4,2.8,3c1,0.4,2,0.6,3.1,0.4c0.3,0,0.7-0.1,1-0.3c1.5-0.6,2.9-1.7,3.5-3.2c69.6-147.1,123.3-301.8,159.6-460.2
		c2.4-10.5,4.8-21.3,7.1-31.8c35-163,51.7-330.5,49.8-497.8C6466.5,374,6465.8,372.2,6464.6,371.1z"/>
	<path class="st0" d="M6212.2,1421.2c-1.5,0.5-2.9,1.6-3.6,3.1l0,0c-52.7,102.9-114.1,203-182.3,297.1c-2,2.6-1.6,6.2,0.9,8.2
		l0.1,0.1c1.3,0.9,2.6,1.2,4.1,0.9c1.5-0.2,3-1.1,4.1-2.5c68.7-94.8,130.4-195.3,183.2-298.7c1.4-2.9,0.4-6.2-2.2-7.8
		C6215.1,1420.9,6213.6,1420.8,6212.2,1421.2z"/>
	<path class="st0" d="M5941.1,1763.5c0.2,0,0.3,0,0.5-0.1c1.5-0.2,2.9-1.1,3.8-2.2l0,0c103.2-132.2,191.4-276,262.2-427.4
		c0.1-0.1,0.1-0.3,0.2-0.4l0,0c47.1-100.9,86.9-206.2,118.2-312.9c0.9-3.1-0.7-6.3-3.6-7.3l-0.2-0.1c-3.1-0.8-6.2,1.1-7,4.2
		c-32.1,109.6-73.3,217.6-122.1,321.1c-0.1,0.1-0.1,0.3-0.2,0.4l0,0c-69.7,147.2-155.9,286.9-256.1,415.5c-1.9,2.5-1.6,6,0.7,8
		C5938.3,1763.2,5939.7,1763.6,5941.1,1763.5z"/>
	<polygon class="st0" points="5529.9,2169.4 5529.9,2169.5 5529.9,2169.5 	"/>
	<path class="st0" d="M5525.3,2170.6c0.6,0.1,1.2,0.1,1.8,0c1-0.2,1.9-0.5,2.7-1.2c90.5-68.1,176.9-144.2,256.8-226.3
		c2.3-2.3,2.3-5.9,0.2-8.1c-1-1.1-2.4-1.5-3.9-1.6c-1.6,0-3.1,0.7-4.4,1.8c-79,81.3-165,157.1-255.5,225.2c-1.4,1-2.2,2.5-2.4,4
		c-0.2,1.4,0.2,2.8,1,3.9C5522.5,2169.7,5523.8,2170.5,5525.3,2170.6z"/>
	<path class="st0" d="M5932.8,1850.1c-2.4-1.8-6-1.4-8.1,1l0,0c-103.1,122.4-219.2,233.9-345.2,331.5c-7.8,6.1-16.1,12.5-25.3,19.3
		c-129,97.1-268.7,180.4-415.2,247.6c-3,1.3-4.4,4.7-3.2,7.5v0.1c1.1,2.3,3.7,3.4,6.2,3c0.5-0.1,1.1-0.3,1.6-0.5
		c147.5-67.7,287.9-151.4,417.3-248.9c5.7-4.3,11.4-8.6,16.9-12.9c2.8-2.2,5.7-4.4,8.5-6.5c126.9-98.4,243.5-210.4,346.9-333.2
		C5935.5,1855.8,5935.3,1852.2,5932.8,1850.1L5932.8,1850.1z"/>
	<path class="st0" d="M5077.9,2478.5c-1.5-0.6-3.2-0.6-4.7,0.2c-110.3,46.4-225.3,84.1-341.8,112.2c-3.2,0.8-5.2,3.9-4.6,6.8
		c0.3,1.4,1.2,2.5,2.5,3.3s2.8,1.1,4.3,0.8c0.2,0,0.4-0.1,0.6-0.1c117-28.2,232.5-66.2,343.5-112.9c3-1.3,4.5-4.7,3.3-7.5
		C5080.4,2480.1,5079.3,2479,5077.9,2478.5z"/>
	<path class="st0" d="M4639.7,2569.4c0.1,0,0.2,0,0.3,0c169.8-34.3,335.3-88.6,491.7-161.2c0.2,0,0.4-0.2,0.5-0.3
		c101.3-47.1,199.6-102.2,292.1-163.8c2.6-1.8,3.5-5.3,1.7-8c-0.8-1.2-2.1-2.1-3.5-2.4c-1.6-0.4-3.2,0-4.6,1
		c-95,63.3-196.3,119.7-300.7,167.6c-0.2,0-0.4,0.2-0.5,0.3c-152.7,70-314,122.4-479.2,155.8c-3.2,0.7-5.4,3.6-4.9,6.6v0.1
		C4633.5,2568.1,4636.6,2569.9,4639.7,2569.4z"/>
	<path class="st0" d="M3713.8,2611.2c114.5,25.6,232.1,42.1,349.8,49c0.2,0,0.4,0,0.6,0c1.5,0,2.9-0.6,4-1.5c1.1-1,1.7-2.3,1.8-3.7
		c0.1-3.1-2.4-5.6-5.7-5.9c-116.7-6.8-233.8-23.2-348.1-48.7c-1.5-0.4-3.2-0.1-4.6,0.7c-1.3,0.8-2.1,2.1-2.4,3.5
		C3708.6,2607.4,3710.6,2610.4,3713.8,2611.2z"/>
	<path class="st0" d="M3485,2530.6c-109.5-37.5-217.2-83.9-320.2-138c-1.4-0.8-3.1-1-4.7-0.6c-1.4,0.4-2.6,1.4-3.2,2.8
		c-1.4,2.8-0.2,6.1,2.7,7.7c103.1,54.2,211.3,100.8,321.7,138.6c1,0.3,2,0.4,3,0.2c2-0.3,3.8-1.6,4.5-3.7c0.5-1.4,0.3-2.9-0.3-4.2
		C3487.8,2532.3,3486.6,2531.2,3485,2530.6z"/>
	<path class="st0" d="M3113.8,2318.4c145.7,83.2,300.7,149.8,460.4,198.2c0.3,0.1,0.5,0.2,0.9,0.3c106.5,32.1,216.2,56.5,326.1,72.1
		c0.6,0.1,1.3,0.1,1.9,0c0.9-0.1,1.8-0.5,2.6-1c1.2-0.9,2-2.1,2.1-3.6c0.4-3-1.9-5.9-5.1-6.4c-113.1-16.2-225.8-41.4-335.1-75
		c-0.3-0.1-0.5-0.2-0.9-0.3c-155.3-47.8-305.8-113-447.4-194.1c-1.4-0.8-3.1-1-4.7-0.6c-1.4,0.4-2.6,1.3-3.2,2.6
		c-0.7,1.2-1,2.7-0.5,4.1C3111.4,2316.3,3112.4,2317.6,3113.8,2318.4z"/>
	<path class="st0" d="M2911.1,2187.2c1.4,1,3,1.3,4.5,1.1c1.4-0.2,2.7-0.9,3.6-2.2c1.8-2.5,1.1-6.1-1.5-8
		c-91.6-66.6-178.9-140.9-259.3-220.7c-1.1-1.2-2.6-1.9-4.3-1.8c-1.5-0.1-2.8,0.6-3.9,1.5l0,0c-1.1,1-1.5,2.4-1.6,3.9
		c0,1.6,0.7,3.1,1.8,4.3C2731.4,2045.7,2819.1,2120.4,2911.1,2187.2z"/>
	<path class="st0" d="M3021.8,2310.6c-135.8-84.5-262.7-183.4-377.3-294.2c-7.5-7.3-15.2-14.8-22.6-22.1l-0.2-0.2
		c-114.5-113.7-217-240.1-304.4-375.6c-1.9-2.8-5.4-3.7-8-2c-1.2,0.8-2,2-2.4,3.4c-0.4,1.6,0,3.3,1,4.7
		c87.7,135.9,190.6,262.9,305.9,377.5c8.2,8.3,15.7,15.6,22.8,22.3c115.3,111.4,242.9,210.9,379.3,295.7c1.2,0.8,2.7,1.2,4.2,0.9
		c0.1,0,0.2,0,0.2,0c1.5-0.3,2.8-1.2,3.7-2.4l0.1-0.1c0.8-1.2,1-2.8,0.6-4.3C3024.2,2312.7,3023.2,2311.3,3021.8,2310.6z"/>
	<path class="st0" d="M2119.4,1235.3c-1.2-3.1-4.4-4.7-7.4-3.8h-0.1c-2.8,1.2-4.2,4.6-3,7.8c44.7,111.9,98.8,220.9,160.8,323.9
		c1.3,2.2,3.8,3.4,6.2,3c0.6-0.1,1.2-0.3,1.7-0.6c2.7-1.6,3.5-5.1,1.7-8.2C2217.7,1455.1,2163.9,1346.6,2119.4,1235.3z"/>
	<path class="st0" d="M2357.3,1605.4c0.1,0.3,0.4,0.5,0.5,0.7c60.7,93,129.2,182.3,203.7,265.5c1.4,1.6,3.4,2.3,5.4,2
		c1-0.2,1.9-0.6,2.7-1.3c1.1-0.9,1.8-2.2,1.8-3.7c0.1-1.6-0.4-3.3-1.5-4.5c-76.3-85.1-146.6-177.3-208.9-273.8l-0.5-0.7l-0.2-0.1
		c-91-141.1-165.7-293-222.4-451.6c-1.2-3.1-4.4-4.8-7.3-3.8c-1.3,0.5-2.5,1.5-3.1,2.8c-0.7,1.4-0.7,3.3-0.1,4.8
		C2185.8,1304.9,2263,1460.8,2357.3,1605.4z"/>
	<path class="st0" d="M2071.5-61c-2.9-0.6-5.9,1.5-6.6,4.6l0,0c-26.3,114.9-43.5,232.5-51.1,349.5c-0.2,3.3,2.1,6.1,5.2,6.3
		c0.4,0,0.8,0,1.2-0.1c1-0.2,1.9-0.6,2.7-1.4c1.2-1.1,1.9-2.6,1.9-4.3c7.5-116.4,24.7-233.4,50.8-347.9
		C2076.3-57.1,2074.6-60.2,2071.5-61z"/>
	<path class="st0" d="M1966.6,466.1c1.1-1.2,1.9-2.8,1.8-4.5c-1.7-166.9,15-333.6,49.7-495.4c2.5-11.4,4.8-21.8,7.1-31.8
		c36-157.2,89.5-311.2,158.7-457.8c0.8-1.5,0.8-3.3,0.2-4.8c-0.5-1.3-1.5-2.4-2.7-3c-1.3-0.6-2.7-0.7-4.2-0.2
		c-1.5,0.6-2.9,1.7-3.5,3.2c-69.6,147.1-123.3,301.8-159.6,460.2c-2.4,10.5-4.8,21.4-7.1,31.8c-35,163-51.7,330.5-49.8,497.8
		c0,1.8,0.8,3.5,2,4.6c1.1,0.9,2.4,1.4,3.7,1.4c0.3,0,0.6,0,0.8,0C1964.7,467.6,1965.7,467,1966.6,466.1z"/>
	<path class="st0" d="M2210.7-583.5c0.2,0,0.5-0.1,0.7-0.1c1.5-0.5,2.9-1.6,3.6-3.1l0,0c52.7-102.9,114.1-203,182.3-297.1
		c2-2.6,1.6-6.2-0.9-8.2l-0.1-0.1c-2.5-1.8-6.1-1.1-8.1,1.5c-68.7,94.8-130.4,195.3-183.2,298.7c-1.4,2.9-0.4,6.2,2.2,7.8
		C2208.4-583.5,2209.6-583.3,2210.7-583.5z"/>
	<path class="st0" d="M2482.5-926c-1.6,0.2-3.2,1-4.3,2.3c-103.1,132.3-191.4,276-262.1,427.4c-0.1,0.1-0.1,0.3-0.2,0.4l0,0
		C2168.8-395,2129-289.7,2097.7-183c-0.9,3.1,0.7,6.3,3.6,7.3l0.2,0.1c0.7,0.2,1.6,0.3,2.4,0.1c2.2-0.4,4-2,4.7-4.3
		c32.2-109.5,73.3-217.6,122.1-321.1c0.1-0.1,0.1-0.3,0.2-0.4l0,0c69.7-147.2,155.9-286.9,256.1-415.5c1.9-2.4,1.6-6-0.7-8
		C2485.3-925.7,2484-926.2,2482.5-926z"/>
	<path class="st0" d="M2898.4-1333.2c-1.6-0.3-3.2,0.2-4.6,1.3c-90.5,68.1-176.9,144.2-256.8,226.3c-2.3,2.3-2.3,5.9-0.2,8.1
		c1,1.1,2.4,1.5,3.9,1.6c0.3,0,0.6,0,0.9,0c1.3-0.2,2.5-0.8,3.4-1.8c79-81.3,165-157.1,255.5-225.2c1.4-1,2.2-2.5,2.4-4
		c0.2-1.4-0.2-2.8-1-3.9C2901.1-1332.2,2899.9-1333,2898.4-1333.2z"/>
	<path class="st0" d="M2490.8-1012.7c1.3,1,2.9,1.4,4.4,1.1c1.4-0.2,2.7-0.9,3.7-2.1l0,0c103.1-122.4,219.2-233.9,345.2-331.5
		c7.8-6.1,16.1-12.5,25.3-19.3c129-97.1,268.7-180.4,415.2-247.6c3-1.3,4.4-4.7,3.2-7.5v-0.1c-1.4-2.8-4.8-4-7.8-2.6
		c-147.5,67.7-287.9,151.4-417.3,248.9c-5.7,4.3-11.5,8.7-16.9,12.9c-2.8,2.2-5.7,4.4-8.5,6.5c-126.9,98.4-243.5,210.4-346.9,333.2
		C2488.1-1018.4,2488.3-1014.7,2490.8-1012.7L2490.8-1012.7z"/>
	<path class="st0" d="M3345.7-1641.1c1,0.4,2.1,0.5,3.2,0.3c0.5-0.1,1.1-0.3,1.5-0.5c110.3-46.4,225.3-84.1,341.8-112.2
		c3.2-0.8,5.2-3.9,4.6-6.8c-0.3-1.4-1.2-2.5-2.5-3.3c-1.5-0.9-3.2-1.1-4.9-0.7c-116.9,28.2-232.5,66.2-343.5,112.9
		c-3,1.4-4.5,4.7-3.3,7.5C3343.3-1642.6,3344.3-1641.5,3345.7-1641.1z"/>
	<path class="st0" d="M5512.5-1349.7c-2.6-1.9-6.2-1.4-8,1.1s-1.1,6.1,1.5,8c91.6,66.6,178.9,140.9,259.3,220.7
		c1.1,1.2,2.6,1.9,4.3,1.8c0.3,0.1,0.7,0,1-0.1c1.1-0.2,2.1-0.7,3-1.5c1.1-1,1.5-2.4,1.6-3.9c0-1.6-0.7-3.1-1.8-4.3
		C5692.2-1208.3,5604.5-1282.9,5512.5-1349.7z"/>
	<path class="st0" d="M5401.8-1473.1c135.8,84.5,262.7,183.4,377.3,294.2c7.6,7.4,15.3,14.9,22.7,22.2l0.1,0.1
		c114.5,113.7,217,240.1,304.4,375.6c1.4,2.1,3.8,3.1,5.9,2.8c0.7-0.1,1.5-0.3,2.1-0.8c1.2-0.8,2-2,2.4-3.4c0.4-1.6,0-3.3-1-4.7
		C6028-923,5925.1-1050,5809.8-1164.6c-8.2-8.3-15.7-15.6-22.8-22.3c-115.3-111.4-242.9-210.9-379.3-295.7c-1.4-0.9-2.9-1.2-4.5-0.9
		c-1.5,0.3-2.8,1.2-3.7,2.4l-0.1,0.1c-0.8,1.2-1,2.8-0.6,4.3C5399.5-1475.2,5400.5-1474,5401.8-1473.1z"/>
	<path class="st0" d="M6304.3-397.9c1.1,2.8,3.8,4.5,6.4,4c0.3,0,0.6-0.1,1-0.3h0.1c2.8-1.2,4.2-4.6,3-7.8
		c-44.7-111.9-98.8-220.9-160.8-323.9c-1.7-2.9-5.2-3.9-7.9-2.4c-2.7,1.6-3.5,5.1-1.7,8.2C6205.9-617.6,6259.8-509.2,6304.3-397.9z"
		/>
	<path class="st0" d="M6383.6,116.2c0.3,3,2.6,5.2,5.2,5.4c0.3,0.1,0.6,0,1,0h0.1c3.1-0.5,5.2-3.5,4.8-6.8
		c-15.9-119.5-41.6-238.4-76.4-353.4c-0.9-3.2-4.1-5.1-7.1-4.2c-3,0.8-4.6,4.1-3.7,7.5C6342.1-120.9,6367.7-2.5,6383.6,116.2z"/>
	<path class="st0" d="M6455.4,260.4c0.1,3,2.2,5.3,4.9,5.8c0.3,0.1,0.6,0.1,0.9,0.1h0.1c3.1-0.2,5.4-3.1,5.2-6.4
		c-7.4-120.3-24.7-240.8-51.2-357.9c-0.7-3.2-3.7-5.4-6.8-4.8c-3,0.6-4.9,3.7-4.2,7.2C6430.7,20.9,6447.9,140.7,6455.4,260.4z"/>
	<path class="st0" d="M2054.8,823.9c0.6,2.9-0.9,5.7-3.4,6.7c-0.3,0.1-0.6,0.2-1,0.3h-0.1c-3.1,0.5-6-1.8-6.6-5
		c-21.1-118.6-32.7-239.8-34.5-359.9c0-3.3,2.4-6.1,5.5-6.2s5.7,2.5,5.8,6.1C2022.2,585.3,2033.8,705.8,2054.8,823.9z"/>
	<path class="st0" d="M2031,983.8c0.8,2.9-0.5,5.8-2.9,7c-0.3,0.1-0.6,0.3-0.9,0.3h-0.1c-3,0.7-6.1-1.3-6.9-4.5
		c-29.1-116.9-49-237-58.9-356.8c-0.3-3.3,1.9-6.2,5-6.6c3.1-0.3,5.8,2.1,6.2,5.6C1982.3,748,2002,867.5,2031,983.8z"/>
	<path class="st0" d="M6066.3-767.9c-0.1-0.3-0.4-0.5-0.5-0.7c-60.7-93-129.2-182.3-203.7-265.5c-2.1-2.5-5.7-2.7-8.1-0.7
		c-1.1,0.9-1.8,2.2-1.8,3.7c-0.1,1.6,0.4,3.3,1.5,4.5c76.3,85.1,146.6,177.3,208.9,273.8l0.5,0.7l0.2,0.1
		c91,141.1,165.7,293,222.4,451.6c1.1,2.9,3.8,4.5,6.4,4c0.3,0,0.6-0.1,0.9-0.2c1.3-0.5,2.5-1.5,3.1-2.8c0.7-1.4,0.7-3.3,0.1-4.8
		C6237.9-467.4,6160.6-623.4,6066.3-767.9z"/>
	<g>
		<g>
			<path id="XMLID_28_" class="st1" d="M4317,2593.8c-2.2,24.7-16.8,43.7-32.6,42.3s-26.9-22.5-24.7-47.3
				c2.2-24.7,16.8-43.7,32.6-42.3S4319.2,2569.2,4317,2593.8z"/>
			<path class="st2" d="M4319.8,2594.1c2.3-26.2-9.8-48.7-27.2-50.2c-17.3-1.5-33.2,18.6-35.5,44.7s9.8,48.7,27.2,50.2
				C4301.5,2640.3,4317.5,2620.2,4319.8,2594.1z M4314.3,2593.6c-2,23.2-15.4,41-29.7,39.7c-14.3-1.3-24.2-21.1-22.1-44.3
				c2-23.2,15.4-41,29.5-39.7C4306.4,2550.6,4316.4,2570.4,4314.3,2593.6z"/>
		</g>
		<g>
			<circle id="XMLID_27_" class="st1" cx="4195.3" cy="2669.6" r="13.2"/>
		</g>
		<g>
			<path id="XMLID_26_" class="st1" d="M4027.9,2617.8c-0.5,5.3-5.2,9.5-10.7,9c-5.3-0.5-9.5-5.2-9-10.7c0.5-5.3,5.2-9.5,10.7-9
				C4024.5,2607.6,4028.4,2612.3,4027.9,2617.8z"/>
		</g>
		<g>
			<path class="st3" d="M4030.8,2618c-0.6,7-6.8,12-13.6,11.4c-7-0.6-12-6.8-11.4-13.6c0.6-7,6.8-12,13.6-11.4
				C4026.2,2604.9,4031.4,2611,4030.8,2618z M4025.8,2617.6c0.4-4.2-2.8-8-7-8.3c-4.2-0.4-8,2.7-8.3,7c-0.4,4.2,2.7,8,7,8.3
				C4021.8,2624.8,4025.4,2621.8,4025.8,2617.6z"/>
		</g>
		<g>
			<path class="st3" d="M4211.5,2671c-0.8,8.8-8.6,15.5-17.6,14.7c-8.8-0.8-15.5-8.6-14.7-17.6c0.8-8.8,8.6-15.5,17.6-14.7
				C4205.7,2654.4,4212.3,2662.2,4211.5,2671z M4206,2670.5c0.5-5.8-3.9-11.1-9.7-11.6c-5.8-0.5-11.1,3.9-11.6,9.7
				s3.9,11.1,9.7,11.6C4200.4,2680.8,4205.5,2676.5,4206,2670.5z"/>
		</g>
		<g>
			<path id="XMLID_25_" class="st4" d="M4028.6,2558.7c0,0-23.9-21.8-36.6-15.8c-12.6,6.1,18.3,36,18.3,36L4028.6,2558.7z"/>
		</g>
		<g>
			<path id="XMLID_24_" class="st5" d="M4322.8,2742.3c10.5,11,10.9,23.6,0.5,22.7c0,0-42.2-0.9-45.2-4s-13-14.2-21.6-25.6
				l-182.6-222.9c-9.8-12.8-28.9-30.1-18.4-29.2l38.5,3.4c10.3,0.9,23.6,8.6,34.8,22L4322.8,2742.3z"/>
		</g>
		<g>
			<path id="XMLID_23_" class="st6" d="M4322.8,2742.3c10.5,11,10.9,23.6,0.5,22.7c0,0-42.2-0.9-45.2-4s-21.6-25.6-21.6-25.6
				c11.9-9.5-138.9-240.1-127.7-226.7L4322.8,2742.3z"/>
		</g>
		<g>
			<path id="XMLID_22_" class="st7" d="M4076.5,2503.2c-0.2,0-0.3,0-0.5,0c-1.5-0.3-2.4-1.9-2.1-3.4l16.2-65.7
				c0.3-1.5,1.9-2.4,3.4-2.1c1.5,0.3,2.4,1.9,2.1,3.4l-16.2,65.7C4079,2502.4,4077.8,2503.3,4076.5,2503.2z"/>
		</g>
		<g>
			<path id="XMLID_21_" class="st7" d="M4106.9,2505.8c-0.2,0-0.3,0-0.5,0c-1.5-0.3-2.4-1.9-2.1-3.4l16.2-65.7
				c0.3-1.5,1.9-2.4,3.4-2.1c1.5,0.3,2.4,1.9,2.1,3.4l-16.2,65.7C4109.4,2505,4108.3,2506,4106.9,2505.8z"/>
		</g>
		<g>
			<path id="XMLID_20_" class="st7" d="M4282.2,2750.8c-0.2,0-0.3,0-0.5,0c-1.5-0.3-2.4-1.9-2.1-3.4l16.2-65.7
				c0.3-1.5,1.9-2.4,3.4-2.1c1.5,0.3,2.4,1.9,2.1,3.4l-16.2,65.7C4284.8,2750,4283.6,2750.9,4282.2,2750.8z"/>
		</g>
		<g>
			<path id="XMLID_19_" class="st7" d="M4314.9,2753.7c-0.2,0-0.3,0-0.5,0c-1.5-0.3-2.4-1.9-2.1-3.4l16.2-65.7
				c0.3-1.5,1.9-2.4,3.4-2.1c1.5,0.3,2.4,1.9,2.1,3.4l-16.2,65.7C4317.5,2752.9,4316.2,2753.8,4314.9,2753.7z"/>
		</g>
		<g>
			<path id="XMLID_18_" class="st5" d="M4181.4,2572.2c0,0-38.6-4.4-65.7,10.3l-58.1-3.9c0,0,22-49.3-11.5-50.5
				c-33.5-1.3-73.5,66.8-7.9,90.2c65.6,23.4,227.6,11.3,227.6,11.3s39-29.1,14.5-52.1C4255.9,2554,4181.4,2572.2,4181.4,2572.2z"/>
		</g>
		<g>
			<path id="XMLID_17_" class="st6" d="M4181.4,2572.2c0,0,21.3,53.8-143.3,46c65.6,23.4,227.6,11.3,227.6,11.3s39-29.1,14.5-52.1
				C4255.9,2554,4181.4,2572.2,4181.4,2572.2z"/>
		</g>
		<g>
			<path id="XMLID_16_" class="st4" d="M4018.1,2583.8c0,0,17-5.7,36.7,0.5c19.9,6.1,19,33.6,11.5,32.9
				C4058.8,2616.6,4018.3,2593.3,4018.1,2583.8z"/>
		</g>
		<path id="XMLID_15_" class="st5" d="M4117.6,2417.1c12,1.1,27.2,9.9,40.2,25.5l223.5,269c12.2,12.7,12.6,27.1,0.6,26.1
			c0,0-48.8-0.9-52-4.6c-3.2-3.6-15-16.4-25-29.4l-210.5-257c-11.1-14.9-33.2-34.7-21.2-33.6"/>
	</g>
	<path class="st0" d="M6417.8,67.8c-6.7-45.4-15-90.8-24.9-135.8c-12.9-58.7-28.4-116.7-46.8-174.3
		c-31.5-98.7-69.9-195.3-114.8-288.7c-15.5-32.1-31.7-64-48.7-95.4s-36.7-61.5-53.2-93c-8.9-14.9-18.9-30.9-30.4-48.8
		c-76-118.7-164.2-231-262-334c-58.2-61.2-120.1-119.4-184-172.8c-42.2-35.4-85.8-69.4-129.9-101.2c-60.4-43.6-123.4-84.4-188.2-122
		c-1.3,3.6-2.6,7.2-4,10.8c64,37.2,126.3,77.6,185.9,120.7c43.6,31.5,87.2,65.3,129.3,100.7c63.8,53.5,125.3,111.3,182.9,171.9
		c97.3,102.2,185,214.1,260.7,332.3c9.8,15.2,19.7,31.1,30.2,48.5c53.2,88,100.4,179.5,140.8,274c40.9,95.2,75.1,193.4,102.4,293.4
		c28.3,104.2,42.7,211.8,55.7,319.2c6.4,53,10.3,106.1,11.8,159.4c1.5,53.2,2.9,107.5-1.5,160.5c-1.5,36.1-3.9,72.3-7.1,108.4
		c-1.6,18-3.4,35.9-5.6,53.9c-1.1,9-2.1,17.9-3.3,26.9c-0.9,7.3-4.5,18.1-3.4,25.3c-11.8,84.7-28.7,169.6-50.2,252
		c-35.5,136.2-84.2,269.7-144.8,396.8c-8,16.8-16.4,33.8-24.9,50.5c-54.1,106.3-117.2,209.1-187.5,305.5
		c-60.7,83.4-127.9,163.1-199.4,237.1c-36.6,38-76.4,76.2-118,113.6c-62,55.4-127.9,108.1-196.3,156.6
		c-115.1,81.6-238.3,152.4-366.1,210.5c-18.9,8.7-37.9,16.8-52.3,23c-131.8,55.8-269.8,99-410,128.5
		c-100.2,20.5-201.9,34.1-303.6,40.7l-6.7,0.5c-2.9,0.2-5.1,2.6-5.1,5.5c0,3.2,2.7,5.8,5.9,5.6l5.8-0.4c11.4-0.7,22.8-1.5,34.1-2.5
		c0,0,68.5-3.9,171.9-19.9c33.5-5.2,66.8-11.7,99.8-18.6c20.9-4.3,39.9-8.4,58.1-12.6c0.8-0.1,1.5-0.5,2.2-0.9
		c120.1-28.6,238.4-67.6,351.8-115.7c16.4-6.9,33.6-14.5,52.7-23.1c128.6-58.4,252.4-129.6,368-211.6
		c68.4-48.5,134.8-101.4,197.2-157.3c40.7-36.3,80.6-74.8,118.7-114.2c71.8-74.3,139.1-154.4,200.4-238.2
		c71.1-97.5,134.5-200.8,188.4-307.1c10-19.8,17.9-35.9,24.9-50.7c61-128,110-262.2,145.5-398.8c21.7-83.4,38.6-168.6,50.4-253.3
		c14.5-104.8,21.7-210.6,21.4-316.3C6441.6,284.1,6434,175.4,6417.8,67.8z"/>
	<path class="st0" d="M4693.3-1771.5c-114.5-25.6-232.1-42.1-349.8-49c-0.2,0-0.4,0-0.6,0c-1.5,0-2.9,0.6-4,1.5
		c-1.1,1-1.7,2.3-1.8,3.7c-0.1,3.1,2.4,5.6,5.7,5.9c116.7,6.8,233.8,23.2,348.1,48.7c1.5,0.4,3.2,0.1,4.6-0.7
		c1.3-0.8,2.1-2.1,2.4-3.5C4698.5-1767.7,4696.5-1770.7,4693.3-1771.5z"/>
	<path class="st0" d="M4922.1-1690.9c109.5,37.5,217.2,83.9,320.2,138c1.4,0.8,3.1,1,4.7,0.6c1.4-0.4,2.6-1.4,3.2-2.8
		c1.4-2.8,0.2-6.1-2.7-7.7c-103.1-54.2-211.3-100.8-321.7-138.6c-1-0.3-2-0.4-3-0.2c-2,0.3-3.8,1.6-4.5,3.7
		c-0.5,1.4-0.3,2.9,0.3,4.2C4919.3-1692.6,4920.5-1691.5,4922.1-1690.9z"/>
	<g>
		<g>
			<path id="XMLID_42_" class="st1" d="M4090.1-1754.1c2.2-24.7,16.8-43.7,32.6-42.3s26.9,22.5,24.7,47.3
				c-2.2,24.7-16.8,43.7-32.6,42.3S4087.9-1729.5,4090.1-1754.1z"/>
			<path class="st2" d="M4087.3-1754.4c-2.3,26.2,9.8,48.7,27.2,50.2c17.3,1.5,33.2-18.6,35.5-44.7s-9.8-48.7-27.2-50.2
				C4105.6-1800.6,4089.6-1780.5,4087.3-1754.4z M4092.8-1753.9c2-23.2,15.4-41,29.7-39.7c14.3,1.3,24.2,21.1,22.1,44.3
				c-2,23.2-15.4,41-29.5,39.7C4100.7-1710.9,4090.7-1730.7,4092.8-1753.9z"/>
		</g>
		<g>
			<circle id="XMLID_41_" class="st1" cx="4211.8" cy="-1829.9" r="13.2"/>
		</g>
		<g>
			<path id="XMLID_40_" class="st1" d="M4379.2-1778.1c0.5-5.3,5.2-9.5,10.7-9c5.3,0.5,9.5,5.2,9,10.7c-0.5,5.3-5.2,9.5-10.7,9
				C4382.6-1767.9,4378.7-1772.6,4379.2-1778.1z"/>
		</g>
		<g>
			<path class="st3" d="M4376.3-1778.3c0.6-7,6.8-12,13.6-11.4c7,0.6,12,6.8,11.4,13.6c-0.6,7-6.8,12-13.6,11.4
				C4380.9-1765.2,4375.7-1771.3,4376.3-1778.3z M4381.3-1777.9c-0.4,4.2,2.8,8,7,8.3c4.2,0.4,8-2.7,8.3-7c0.4-4.2-2.7-8-7-8.3
				C4385.3-1785.1,4381.7-1782.1,4381.3-1777.9z"/>
		</g>
		<g>
			<path class="st3" d="M4195.6-1831.3c0.8-8.8,8.6-15.5,17.6-14.7c8.8,0.8,15.5,8.6,14.7,17.6c-0.8,8.8-8.6,15.5-17.6,14.7
				C4201.4-1814.7,4194.8-1822.5,4195.6-1831.3z M4201.1-1830.8c-0.5,5.8,3.9,11.1,9.7,11.6c5.8,0.5,11.1-3.9,11.6-9.7
				s-3.9-11.1-9.7-11.6C4206.7-1841.1,4201.6-1836.8,4201.1-1830.8z"/>
		</g>
		<g>
			<path id="XMLID_39_" class="st4" d="M4378.5-1719c0,0,23.9,21.8,36.6,15.8c12.6-6.1-18.3-36-18.3-36L4378.5-1719z"/>
		</g>
		<g>
			<path id="XMLID_38_" class="st5" d="M4084.3-1902.6c-10.5-11-10.9-23.6-0.5-22.7c0,0,42.2,0.9,45.2,4s13,14.2,21.6,25.6
				l182.6,222.9c9.8,12.8,28.9,30.1,18.4,29.2l-38.5-3.4c-10.3-0.9-23.6-8.6-34.8-22L4084.3-1902.6z"/>
		</g>
		<g>
			<path id="XMLID_37_" class="st6" d="M4084.3-1902.6c-10.5-11-10.9-23.6-0.5-22.7c0,0,42.2,0.9,45.2,4s21.6,25.6,21.6,25.6
				c-11.9,9.5,138.9,240.1,127.7,226.7L4084.3-1902.6z"/>
		</g>
		<g>
			<path id="XMLID_36_" class="st7" d="M4330.6-1663.5c0.2,0,0.3,0,0.5,0c1.5,0.3,2.4,1.9,2.1,3.4l-16.2,65.7
				c-0.3,1.5-1.9,2.4-3.4,2.1c-1.5-0.3-2.4-1.9-2.1-3.4l16.2-65.7C4328.1-1662.7,4329.3-1663.6,4330.6-1663.5z"/>
		</g>
		<g>
			<path id="XMLID_35_" class="st7" d="M4300.2-1666.1c0.2,0,0.3,0,0.5,0c1.5,0.3,2.4,1.9,2.1,3.4l-16.2,65.7
				c-0.3,1.5-1.9,2.4-3.4,2.1c-1.5-0.3-2.4-1.9-2.1-3.4l16.2-65.7C4297.7-1665.3,4298.8-1666.3,4300.2-1666.1z"/>
		</g>
		<g>
			<path id="XMLID_34_" class="st7" d="M4124.9-1911.1c0.2,0,0.3,0,0.5,0c1.5,0.3,2.4,1.9,2.1,3.4l-16.2,65.7
				c-0.3,1.5-1.9,2.4-3.4,2.1c-1.5-0.3-2.4-1.9-2.1-3.4l16.2-65.7C4122.3-1910.3,4123.5-1911.2,4124.9-1911.1z"/>
		</g>
		<g>
			<path id="XMLID_33_" class="st7" d="M4092.2-1914c0.2,0,0.3,0,0.5,0c1.5,0.3,2.4,1.9,2.1,3.4l-16.2,65.7
				c-0.3,1.5-1.9,2.4-3.4,2.1c-1.5-0.3-2.4-1.9-2.1-3.4l16.2-65.7C4089.6-1913.2,4090.9-1914.1,4092.2-1914z"/>
		</g>
		<g>
			<path id="XMLID_32_" class="st5" d="M4225.7-1732.5c0,0,38.6,4.4,65.7-10.3l58.1,3.9c0,0-22,49.3,11.5,50.5
				c33.5,1.3,73.5-66.8,7.9-90.2s-227.6-11.3-227.6-11.3s-39,29.1-14.5,52.1C4151.2-1714.3,4225.7-1732.5,4225.7-1732.5z"/>
		</g>
		<g>
			<path id="XMLID_31_" class="st6" d="M4225.7-1732.5c0,0-21.3-53.8,143.3-46c-65.6-23.4-227.6-11.3-227.6-11.3s-39,29.1-14.5,52.1
				C4151.2-1714.3,4225.7-1732.5,4225.7-1732.5z"/>
		</g>
		<g>
			<path id="XMLID_30_" class="st4" d="M4389-1744.1c0,0-17,5.7-36.7-0.5c-19.9-6.1-19-33.6-11.5-32.9
				C4348.3-1776.9,4388.8-1753.6,4389-1744.1z"/>
		</g>
		<path id="XMLID_29_" class="st5" d="M4289.5-1577.4c-12-1.1-27.2-9.9-40.2-25.5l-223.5-269c-12.2-12.7-12.6-27.1-0.6-26.1
			c0,0,48.8,0.9,52,4.6c3.2,3.6,15,16.4,25,29.4l210.5,257c11.1,14.9,33.2,34.7,21.2,33.6"/>
	</g>
	<g>
		<path class="st0" d="M3977.8,2614.9c-4.6-0.4-10.5-0.9-11.4-1c-11.6-1.1-23.3-2.7-34.8-4.2c-13-1.7-26-3.4-38.9-5.3
			c-13-1.9-25.9-3.9-38.8-6s-25.8-4.4-38.7-6.7c-12.9-2.3-25.8-4.8-38.6-7.4c-12.9-2.6-25.7-5.3-38.5-8.1
			c-12.8-2.8-25.6-5.7-38.3-8.7c-12.8-3-25.5-6.2-38.2-9.4c-12.7-3.3-25.4-6.6-38-10.1s-25.2-7.1-37.8-10.8
			c-10.9-3.2-21.7-6.5-32.5-9.8c-17.8-5.5-35.8-11.4-53.5-17.4c-113.2-38.3-223.9-86.1-329.2-141.9
			c-91.2-48.2-179.7-103.3-263-163.5c-43.6-31.5-87.2-65.3-129.3-100.7c-63.8-53.5-125.3-111.3-182.9-171.9
			c-97.3-102.2-185-214.1-260.7-332.3c-9.8-15.2-19.7-31.1-30.2-48.5c-79.9-132.1-146.1-272.4-196.9-418.2
			c-52.6-150.9-87-306.2-102.9-465.3c-15.6-157.6-15.6-316.6,1.7-474.1c2.3-21.2,5-42.5,7.9-63.7c11.8-84.7,28.7-169.6,50.2-252
			c35.5-136.2,84.2-269.7,144.8-396.8c8-16.8,16.4-33.8,24.9-50.5c54.1-106.3,117.2-209.1,187.5-305.5
			c60.7-83.4,127.9-163.1,199.4-237.1c36.6-38,76.4-76.2,118-113.6c62-55.4,128-108.1,196.3-156.6
			c115.1-81.6,238.3-152.4,366.1-210.5c18.9-8.7,38-16.8,52.3-23c131.8-55.8,269.8-99,410-128.5c38.3-7.8,76.8-14.6,115.5-20.5
			c3.6-0.5,5.9-4.1,5-7.6c0,0,0-0.1,0-0.1c-0.8-3-3.8-5-6.8-4.5c-39,6.1-77.8,13.2-116.2,21.3c-20.9,4.3-39.3,8.7-57.4,12.8
			c-2.9,0.7,0,0-2.9,0.7c-120.1,28.6-238.4,67.6-351.8,115.7c-16.4,6.9-33.6,14.5-52.7,23.1c-128.7,58.4-252.4,129.6-368,211.6
			c-68.4,48.5-134.8,101.5-197.2,157.3c-40.7,36.3-80.6,74.8-118.7,114.2c-71.8,74.2-139.1,154.4-200.4,238.2
			c-71.1,97.5-134.5,200.8-188.4,307.1c-10,19.8-17.9,35.9-24.9,50.7c-61,128-110,262.2-145.5,398.8
			c-21.7,83.4-38.6,168.5-50.4,253.3c-21.8,157.1-26.6,316-15.4,474.2c11.4,160.8,39.5,317.4,88.1,471.2
			c46.9,148.3,109.2,291.6,185.7,427c10.7,18.9,21.7,37.7,33,56.3c8.9,14.9,18.9,30.8,30.4,48.8c76,118.7,164.2,231,262,334
			c58.2,61.2,120.1,119.4,184,172.8c42.2,35.4,85.8,69.4,129.9,101.2c83.9,60.6,172.9,115.9,264.5,164.3
			c106.5,56.4,217.8,104.3,330.8,142.6c21,7.1,38.1,12.6,53.8,17.4c135.4,42.1,275.1,71.4,415.4,87.1c3.7,0.4,7.3,0.8,11,1.2
			l0.8,0.1c3.2,0.3,5.9-2.2,6-5.3v-0.1C3983,2617.7,3980.8,2615.1,3977.8,2614.9z"/>
		<path class="st0" d="M4056.3-1767.2l-5.8,0.4c-11.4,0.8-22.8,1.6-34.1,2.7c-18.7,1.8-37.3,3.1-56,5.2
			c-47.6,5.2-95.2,11.8-142.3,20.2c-21.3,3.8-42.6,8.1-63.8,12.7c-11,2.4-22,4.9-32.9,7.5c-51.5,12.1-103.2,26-154,41.7
			c-9.6,3-19.2,6-28.8,9.1c-49.6,16.1-98.7,34-147.1,53.6c-16.9,6.8-33.7,13.9-50.5,21.2c-8.4,3.6-16.7,7.3-25,11.1
			c-4,1.8-8.1,3.6-12.1,5.5c-3,1.4-8.8,5.6-12.1,5.6c-0.2,0-0.4,0.2-0.5,0.3c-101.3,47.1-199.6,102.2-292.1,163.8
			c-2.6,1.8-3.5,5.3-1.7,8c0.8,1.2,2.1,2.1,3.5,2.4c0.7,0.1,1.4,0.2,2.1,0.1c0.9-0.1,1.7-0.5,2.5-1c95-63.3,196.3-119.7,300.7-167.6
			c0.2,0,0.4-0.2,0.5-0.3c3.6-3.6,12.4-5.6,17.1-7.7c5.9-2.7,11.9-5.3,17.8-7.9c11.9-5.2,23.9-10.3,35.9-15.3
			c24-10,48.2-19.6,72.6-28.7c48.8-18.3,98.2-34.8,148.2-49.6c51.6-15.3,104-29.4,156.8-40.1c25.3-5.2,50.7-10.3,76.1-14.7
			c26.2-4.5,52.4-8.5,78.8-12c46.6-6.3,93.3-11.1,140.2-14.4l6.7-0.5c2.9-0.2,5.1-2.6,5.1-5.5
			C4062.2-1764.8,4059.4-1767.4,4056.3-1767.2z"/>
	</g>
	<path class="st0" d="M5242-1538c-106.5-56.4-217.8-104.3-330.8-142.6c-21-7.1-38.1-12.6-53.8-17.4
		c-135.4-42.1-275.1-71.4-415.4-87.1c-3.7-0.4-7.3-0.8-11-1.2l-0.8-0.1c-3.2-0.3-5.9,2.2-6,5.3v0.1c-0.1,3,2.1,5.6,5.1,5.8
		c4.6,0.4,10.5,0.9,11.4,1c11.6,1.1,23.3,2.7,34.8,4.2c13,1.7,26,3.4,38.9,5.3c13,1.9,25.9,3.9,38.8,6c12.9,2.1,25.8,4.4,38.7,6.7
		c12.9,2.3,25.8,4.8,38.6,7.4c12.9,2.6,25.7,5.3,38.5,8.1c12.8,2.8,25.6,5.7,38.3,8.7c12.8,3,25.5,6.2,38.2,9.4
		c12.7,3.3,25.4,6.6,38,10.1s25.2,7.1,37.8,10.8c10.9,3.2,21.7,6.5,32.5,9.8c17.8,5.5,35.8,11.4,53.5,17.4
		c113.2,38.3,223.9,86.1,329.2,141.9c2.7,1.4,5.5,2.9,8.2,4.4l12.5,7.2c2.8,1.6,6.3,0.6,7.8-2.1l0,0c1.6-2.8,0.6-6.4-2.2-7.9
		C5255.9-1530.6,5249-1534.3,5242-1538z"/>
	<path class="st0" d="M4832.9-1676.9c-0.3-0.1-0.5-0.2-0.9-0.3c-106.5-32.1-216.2-56.5-326.1-72.1c-0.6-0.1-1.3-0.1-1.9,0
		c-0.9,0.1-1.8,0.5-2.6,1c-1.2,0.9-2,2.1-2.1,3.6c-0.4,3,1.9,5.9,5.1,6.4c113.1,16.2,225.8,41.4,335.1,75c0.3,0.1,0.5,0.2,0.9,0.3
		c118.4,36.4,234,83,345,139l14.3,7.3c2.7,1.4,6,0.4,7.5-2.3l0,0c1.5-2.8,0.5-6.3-2.4-7.7
		C5085.4-1587.8,4960.6-1638.2,4832.9-1676.9z"/>
</g>
</svg>
