<?xml version="1.0" encoding="utf-8"?>
<!-- Generator: Adobe Illustrator 21.0.0, SVG Export Plug-In . SVG Version: 6.00 Build 0)  -->
<svg version="1.1" id="Layer_1" xmlns="http://www.w3.org/2000/svg" xmlns:xlink="http://www.w3.org/1999/xlink" x="0px" y="0px"
	 viewBox="0 0 158.7 158.7" style="enable-background:new 0 0 158.7 158.7;" xml:space="preserve">
<style type="text/css">
	.st0{fill:#88D5E5;}
	.st1{clip-path:url(#SVGID_2_);}
	.st2{fill:#444444;}
	.st3{fill:#383938;}
	.st4{fill:#67839D;}
	.st5{fill:#D32C39;}
	.st6{fill:#E2E2E2;}
	.st7{fill:#1D4476;}
	.st8{fill:#FAB292;}
	.st9{fill:#D1D2D2;}
	.st10{fill:#609540;}
	.st11{fill:#4F7336;}
	.st12{opacity:0.1;fill:#010101;enable-background:new    ;}
	.st13{fill:#644D4B;}
	.st14{fill:#F5E0D8;}
	.st15{fill:#010101;}
	.st16{fill:#B84C29;}
	.st17{fill:#F47C55;}
	.st18{fill:#F2DFD9;}
	.st19{fill:#EF9C70;}
</style>
<circle id="XMLID_92_" class="st0" cx="79.3" cy="79.3" r="79.3"/>
<g id="XMLID_2_">
	<g>
		<g>
			<defs>
				<circle id="SVGID_1_" cx="79.6" cy="79.3" r="79.3"/>
			</defs>
			<clipPath id="SVGID_2_">
				<use xlink:href="#SVGID_1_"  style="overflow:visible;"/>
			</clipPath>
			<g id="XMLID_11_" class="st1">
				<path id="XMLID_63_" class="st2" d="M19.8,157.3c-3.6,1.8-2.4,8.4,2.8,14.6c5.1,6.3,12.2,9.9,15.8,8.1s2.4-8.4-2.8-14.6
					C30.5,159.1,23.4,155.5,19.8,157.3z M36.4,177.5c-2.4,1.2-7.7-2.5-11.1-6.6s-5.7-9.6-3.3-10.8s10,2.6,13.4,6.7
					C38.7,170.9,38.7,176.3,36.4,177.5z"/>
				<path id="XMLID_62_" class="st2" d="M14.5,182.5l-0.6,16.8c0,0-19.4,36.1,12.9,39.9s38.8-29.3,35.7-39.4
					C59.4,189.7,43,159.5,43,159.5L14.5,182.5z"/>
				<path id="XMLID_60_" class="st3" d="M63.8,200.3C60.7,190.2,44.3,160,44.3,160l-16.9,13.6c7.6,12.5,15.5,32.8,12.6,64.9
					C62,234,66.4,209,63.8,200.3z"/>
				<path id="XMLID_59_" class="st2" d="M50.1,128.4c0,0-8,11.9-22.6,45.2l9.7-3.2l20.7-42H50.1z"/>
				<polygon id="XMLID_58_" class="st4" points="49.9,232.7 59.6,225.9 72.1,235.8 58.3,245 51.9,240 				"/>
				<path id="XMLID_107_" class="st5" d="M90.4,400.3v-3.8v-1.6v-17.7h16.1v14.5c0,0.9,0.7,1.6,1.6,1.6h14.6v6.9L90.4,400.3
					L90.4,400.3z"/>
				<path id="XMLID_105_" class="st6" d="M90.4,403.2v-3h32.3v-6.9h0.8c6.1,0,11,4.9,11,11c0,0.8-0.7,1.5-1.5,1.5H93
					C91.6,405.9,90.4,404.7,90.4,403.2z"/>
				<path id="XMLID_113_" class="st5" d="M68.9,400.3v-3.8v-1.6v-17.7H52.8v14.5c0,0.9-0.7,1.6-1.6,1.6H36.6v6.9L68.9,400.3
					L68.9,400.3z"/>
				<path id="XMLID_104_" class="st6" d="M68.9,403.2v-3H36.6v-6.9h-0.8c-6.1,0-11,4.9-11,11c0,0.8,0.7,1.5,1.5,1.5h40
					C67.7,405.9,68.9,404.7,68.9,403.2z"/>
				<polygon id="XMLID_78_" class="st7" points="90.4,233.6 68.9,233.6 52.8,233.6 52.8,249.7 52.8,378.3 68.9,378.3 68.9,249.7 
					90.4,249.7 90.4,378.3 106.5,378.3 106.5,249.7 106.5,233.6 				"/>
				<rect id="XMLID_56_" x="59.1" y="128.4" class="st6" width="41.1" height="109.3"/>
				<g id="XMLID_53_">
					<path id="XMLID_85_" class="st8" d="M80.3,144.8c9,0,16.4-7.3,16.4-16.4H64C64,137.5,71.3,144.8,80.3,144.8z"/>
				</g>
				<path id="XMLID_51_" class="st9" d="M97.5,134.7c0.2-0.3,0.4-0.6,0.5-0.8h-2.4c-3.1,5.2-8.8,8.8-15.3,8.8s-12.2-3.5-15.3-8.8
					h-2.4c0.1,0.3,0.3,0.6,0.5,0.8h-0.5c0.1,0.2,0.3,0.5,0.4,0.7h-0.4c3.3,6.5,10,10.9,17.7,10.9s14.4-4.4,17.7-10.9h-0.4
					c0.1-0.2,0.3-0.5,0.4-0.7H97.5z"/>
				<path id="XMLID_72_" class="st10" d="M61.8,128.4H50.1h-0.3c-2.9,0-5.2,2.3-5.2,5.2v0.9h0.1v105.7c0,0.6,0.5,1.1,1.1,1.1h18.8
					c0.6,0,1.1-0.5,1.1-1.1V129.5c0-0.6-0.5-1.1-1.1-1.1H61.8z"/>
				<path id="XMLID_44_" class="st10" d="M95.9,128.4h14.9c2.9,0,5.2,2.3,5.2,5.2V240c0,0.6-0.5,1.1-1.1,1.1H96
					c-0.6,0-1.1-0.5-1.1-1.1V129.5C94.8,128.9,95.3,128.4,95.9,128.4z"/>
				<polygon id="XMLID_43_" class="st11" points="65.8,142.4 52.3,128.4 65.8,128.4 				"/>
				<polygon id="XMLID_42_" class="st11" points="94.8,142.4 108.4,128.4 94.8,128.4 				"/>
				<rect id="XMLID_41_" x="72.8" y="108" class="st8" width="15.1" height="27.6"/>
				<rect id="XMLID_40_" x="72.8" y="94.7" class="st12" width="15.1" height="27.6"/>
				<path id="XMLID_39_" class="st8" d="M41,75.5v-3.4l2.7,1.1v-23h68.7v56.3c0,7-5.7,12.6-12.6,12.6H73.2
					c-16.2,0-29.3-13-29.4-29.1c-0.2,0-0.5,0-0.7,0c-3.5,0-6.3-3.3-6.3-7.5C36.7,79.3,38.5,76.5,41,75.5z"/>
				<path id="XMLID_38_" class="st13" d="M39.6,58.8C40,45.1,51,36,65.7,34.1h19.7l0,0l0,0h8.5c-1.1-4.7-3.3-7.2-3.4-7.2l0,0
					c7.1-2.1,12.8,1.2,12.8,1.2v-6.4c0.2,0,0.5,0,0.7,0c11.2,0,20.3,9.1,20.3,20.3s-9.1,20.3-20.3,20.3c-5.4,0-10.3-2.1-13.9-5.5
					H67.6l-0.2,2.3c-0.7,6.4-5.7,11.5-12.2,12.3l-1.4,0.1c0,0.3,0,0.5,0,0.8c0,1.4,0,2.8,0,4.3c0,1.9,0,3.7,0,5.6c0,1.6,0,3.1,0,4.7
					c0,0.3-0.1,0.5-0.2,0.7c-0.8,1.5-3.4,1.1-3.4-0.7c0-0.5,0-1,0-1.5c0-1.6,0-3.1,0-4.7c-0.7-4.7-5.9-7.4-10.1-5.1l-1,0.5V62.4
					C39.3,61.2,39.4,60,39.6,58.8z"/>
				<path id="XMLID_37_" class="st14" d="M70.4,82.8h-2.3c-2.3,0-4.2-1.6-4.2-3.5s1.9-3.5,4.2-3.5h2.3c2.3,0,4.2,1.6,4.2,3.5
					C74.6,81.2,72.7,82.8,70.4,82.8z"/>
				<path id="XMLID_36_" class="st14" d="M97.2,82.8h-1.1c-2.3,0-4.2-1.6-4.2-3.5s1.9-3.4,4.2-3.4h1.5c-0.9,1-1.5,2.2-1.5,3.6
					C96.1,80.7,96.5,81.8,97.2,82.8z"/>
				<path id="XMLID_35_" class="st15" d="M102.6,79.3c0,1.9-1.9,3.5-4.2,3.5h-1.2c-0.7-0.9-1.1-2-1.1-3.2c0-1.4,0.6-2.8,1.5-3.7h0.7
					C100.7,75.8,102.6,77.3,102.6,79.3z"/>
				<path id="XMLID_34_" class="st15" d="M74.6,79.3c0,1.9-1.9,3.5-4.2,3.5h-1.2c-0.7-0.9-1.1-2-1.1-3.2c0-1.5,0.6-2.8,1.5-3.8h0.7
					C72.7,75.8,74.6,77.3,74.6,79.3z"/>
				<path id="XMLID_33_" class="st13" d="M74.5,73.3c0.6-0.2,0.9-1.2,0.6-2.3l0,0c-0.4-1-1-1.4-1.8-1.6c-3.8,0-12.3,3.5-11.2,5.6
					l0,0C64,73.4,71.2,71.8,74.5,73.3z"/>
				<path id="XMLID_32_" class="st13" d="M102.9,74c0.7-0.1,1-1.1,0.8-2.2l0,0c-0.3-1.1-0.8-1.5-1.6-1.8c-3.8-0.4-12.6,2-11.8,4.3
					l0,0C92.4,72.9,99.8,72.1,102.9,74z"/>
				<path id="XMLID_31_" class="st2" d="M50.1,128.4c0,0,9.4,44.4-6.8,78.4v11.8c0,0,28.8-30.9,14.6-90.2H50.1z"/>
				<path id="XMLID_30_" class="st16" d="M88.7,100.5c-1.9,0.7-13.9-0.3-15-1.1c-0.4-0.3-0.8-0.8-1.1-1.2c-0.7,1.5,0,4.5,1.9,7
					c1.5-0.8,3.7-1.4,6.9-1.5c3.8-0.1,6.4,0.9,8.1,2c1.7-2.2,2.2-4.9,1.6-6c-0.1-0.2-0.3-0.4-0.4-0.5
					C90.4,99.6,89.9,100.1,88.7,100.5z"/>
				<path id="XMLID_29_" class="st17" d="M81.4,103.8c-3.2,0.1-5.4,0.7-6.9,1.5c1.9,2.6,5,4.6,9,4.1c2.7-0.4,4.7-1.8,6-3.6
					C87.8,104.6,85.2,103.6,81.4,103.8z"/>
				<path id="XMLID_28_" class="st18" d="M88.7,100.5c1.2-0.4,1.7-1,1.9-1.3c-0.4-0.3-0.9-0.4-1.4-0.3c-2.5,0.6-9.5,0.8-14.1-1.2
					c-1.3-0.6-2.1-0.2-2.5,0.6c0.3,0.4,0.7,0.9,1.1,1.2C74.8,100.2,86.8,101.2,88.7,100.5z"/>
				<path id="XMLID_27_" class="st19" d="M49.3,220.8c1.6-2.6,2.2-5.8,3.5-8.5c0.2-0.4,0.5-0.8,0.7-1.1l-4.9-2.7L40,224.2l5.6,3
					C46.6,225,48,223,49.3,220.8z"/>
				<polygon id="XMLID_26_" class="st11" points="45,216.7 45,216.7 40.4,225.6 31.8,220.9 30.9,217.9 38,204.4 40.9,203.4 
					49.7,207.8 				"/>
				<path id="XMLID_25_" class="st10" d="M50.4,149.8c0,0-23.6,2.9-29.9,25.1c0,0-3.7,18.6,18.3,29.4l-7.5,14.6
					c0,0-35.6-15.9-25.8-53c0,0,8.8-25.1,39.1-33"/>
				
					<rect id="XMLID_24_" x="39.3" y="216" transform="matrix(0.4591 -0.8884 0.8884 0.4591 -167.7423 163.4921)" class="st11" width="22.2" height="6.9"/>
				<path id="XMLID_23_" class="st19" d="M110.7,220.8c-1.6-2.6-2.2-5.8-3.5-8.5c-0.2-0.4-0.5-0.8-0.7-1.1l4.9-2.7l8.6,15.7l-5.6,3
					C113.4,225,112,223,110.7,220.8z"/>
				<polygon id="XMLID_10_" class="st11" points="115,216.7 115,216.7 119.6,225.6 128.2,220.9 129.1,217.9 122,204.4 119,203.4 
					110.3,207.8 				"/>
				<path id="XMLID_9_" class="st10" d="M110.1,150.1c0,0,23,2.5,29.4,24.7c0,0,3.7,18.6-18.3,29.4l7.5,14.6c0,0,35.6-15.9,25.8-53
					c0,0-8.8-25.1-39.1-33"/>
				
					<rect id="XMLID_8_" x="106.1" y="208.4" transform="matrix(0.8884 -0.4591 0.4591 0.8884 -88.5476 74.805)" class="st11" width="6.9" height="22.2"/>
				<path id="XMLID_5_" class="st18" d="M87.9,100.7c0,0,2.6-0.1,3.2-0.9c0,0-0.2-0.4-0.7-0.7"/>
				<path id="XMLID_4_" class="st18" d="M74.6,99.7c0,0-1.5-0.3-2.2-0.7c0,0,0-0.4,0.2-0.8l1.2,0.1L74.6,99.7z"/>
				<path id="XMLID_3_" class="st18" d="M89,100.6l2.3-0.2c0,0-0.1-0.4-0.2-0.7"/>
			</g>
		</g>
	</g>
</g>
</svg>
