<?xml version="1.0" encoding="utf-8"?>
<!-- Generator: Adobe Illustrator 19.0.0, SVG Export Plug-In . SVG Version: 6.00 Build 0)  -->
<svg version="1.1" id="Layer_1" xmlns="http://www.w3.org/2000/svg" xmlns:xlink="http://www.w3.org/1999/xlink" x="0px" y="0px"
	 viewBox="22.6 312.9 807.2 185.9" style="enable-background:new 22.6 312.9 807.2 185.9;" xml:space="preserve">
<style type="text/css">
	.st0{fill:#010101;}
	.st1{fill:#DE384A;}
	.st2{fill:#FFFFFF;}
</style>
<g id="XMLID_2_">
	<g id="XMLID_49_">
		<path id="XMLID_50_" class="st0" d="M712.5,463.3c-0.1-1.9,15.5-7.9,17.3-8.8c14.7-7.6,29-16.4,41.4-27.5
			c3.8-3.4,7.6-8.5,2.5-12.6c-5.4-4.4-10.4-9.2-15.9-13.5c-9.8-7.5-20.5-13.8-31.8-18.7c-5.2-2.2-10.8-4.7-16.3-5.8
			c-0.6,2.8-0.2,6.2-0.2,9c0.1,20.2,0.8,40.5,1.9,60.7C711.8,451.8,712.1,457.6,712.5,463.3z"/>
	</g>
	<path id="XMLID_48_" class="st1" d="M428.6,407.1c-7.8-16.5-18.3-30.7-38.5-32.4c-18.2-1.5-34.2,8.1-41.2,23.3h-0.1c0,0,0,0,0,0.1
		c-1.4,3-2.4,6.3-3.1,9.7c-4.3,23.3,9.1,48.8,28.8,54.9c5.8,1.8,11.5,2,17.5,0.9c14.9-2.8,19.2-0.6,26.9,14.8
		c6.7-14.1,10.5-27.4,13.2-41.1C434.2,426.7,433,416.4,428.6,407.1z"/>
	<g id="XMLID_42_">
		<path id="XMLID_45_" class="st2" d="M378.2,441.5c-0.7-0.2-1.2-0.3-1.7-0.3s-0.9-0.3-1.5-0.7c-0.5-0.4-1.1-1.2-1.9-2.2
			c-0.7-1.1-1.7-2.7-2.8-4.9c0-0.1-0.1-0.3-0.2-0.8c-0.2-0.4-0.3-1-0.5-1.6s-0.4-1.2-0.5-1.9c-0.2-0.7-0.3-1.3-0.4-1.8
			c-0.1-0.6-0.2-1.5-0.4-2.5c-0.2-1-0.3-2.1-0.5-3.2c-0.3-2.7-0.4-5.5-0.2-8.1c0.2-2.7,0.4-5.4,0.7-8.1c0,0,0.1-0.3,0.2-0.7
			s0.3-0.8,0.6-1.3c0.2-0.4,0.5-0.8,0.8-1.2s0.6-0.6,0.9-0.6c0.6-0.8,1.1-1.3,1.6-1.7c0.4-0.4,1.1-0.6,1.9-0.7
			c1.3-0.2,2.5,0,3.5,0.4c1.1,0.4,2,1,2.7,1.6c0.8,0.6,1.4,1.3,1.9,1.9c0.5,0.6,0.8,1.1,1,1.4c0.5,1,1,1.9,1.4,2.7
			c0.4,0.8,0.7,1.7,1,2.7c0.1,0.5,0.1,1,0.2,1.5s0.2,1,0.4,1.5c0.2,0.5,0.3,0.9,0.5,1.3c0.1,0.4,0.3,0.7,0.4,0.8l0.7,5.6
			c0.1,0.6,0.2,1.2,0.3,1.7c0.1,0.5,0.2,0.9,0.2,1.4c0.1,0.6,0.1,1.1,0.1,1.6s0,1.1-0.2,1.8c0,0.2-0.1,0.5-0.1,0.9
			c-0.1,0.4-0.1,0.9-0.2,1.4s-0.1,1-0.2,1.5s-0.1,0.8-0.2,1c0.1,1.2-0.1,2.3-0.6,3.2c-0.5,0.9-1.1,1.9-1.6,2.9
			c-0.7,1.3-1.5,2.2-2.4,2.7s-2,0.8-3.5,1.1c-0.2,0-0.4,0-0.7,0C378.6,441.5,378.4,441.5,378.2,441.5z M378.5,436.3l1.9-0.2
			c0.7-0.4,1.2-0.7,1.4-1.1c0.2-0.4,0.4-0.9,0.4-1.4c0.1-0.5,0.1-1.2,0.2-2c0.1-0.8,0.2-1.7,0.5-2.7c0-1.9,0-3.5-0.1-4.6
			c0-1.2-0.1-2.3-0.1-3.3s0-1.7-0.1-1.9c-0.2-1.9-0.4-3.6-0.7-5.1c-0.2-1.5-0.5-2.8-0.9-4c-0.4-1.2-1-2.3-1.6-3.3
			c-0.7-1-1.6-2-2.9-2.9c-1.2,0.1-2.1,0.4-2.7,0.9s-0.9,1.2-0.8,2.1c0,0.1,0,0.3-0.1,0.5c0,0.3-0.1,0.6-0.1,0.9
			c0,0.3-0.1,0.6-0.1,0.9c-0.1,0.3-0.1,0.4-0.1,0.5c0.1,0.7,0.1,1.4,0,2.1c-0.1,0.7-0.2,1.4-0.3,2.2c-0.1,0.7-0.2,1.5-0.3,2.2
			c-0.1,0.7-0.1,1.5,0,2.2l0.5,4.4c0.2,1.5,0.4,3,0.8,4.5c0.3,1.5,0.8,2.9,1.3,4.3s1.3,2.6,2.3,3.8c0.2,0.2,0.3,0.4,0.5,0.6
			c0.1,0.2,0.3,0.4,0.6,0.5L378.5,436.3z"/>
		<path id="XMLID_43_" class="st2" d="M396,439.5c-0.6-0.1-1.1-0.7-1.4-1.7s-0.6-2.1-0.8-3.5c-0.2-1-0.4-2-0.5-3.1
			c0-0.4-0.1-0.7-0.1-1.1l-0.1-0.5c-0.1-1.2-0.3-2.3-0.6-3.1l-1.1-9.2c0-0.3-0.1-0.6-0.2-1.1c-0.1-0.4-0.2-0.9-0.3-1.4
			c-0.1-0.5-0.2-0.9-0.2-1.2c-0.1-0.3-0.1-0.5-0.1-0.6l-0.5-4.5c-0.2-0.3-0.3-0.7-0.4-1.2c0-0.2,0-0.4,0-0.7c0-0.2,0-0.5,0-0.7
			c-0.1-0.5-0.2-1.1-0.4-1.7c-0.2-0.7-0.4-1.3-0.6-2c-0.1-0.5-0.1-1-0.1-1.5s0-1,0.2-1.4c0.1-0.4,0.4-0.8,0.7-1.1
			c0.3-0.3,0.8-0.5,1.4-0.6h0.1c0.3,0,0.8-0.1,1.3-0.2c0.6-0.1,1.1-0.2,1.6-0.3s1-0.2,1.4-0.4c0.4-0.1,0.7-0.2,0.7-0.2
			c0.5-0.1,1.1-0.1,1.9-0.2c0.8-0.1,1.5-0.1,2.3-0.1c0.7,0,1.4,0.1,1.9,0.2c0.5,0.1,0.8,0.4,0.9,0.8l0.2,1.9c0,0.3-0.2,0.6-0.5,1
			c-0.4,0.3-0.8,0.5-1.3,0.6l-6.9,1.2c-0.5,0.1-0.8,0.3-0.8,0.8c0.2,1.5,0.3,2.6,0.5,3.4c0.1,0.8,0.3,1.4,0.4,2s0.3,1.2,0.4,1.9
			c0.1,0.7,0.3,1.7,0.4,3c0,0,0,0.1,0.1,0.3c0.1,0.2,0.1,0.3,0.1,0.5c0,0.2,0.1,0.3,0.1,0.4c0.1,0.1,0.1,0.2,0.1,0.3
			c0.1,0.6,0.2,1,0.5,1.1c0.2,0.1,0.6,0.1,1,0.1s0.8-0.1,1.1-0.2c0.3-0.1,0.6-0.2,0.9-0.2c0.3-0.1,0.6-0.2,1-0.2
			c0.4-0.1,0.8-0.2,1.4-0.2c0.8-0.1,1.4-0.1,2,0s0.9,0.4,1.1,0.8c0.1,1.3,0,2.1-0.4,2.5c-0.4,0.4-1.1,0.7-1.9,0.9
			c-0.8,0.2-1.7,0.3-2.7,0.5c-1,0.2-2,0.7-2.9,1.4l1,8.6c0.3,0.5,0.4,0.9,0.6,1.4c0.1,0.5,0.2,1,0.3,1.5l0.3,2.4
			c0.1,0.8,0.1,1.5,0,2.1c-0.1,0.7-0.3,1.2-0.6,1.6c-0.3,0.4-0.8,0.7-1.6,0.8C396.6,439.6,396.3,439.6,396,439.5z"/>
	</g>
	<g id="XMLID_35_">
		<path id="XMLID_40_" class="st0" d="M105,363c-0.8-1.1-1.3-2.2-1.4-3.3c0-0.1,0-0.3,0-0.7s0-0.7,0-1s-0.1-0.7-0.2-1
			c-0.1-0.4-0.1-0.7-0.2-1.2c0-0.3-0.1-0.6-0.1-0.9s0-0.6-0.1-0.9c0-0.4-0.1-0.8-0.2-1.1c-0.1-0.3-0.1-0.7-0.2-1c0-0.1,0-0.4,0.1-1
			c0-0.6,0-1.1,0-1.5c-0.1-0.2-0.1-0.4-0.2-0.7c-0.1-0.2-0.1-0.5-0.1-0.7c-0.1-0.4-0.1-0.9,0-1.3c0-0.4,0-0.9,0-1.3
			c0-0.1-0.1-0.3-0.2-0.7c-0.1-0.3-0.2-0.5-0.2-0.7l-0.7-6.4c0-0.1-0.3-0.2-0.8-0.3c-0.5,0-1.3,0-2.3,0.1h-0.3
			c-0.8,0.1-1.2,0-1.4-0.2c-0.2-0.3-0.3-0.4-0.3-0.6l-0.1-0.7c0,0,0.1-0.2,0.3-0.5c0.2-0.3,0.4-0.5,0.6-0.7c0,0-0.1,0-0.1,0.1l0,0
			c0,0,0.3-0.2,0.9-0.4c0.6-0.2,1.6-0.4,2.9-0.6c0.2,0.2,0.4,0.2,0.7,0.2c0.3,0,0.6,0,0.8-0.1c0.6-0.1,1.3-0.2,1.9-0.2
			c0.6-0.1,1.2-0.2,1.8-0.2c1-0.1,1.9-0.1,2.6-0.1c0.7,0.1,1,0.4,1.1,0.9c0,0.3,0,0.6,0,0.9c-0.1,0.2-0.4,0.4-0.7,0.6
			c-0.4,0.2-0.8,0.3-1.3,0.4c-0.5,0.1-1,0.2-1.5,0.3s-0.9,0.1-1.3,0.2c0.1,1.2,0.1,2.3,0.2,3.3s0.1,2,0.2,3.1
			c0.1,1.1,0.1,2.1,0.2,3.1s0.1,1.6,0.1,2c0.2,1.5,0.4,3.1,0.7,4.7c0.3,1.7,0.5,3.4,0.8,5.2c0.1,0.5,0.1,1,0.1,1.5s0,1-0.1,1.5
			s-0.2,0.9-0.5,1.2c-0.2,0.3-0.6,0.5-1,0.6L105,363C105.1,363,105,363,105,363z"/>
		<path id="XMLID_38_" class="st0" d="M116.2,361.5c-0.3-0.2-0.5-0.4-0.7-0.7c-0.1-0.2-0.2-0.4-0.3-0.6l-0.7-3.6
			c0,0-0.1-0.5-0.2-1.5s-0.3-2.2-0.5-3.7c-0.2-1.5-0.4-3.1-0.6-4.9c-0.2-1.8-0.4-3.5-0.6-5.2c-0.2-1.7-0.4-3.1-0.6-4.4
			c-0.2-1.3-0.3-2.2-0.3-2.7c0-0.2,0-0.3,0.2-0.5c0.1-0.2,0.3-0.4,0.5-0.6c0.2-0.2,0.4-0.3,0.6-0.5c0.2-0.1,0.4-0.2,0.6-0.2
			c0.3,0,0.6,0.1,0.8,0.3c0.2,0.3,0.4,0.6,0.5,0.9c0.1,0.4,0.2,0.7,0.3,1c0,0.3,0.1,0.5,0.1,0.5l1.3,10.7c0.3,0.2,0.7,0.3,1.2,0.3
			s0.9,0,1.3-0.1c0.5-0.1,1-0.1,1.5-0.2s1-0.1,1.5-0.2c0.5-0.1,0.7-0.4,0.8-0.9c0.1-0.6,0-1.3-0.1-2.3c-0.1-0.5-0.2-1.2-0.3-1.9
			c-0.1-0.8-0.2-1.5-0.4-2.3c-0.1-0.8-0.3-1.5-0.4-2.2c-0.1-0.7-0.2-1.3-0.3-1.8c-0.1-0.6,0-1.3,0.2-1.8c0.2-0.6,0.8-0.9,1.6-1
			c0.3,0,0.6,0,0.8,0.2c0.2,0.2,0.4,0.4,0.5,0.8c0.3,0.1,0.4,0.5,0.4,0.9c0.1,0.4,0.1,0.8,0.2,1.1c0.1,0.6,0.1,1.2,0.2,1.8
			c0,0.6,0.1,1.2,0.2,1.7c0.1,1.1,0.3,2.2,0.5,3.4c0.2,1.2,0.4,2.3,0.6,3.4c0.2,1.1,0.4,2.2,0.6,3.3s0.3,2,0.4,2.9
			c0,0.4,0.1,0.8,0.1,1.3c0,0.4,0.1,0.9,0.1,1.3c0.1,0.8,0.3,1.6,0.5,2.3c0.2,0.7,0.4,1.5,0.5,2.3c0.1,0.5,0,0.9-0.2,1.4
			s-0.7,0.8-1.4,0.8c-0.6,0.1-0.9,0-1.2-0.2c-0.2-0.2-0.4-0.5-0.5-0.9c-0.1-0.4-0.2-0.8-0.2-1.3c-0.1-0.4-0.2-0.9-0.4-1.2l-0.8-6.7
			c0-0.3-0.2-0.7-0.5-1c-0.3-0.4-0.6-0.5-1.1-0.5c-1.1,0.1-2,0.3-3,0.6c-0.9,0.2-1.6,0.4-2,0.4c-0.2,0-0.3,0.3-0.3,1
			c0,0.6,0,1.4,0.1,2.3s0.2,1.9,0.3,2.9l0.3,2.7c0,0.3,0.1,0.6,0.2,1s0.2,0.6,0.2,0.7c0.1,0.5,0,0.9-0.2,1.2
			c-0.2,0.3-0.6,0.4-1.2,0.5C116.6,361.7,116.4,361.7,116.2,361.5z"/>
		<path id="XMLID_36_" class="st0" d="M140.6,358.7c-0.1,0-0.2,0-0.5,0c-0.2,0-0.5,0-0.7,0c-0.3,0-0.5,0-0.7,0h-0.6
			c-0.3,0-0.7,0.1-1,0.3c-0.3,0.1-0.7,0.2-1,0.3c-0.7,0.1-1.3,0.1-1.8,0.1s-0.8-0.1-1.1-0.2c-0.3-0.2-0.5-0.4-0.7-0.7
			c-0.2-0.3-0.3-0.8-0.5-1.3l-1-8.1c-0.1-1.1-0.3-2.2-0.4-3.1c-0.2-0.9-0.3-1.8-0.4-2.6c-0.1-0.8-0.3-1.5-0.4-2.3
			c-0.1-0.7-0.2-1.5-0.3-2.2c0-0.2-0.1-0.4-0.1-0.7c-0.1-0.3-0.2-0.6-0.3-1c-0.1-0.4-0.2-0.7-0.2-1c-0.1-0.3-0.1-0.5-0.1-0.5
			c0-0.1,0-0.2,0.1-0.4l-0.3-2.2c0-0.1,0-0.2,0.1-0.5c0.1-0.2,0.2-0.5,0.3-0.7c0,0,0,0,0-0.1c0,0,0,0,0-0.1c0-0.2,0.1-0.4,0.4-0.6
			c0.3-0.1,0.7-0.3,1.2-0.4c0.5-0.1,1.1-0.2,1.8-0.3l2-0.2l0.2-0.2c0.4,0,0.8-0.1,1.2-0.2c0.4-0.1,0.7-0.2,0.8-0.2
			c0.3,0.1,0.5,0.1,0.8,0.1s0.6,0,0.9,0s0.6,0.1,0.8,0.2c0.3,0.1,0.5,0.4,0.7,0.7c0.1,0.4,0.1,0.8,0,1c0,0.2-0.1,0.4-0.3,0.6
			c-0.2,0.1-0.4,0.3-0.6,0.3c-0.3,0.1-0.6,0.2-1,0.3c-0.2,0-0.5,0.1-0.7,0.4c-0.5,0.4-0.7,0.5-0.8,0.5c-0.3,0-0.5,0.1-0.8,0.1
			c-0.2,0.1-0.4,0.1-0.5,0.1c-0.1,0-0.2,0-0.3,0l-1.8,0.2l-0.8,0.5l0,0c0,0.1,0.1,0.3,0.2,0.6c0.1,0.3,0.1,0.5,0.1,0.5l0.7,5.9
			c0,0.2,0.1,0.4,0.3,0.8s0.4,0.6,0.6,0.7h0.3c0.1,0,0.2,0,0.2,0.1l3.2-0.4c0.4,0.1,0.7,0.2,1,0.3s0.6,0.1,0.9,0.2
			c0.3,0.1,0.5,0.2,0.7,0.4c0.2,0.2,0.3,0.4,0.3,0.8c0,0.3-0.1,0.6-0.3,0.9c-0.3,0.3-0.6,0.5-1,0.6c-0.4,0.2-0.8,0.3-1.2,0.4
			s-0.8,0.2-1,0.2c-0.3,0-0.6,0.1-1.1,0.1s-1,0.1-1.5,0.1c-0.1,0.5-0.2,1-0.1,1.7c0,0.6,0.1,1.3,0.2,2.1l0.2,1.7
			c0.1,0.6,0.2,1.2,0.3,1.7s0.2,1,0.4,1.3c0.1,0.4,0.3,0.6,0.5,0.6c0.4,0,0.8-0.1,1.2-0.2c0.4-0.1,0.7-0.2,1-0.2
			c0.7-0.1,1.3-0.2,1.9-0.2c0.6-0.1,1.3-0.1,2,0c0.2,0.3,0.5,0.5,0.9,0.7c0.3,0.2,0.5,0.4,0.5,0.5c0,0-0.1,0.2-0.2,0.4
			c-0.2,0.3-0.4,0.5-0.6,0.7l0,0c-0.1,0-0.2,0.1-0.4,0.4c-0.2,0.2-0.6,0.4-1.1,0.5c-0.1,0-0.2,0.1-0.2,0.2c0,0.1,0,0.2-0.1,0.2
			c0,0-0.1,0-0.1-0.1C140.7,358.7,140.6,358.7,140.6,358.7z"/>
	</g>
	<path id="XMLID_32_" class="st0" d="M68.5,479.8c-0.1-0.8-0.2-1.6-0.2-2.3c0-0.7-0.1-1.5-0.2-2.4c-0.1-0.8-0.2-1.8-0.3-3.1
		c-0.1-1.2-0.3-2.8-0.5-4.8l0.4-2.1c0.1-0.2,0-1-0.1-2.5s-0.3-3.3-0.6-5.4c-0.5-4.4-1-8.1-1.4-11.2s-1.2-6.4-2.3-9.8
		c0.1-0.5,0.2-1,0.4-1.7c0.1-0.7,0.3-1.3,0.6-1.9l-3-25.2c0-0.1,0-0.6,0.2-1.5c0.1-0.9,0.1-1.9,0-2.9l-0.6-5c-0.1-0.8-0.2-1.5-0.4-2
		s-0.3-0.8-0.4-0.8l-0.2-2c-0.1-0.8,0-1.3,0.2-1.4l3.6-4.6c1.5-0.5,2.9-0.8,4.1-1.2c1.2-0.3,2.4-0.6,3.4-0.7s1.9-0.2,2.8-0.2
		c0.9,0,1.9,0.1,3.2,0.4c1.2,0.3,2.7,0.7,4.4,1.3c1.7,0.6,4,1.4,6.8,2.3c0.1,0.5,0.3,0.9,0.9,1.4c0.5,0.4,1,0.7,1.5,0.9
		c0-0.1,0-0.1,0.1-0.2c0.1,0,0.2,0.2,0.4,0.5c0.2,0.3,0.4,0.7,0.6,1.2c0.2,0.4,0.5,0.9,0.8,1.3c0.3,0.4,0.6,0.8,0.9,1l1,1.1
		c0.6,0.8,1.3,1.6,2.1,2.5c0.8,0.9,1.5,1.8,2.1,2.7c0.7,0.9,1,1.5,1.1,1.9c0,0.1,0,0.2-0.1,0.3l1.3,11.3c0,0.2,0,0.4-0.1,0.7
		c-0.1,0.3-0.1,0.5-0.1,0.7c-0.1,1-0.1,2-0.1,2.9s0,1.9,0,2.8c0,1-0.1,2-0.3,3.1c-0.2,1.1-0.5,2.5-0.8,4c-0.2,0.3-0.2,0.6-0.2,1
		c0,0.1,0.1,0.2,0.2,0.3v0.1c0,0.4-0.1,0.7-0.4,1.2c-0.7,0.9-1.6,2-2.5,3.3c-1,1.3-1.4,2.2-1.3,2.6l-0.5,0.7c-0.4,0.6-0.9,1.3-1.6,2
		c-0.7,0.7-1.5,1.4-2.5,2.1c-0.9,0.7-1.9,1.1-3,1.2c-1.3,0.9-2.6,1.6-4,2.1c-1.4,0.5-2.6,1.1-3.8,1.6c-1.2,0.6-2.2,1.2-3,1.9
		c-0.8,0.7-1.2,1.8-1.4,3.1l1.3,10.9c0.2,1.8,0.6,3.6,1,5.2c0.5,1.7,0.8,3.3,1,5.1c0.1,0.8,0.1,1.7,0.2,2.5c0,0.9-0.1,1.7-0.3,2.5
		c-0.2,0.8-0.5,1.4-0.9,1.9s-1,0.8-1.7,0.9l-5.7,0.7l-1.5-1.2L68.5,479.8z M75.9,436.7c0.2,0,0.7,0,1.6,0c0.9,0,1.5,0,1.9,0
		c0.8-0.1,2-0.7,3.5-1.8s3-2.1,4.6-3c0.7-0.6,1.1-1.2,1.3-1.7s0.7-1.2,1.4-2c0.3-1.1,0.6-2.2,0.8-3.4c0.2-1,0.3-2.2,0.4-3.5
		c0.1-1.3,0.1-2.6-0.1-4c-0.3-2.3-0.7-4.6-1.2-7.1s-1.5-4.4-2.8-5.8c-1.4-0.7-2.2-1.5-2.6-2.5c-0.4-1-1-1.8-1.9-2.5
		c-1.5-0.4-2.7-1-3.5-1.9c-0.8-0.9-1.5-1.3-1.9-1.2l-4.2,0.4c0,0.4-0.2,0.8-0.3,1.2c-0.2,0.4-0.4,0.9-0.6,1.2
		c-0.2,0.4-0.4,0.7-0.6,1c-0.1,0.3-0.1,0.5-0.1,0.6v0.3l2.3,25.6c0.1,0.9,0.1,1.7-0.1,2.5c-0.2,0.8-0.2,1.4-0.2,2
		c0.1,0.9,0.3,2.1,0.5,3.5C74.5,435.9,75,436.7,75.9,436.7z"/>
	<path id="XMLID_29_" class="st0" d="M127.7,464.9c-1.4-0.3-2.5-0.5-3.4-0.6s-1.9-0.5-3-1.4s-2.3-2.4-3.8-4.5s-3.3-5.4-5.7-9.9
		c0-0.2-0.2-0.7-0.5-1.6c-0.3-0.9-0.6-1.9-1-3.2c-0.4-1.2-0.7-2.5-1.1-3.8c-0.4-1.3-0.6-2.6-0.7-3.7c-0.2-1.3-0.4-3-0.8-5.1
		s-0.7-4.3-0.9-6.5c-0.7-5.5-0.8-11-0.5-16.4c0.3-5.4,0.8-10.9,1.4-16.4c0-0.1,0.1-0.5,0.4-1.3s0.6-1.7,1.1-2.5
		c0.5-0.9,1-1.7,1.6-2.5s1.2-1.2,1.8-1.3c1.2-1.5,2.3-2.7,3.2-3.4c0.9-0.7,2.2-1.2,3.8-1.4c2.6-0.3,5,0,7.1,0.8
		c2.1,0.9,4,1.9,5.5,3.3c1.6,1.3,2.8,2.6,3.8,3.9s1.6,2.2,1.9,2.7c1.1,1.9,2,3.8,2.7,5.4c0.8,1.7,1.4,3.5,2,5.4c0.1,1,0.3,2,0.5,3
		s0.5,2,0.8,2.9c0.3,1,0.6,1.8,0.9,2.6c0.3,0.8,0.6,1.3,0.9,1.7l1.3,11.2c0.2,1.3,0.3,2.4,0.5,3.3c0.2,0.9,0.3,1.8,0.4,2.7
		c0.1,1.1,0.2,2.2,0.3,3.2c0,1-0.1,2.2-0.3,3.6c0,0.3-0.1,0.9-0.2,1.8c-0.1,0.9-0.2,1.8-0.3,2.9c-0.1,1-0.3,2.1-0.4,3
		c-0.1,1-0.3,1.6-0.4,2c0.3,2.4-0.1,4.6-1.2,6.5c-1.1,1.9-2.2,3.8-3.3,5.8c-1.4,2.6-3,4.4-4.8,5.4c-1.7,0.9-4.1,1.7-7,2.2
		c-0.4,0-0.9,0-1.4,0C128.5,464.9,128.1,464.8,127.7,464.9z M128.3,454.4l3.9-0.5c1.4-0.7,2.3-1.5,2.8-2.3c0.5-0.8,0.8-1.7,0.9-2.8
		c0.1-1.1,0.2-2.4,0.3-3.9s0.4-3.4,1-5.5c0-3.9-0.1-7-0.2-9.3c-0.1-2.3-0.1-4.6-0.2-6.7c0-2.1-0.1-3.4-0.1-3.9
		c-0.5-3.8-0.9-7.2-1.3-10.2c-0.4-3-1.1-5.7-1.9-8.1c-0.8-2.4-1.9-4.6-3.3-6.6c-1.4-2-3.3-3.9-5.8-5.9c-2.4,0.3-4.2,0.9-5.4,1.9
		c-1.2,1-1.8,2.4-1.5,4.3c0,0.2,0,0.5-0.1,1.1s-0.2,1.1-0.3,1.8c-0.1,0.6-0.2,1.2-0.3,1.8s-0.1,0.9-0.1,1.1c0.2,1.4,0.2,2.8,0,4.2
		c-0.2,1.4-0.3,2.9-0.5,4.3c-0.2,1.5-0.4,2.9-0.5,4.4c-0.2,1.5-0.2,2.9,0,4.4l1,8.8c0.4,3,0.9,6,1.6,9c0.7,3,1.6,5.8,2.7,8.6
		c1.1,2.8,2.6,5.3,4.6,7.6c0.4,0.5,0.7,0.9,1,1.3c0.3,0.4,0.6,0.7,1.2,1L128.3,454.4z"/>
	<path id="XMLID_27_" class="st0" d="M177.1,470.5c-0.2,0-0.6-0.2-1.4-0.6c-0.7-0.4-1.2-0.7-1.4-0.6c-1.1-0.5-1.8-1.4-2.2-2.6
		c-0.4-1.2-0.8-2.6-1-4.1s-0.5-3.2-0.6-4.9c-0.2-1.7-0.5-3.4-1-4.9c0-0.2-0.1-0.6-0.3-1.3c-0.2-0.7-0.5-1.5-0.7-2.3
		c-0.3-0.8-0.5-1.6-0.7-2.4c-0.2-0.7-0.3-1.2-0.3-1.4c-0.4-1.4-0.7-2.8-0.7-4.2c0-0.4,0-0.8,0.1-1.3v-1.1c-0.1-1.4-0.3-2.8-0.7-4.2
		c-0.4-1.5-0.9-3.4-1.5-5.8c-0.6-2.4-1.2-5-2-7.9s-1.6-5.8-2.4-8.8c-0.9-3-1.8-5.8-2.7-8.5c0-0.2-0.1-0.6-0.2-1.3
		c-0.1-0.6-0.2-1.1-0.2-1.3c-0.1-0.3-0.3-1-0.6-2.2c-0.3-1.2-0.6-2.4-0.9-3.7c-0.3-1.3-0.6-2.5-0.9-3.7s-0.5-1.9-0.6-2.2
		c-0.1-1.6-0.3-3.2-0.7-4.8s-0.6-3-0.7-4.3c-0.1-2.3,0.3-3.9,1.1-4.7s2-1.2,3.6-1.3c1.3-0.1,2.3,0.1,3,0.4c0.7,0.3,1.2,0.7,1.6,1.3
		c0.3,0.5,0.6,1.2,0.7,1.9c0.1,0.7,0.3,1.5,0.5,2.2c0.1,2.1,0.4,4,1.1,6c0.6,1.9,1,3.9,1.1,5.8c0,0.2,0.2,0.8,0.6,1.9
		c0.4,1.1,0.6,1.7,0.6,1.9c0.1,2.1,0.5,3.7,1.2,4.9s1.2,2.6,1.5,4.1c0,0.7,0.1,1.8,0.3,3.1c0.2,1.3,0.5,2.9,0.8,4.5
		c0.3,1.7,0.8,3.4,1.3,5.2c0.5,1.8,1,3.5,1.5,5.2c0,0.3,0.1,0.8,0.1,1.7c0.1,0.8,0.2,1.7,0.5,2.7c0.2,1,0.5,1.9,0.8,2.8
		s0.8,1.5,1.3,1.8c0.3-0.8,0.8-1.6,1.4-2.6c0.6-1,0.8-1.9,0.8-2.8c-0.1-2,0-3.9,0.3-5.8s0.4-3.3,0.4-4.4c-0.1-1.8,0-3.4,0.2-4.8
		c0.2-1.5,0.5-2.8,0.8-4.2c0.3-1.3,0.6-2.6,0.8-4c0.2-1.3,0.3-2.7,0.3-4.1c0-0.9-0.2-1.9-0.5-2.9c0.8-1,1.4-2.7,1.7-5.2
		c0.3-2.5,0.7-5,1-7.7c0.4-2.6,0.9-5,1.5-7.2c0.6-2.2,1.6-3.4,3-3.6c1.4-0.1,2.4,0,2.9,0.2c0.5,0.2,0.9,0.5,1.1,0.8
		c0.2,0.3,0.4,0.7,0.6,1.2c0.2,0.5,0.7,0.9,1.5,1.3c1.7,2.1,2.8,4.4,3.4,7c0.6,2.6,1.1,5.1,1.7,7.5c0,0.1,0.1,0.3,0.2,0.6
		c0.1,0.3,0.2,0.7,0.4,1c0.2,0.4,0.3,0.7,0.5,1.1c0.2,0.4,0.2,0.6,0.2,0.7c0,0.2,0,0.5,0.1,1s0.1,1.1,0.1,1.7c0,0.7,0.1,1.2,0.1,1.7
		c0.1,0.5,0.1,0.9,0.1,1c0,0.2,0.2,0.7,0.6,1.5c0.4,0.8,0.6,1.3,0.6,1.5l0.1,3.5c0,0.7,0.3,1.6,0.8,2.4c0.5,0.9,0.8,1.7,0.8,2.4
		l0.2,4.5c0,0.2,0.1,0.6,0.3,1.1c0.2,0.6,0.4,1.2,0.6,1.9c0.2,0.7,0.4,1.3,0.6,1.9c0.2,0.6,0.3,0.9,0.3,1.1c0,0.2,0.2,0.8,0.5,1.9
		s0.6,1.8,0.8,2.2c0.3,1.1,0.6,2.4,0.8,3.8s0.4,2.7,0.6,4c0.2,1.3,0.4,2.5,0.6,3.5c0.2,1.1,0.5,1.9,0.9,2.4l0.4,0.4
		c0.3-0.6,0.4-1.2,0.3-1.8c0-0.4-0.1-0.7-0.1-1.1c-0.1-0.4-0.1-0.7-0.1-1c0-0.2,0.1-0.6,0.3-1.2c0.2-0.6,0.3-1,0.3-1.2
		c0.6-5.6,1.2-12.3,1.7-19.9s1.1-15.6,1.9-24c-0.1-1.9,0.1-3.8,0.4-5.8c0.3-2,0.5-3.7,0.4-5.1c0-0.2,0.2-0.7,0.6-1.6
		c0.4-0.9,0.6-1.4,0.6-1.6c0-1.1,0.3-1.8,0.9-2.1c0.6-0.3,1.3-0.5,1.9-0.5c2.2-0.1,3.7,0.7,4.4,2.5c0.7,1.8,1.1,4.3,1.2,7.5
		c0,0.3-0.1,1-0.2,2.1c-0.1,1.1-0.3,2.3-0.5,3.7c-0.2,1.3-0.3,2.5-0.5,3.7c-0.1,1.1-0.2,1.8-0.2,2.1c0.1,3.6,0.2,7,0,10
		c-0.1,3-0.3,6-0.6,8.8c-0.3,2.8-0.5,5.6-0.7,8.4c-0.2,2.8-0.4,5.8-0.4,8.8c-0.3,2.1-0.6,4-1,5.9c-0.3,1.8-0.5,4.1-0.4,6.7
		c0.1,0.1,0.1,0.2,0.2,0.4c0,0.9-0.3,2.4-0.9,4.5c-0.7,2.1-0.9,4.7-0.8,7.7c0,0.6,0,1.2,0,2c0,0.8-0.1,1.7-0.2,2.6
		c-0.1,0.9-0.3,1.8-0.5,2.7s-0.5,1.6-0.9,2.1c-0.2,0.2-0.4,0.5-0.8,0.9c-0.4,0.4-0.7,0.8-1.1,1.2c-0.4,0.4-0.8,0.7-1.2,1
		c-0.4,0.3-0.6,0.4-0.7,0.4l-4.5,0.2c-1.4-0.6-2.5-1.3-3.2-2.1c-0.7-0.8-1.2-1.7-1.6-2.7c-0.4-1-0.7-2-0.9-3.1s-0.5-2.2-0.8-3.3
		c0-0.2-0.1-0.6-0.3-1.2c-0.2-0.6-0.4-1.3-0.6-2c-0.2-0.7-0.4-1.4-0.6-2c-0.2-0.6-0.3-1.1-0.3-1.2c-0.1-2.7-0.5-5.2-1.1-7.6
		c-0.7-2.4-1.3-4.7-2-7.1c-0.7-2.4-1.4-4.8-2-7.3c-0.7-2.5-1-5.2-1.2-8.2c-0.6-2.7-1.1-5.3-1.6-7.9c-0.5-2.5-1.3-5.1-2.2-7.7
		c-0.2,0.1-0.4,0.5-0.6,1.1c-0.2,0.6-0.4,1.3-0.6,2.1c-0.2,0.8-0.4,1.6-0.5,2.3c-0.1,0.8-0.2,1.4-0.1,1.8c0.1,2.1,0,3.9-0.1,5.7
		c-0.2,1.7-0.4,3.4-0.6,5c-0.3,1.6-0.5,3.2-0.6,4.9c-0.2,1.6-0.2,3.4-0.1,5.1c0,0.3-0.1,0.9-0.3,1.8c-0.2,0.9-0.4,2-0.6,3.1
		s-0.4,2.2-0.6,3.1s-0.3,1.6-0.3,1.8c-0.1,0.4-0.2,1.2-0.3,2.5c-0.1,1.3-0.2,2.7-0.2,4.1c0,1.5-0.1,2.8-0.1,4.1s-0.1,2.2,0,2.5
		c0.1,1.3-0.1,2.4-0.4,3.4c-0.3,0.9-0.6,1.8-0.9,2.7s-0.7,1.7-1,2.4c-0.3,0.8-0.4,1.6-0.4,2.4l-0.5,0.6c-0.5,0.4-0.9,0.8-1.4,1.2
		s-0.9,0.8-1.4,1.1c-0.5,0.3-0.8,0.5-0.9,0.5c-0.2,0-0.4-0.1-0.5-0.3C177.4,470.8,177.3,470.6,177.1,470.5z"/>
	<path id="XMLID_25_" class="st0" d="M262.6,456.6c-0.2-0.1-0.7-0.1-1.3-0.2c-0.7-0.1-1.3-0.1-2.1-0.2c-0.7-0.1-1.4-0.1-2.1-0.1
		h-1.7c-1,0-2,0.2-3,0.5c-1,0.3-2,0.5-2.9,0.5c-2.1,0-3.8,0-5.1-0.1c-1.3-0.1-2.3-0.5-3.1-1c-0.7-0.5-1.3-1.3-1.7-2.3
		s-0.7-2.3-1-3.9l-0.5-23.7c-0.1-3.3-0.2-6.4-0.4-9.1c-0.2-2.7-0.4-5.2-0.5-7.6c-0.2-2.3-0.3-4.5-0.5-6.6s-0.3-4.3-0.3-6.5
		c0-0.5-0.1-1.2-0.2-2.1c-0.1-0.9-0.3-1.9-0.6-2.9c-0.2-1-0.4-1.9-0.5-2.7c-0.1-0.8-0.2-1.3-0.2-1.6c0-0.2,0.1-0.6,0.3-1.2l-0.1-6.5
		c0-0.2,0.1-0.7,0.5-1.4c0.3-0.7,0.6-1.3,0.9-2c0-0.1,0-0.1-0.1-0.2c0,0-0.1-0.1-0.1-0.2c0-0.6,0.4-1.1,1.3-1.5
		c0.9-0.3,2.1-0.6,3.6-0.7c1.5-0.2,3.2-0.3,5.2-0.3l5.9-0.1l0.6-0.2c1.1,0,2.2-0.1,3.5-0.3c1.3-0.1,2-0.3,2.2-0.5
		c0.7,0.2,1.5,0.4,2.4,0.4s1.7,0.1,2.6,0.3c0.9,0.2,1.6,0.5,2.3,0.9c0.7,0.4,1.3,1.2,1.7,2.2c0,1.3,0,2.3-0.2,3
		c-0.1,0.7-0.5,1.2-0.9,1.6c-0.5,0.4-1.1,0.7-1.9,0.8c-0.8,0.2-1.8,0.4-3,0.7c-0.7,0-1.4,0.3-2.2,0.8c-0.8,0.5-1.5,0.8-2,0.8
		c-0.8,0-1.6,0.1-2.3,0.2s-1.2,0.1-1.4,0.2c-0.3,0-0.6-0.1-0.9-0.2l-5.2,0.1l-2.4,1.3c-0.1,0-0.1,0-0.1,0.1c0,0.2,0.1,0.8,0.3,1.6
		c0.2,0.9,0.3,1.4,0.3,1.5l0.4,17.3c0,0.5,0.2,1.3,0.5,2.4s0.9,1.8,1.6,2.1h1c0.3,0,0.5,0.1,0.6,0.4l9.4-0.2c1,0.5,1.9,0.8,2.9,1.1
		c0.9,0.3,1.8,0.6,2.6,0.9c0.8,0.3,1.4,0.7,1.9,1.2s0.8,1.3,0.8,2.4c0,1-0.4,1.8-1.2,2.5c-0.8,0.7-1.8,1.2-3,1.6
		c-1.1,0.4-2.3,0.7-3.5,0.8c-1.2,0.1-2.2,0.2-3,0.2c-0.7,0-1.8,0-3.2-0.1c-1.4,0-2.8-0.1-4.4,0c-0.5,1.4-0.7,3-0.8,4.8
		c-0.1,1.8-0.1,3.8-0.1,6.1l0.1,5c0,1.8,0.1,3.5,0.3,5s0.4,2.9,0.7,3.9c0.3,1.1,0.7,1.7,1.3,1.9c1.2,0,2.4-0.1,3.6-0.3
		c1.2-0.1,2.2-0.2,3-0.2c2,0,3.9-0.1,5.7-0.1c1.7,0,3.6,0.1,5.7,0.4c0.6,0.9,1.4,1.7,2.3,2.3c0.9,0.7,1.4,1.2,1.4,1.6
		c0,0.1-0.3,0.5-0.8,1.1c-0.6,0.8-1.3,1.5-1.9,1.9l-0.1-0.1c-0.2,0-0.7,0.3-1.3,1c-0.6,0.7-1.8,1-3.4,1.1c-0.4,0-0.6,0.2-0.7,0.6
		c0,0.4-0.1,0.6-0.3,0.6c-0.1-0.1-0.2-0.2-0.4-0.2C263,456.9,262.7,456.7,262.6,456.6z"/>
	<path id="XMLID_22_" class="st0" d="M289.1,467.2c-0.1-0.4-0.3-1-0.5-1.8c-0.2-0.8-0.4-1.7-0.7-2.7c-0.3-1-0.5-2-0.6-3
		c-0.2-1-0.3-1.9-0.3-2.7c0-1.5,0-3,0.1-4.4s0.1-2.9,0.1-4.3c0-0.9-0.1-2.7-0.2-5.3c-0.1-2.6-0.2-5.8-0.3-9.5
		c-0.1-3.7-0.3-7.9-0.4-12.6c-0.1-4.7-0.3-9.5-0.5-14.5c-0.2-5-0.3-10.2-0.5-15.4c-0.2-5.2-0.3-10.3-0.4-15.1c0.3-1,0.6-1.8,1.1-2.3
		s1.1-0.9,1.7-1.2s1.2-0.6,1.8-0.9c0.6-0.3,1.1-0.8,1.5-1.6l8.4-0.2c0.2-0.2,0.5-0.3,0.8-0.3c0.6,0,1.1,0.2,1.8,0.5
		c0.6,0.4,1.2,0.6,1.6,0.7c1.6,0,3.3,0.4,5,1.3c1.7,0.9,3.3,1.6,4.6,2c1.2,1,2.1,2,2.7,3c0.5,1,1.2,2.2,2,3.6
		c0.3,0.2,0.6,0.9,1.1,2.1c0.4,1.2,0.9,2.5,1.3,3.9s0.8,2.6,1.1,3.8l0.3,1.7c0.1,2.4,0.1,4.9,0,7.6c0,2.6,0,4.7,0,6.2
		c0,0.5-0.1,1.2-0.4,2.1s-0.7,1.9-1.1,2.9s-0.8,1.9-1.1,2.8c-0.3,0.8-0.5,1.4-0.5,1.7c-1.9,3-3.4,5.2-4.5,6.6s-1.6,2.9-1.6,4.4
		c0,0.2,0.2,0.6,0.7,1.4c0.5,0.7,0.7,1.2,0.7,1.4c0,0.7,0.2,1.3,0.6,1.9c0.4,0.6,0.8,1.3,1.2,2.1c0.4,0.7,0.8,1.5,1.2,2.3
		c0.4,0.8,0.6,1.6,0.6,2.4c0,0.3,0.1,0.6,0.2,1c0.1,0.4,0.3,1,0.7,1.9c0.3,0.8,0.8,2,1.5,3.6c0.6,1.6,1.5,3.7,2.6,6.2
		c0.6,1.4,1.1,2.6,1.5,3.6s0.8,2,1.2,2.9c0.3,0.9,0.6,1.9,0.8,2.9c0.2,1,0.3,2.1,0.3,3.4c-0.1,0.7-0.4,1.3-0.9,1.8
		c-0.6,0.4-1.2,0.7-1.8,0.9c-0.7,0.2-1.3,0.4-2,0.5s-1.1,0.2-1.4,0.2c-2,0-3.5-0.6-4.7-2c-1.2-1.4-2.2-3-2.9-4.8
		c-0.7-1.8-1.3-3.7-1.8-5.6s-0.9-3.4-1.3-4.5c-0.4-1.1-1-2.8-1.7-5.1c-0.7-2.3-1.6-4.5-2.6-6.7c-1-2.2-2-4.2-3-5.8
		c-1-1.7-2-2.5-2.9-2.5c-0.5,0-0.9,0.1-1.2,0.2c-0.3,0.1-0.5,0.5-0.5,0.9l0.7,32.5c-0.6,1.9-1.5,3.1-2.7,3.6
		c-1.2,0.5-2.2,0.8-3.3,0.8c-0.7,0-1.3,0-1.8,0c-0.4,0-0.9-0.1-1.3,0L289.1,467.2z M297.6,418.7c0.6-0.1,1.1-0.2,1.7-0.3
		c0.5-0.1,0.9-0.2,1.4-0.2c0.5-0.1,0.8-0.1,1.1-0.2c1.5-0.4,2.9-1.3,4.3-2.8c1.4-1.4,2.6-3.2,3.7-5.3s1.9-4.5,2.6-7
		c0.6-2.5,0.9-5.1,0.9-7.6c-0.6-3.8-2.1-7-4.6-9.6c-2.5-2.6-5.8-3.9-9.7-3.8c-0.7,0-1.4,0.2-2.1,0.5c-0.6,0.3-1.1,1-1.4,2.1
		c0,1.7,0.1,4.2,0.2,7.6s0.2,6.9,0.4,10.4c0.1,3.5,0.3,6.8,0.4,9.7c0.2,2.9,0.3,4.9,0.4,5.8L297.6,418.7z"/>
	<path id="XMLID_20_" class="st0" d="M475.4,473.4c-1-0.3-1.7-0.9-2.3-1.8c-0.6-0.9-1-2-1.4-3.2c-0.4-1.2-0.6-2.4-0.8-3.7
		c-0.2-1.2-0.4-2.3-0.7-3.1c-0.4-1.3-0.7-2.3-1.2-3.1c-0.4-0.8-0.8-1.6-1.1-2.5c-0.4-0.9-0.7-1.9-0.9-3c-0.3-1.1-0.4-2.6-0.5-4.4
		c0-0.2-0.1-0.6-0.4-1.2c-0.2-0.6-0.5-1.2-0.8-1.8c-0.3-0.6-0.6-1.2-0.8-1.8c-0.2-0.6-0.4-1-0.4-1.2c-0.2-0.4-0.5-1.3-0.8-2.5
		c-0.3-1.3-0.5-2.1-0.5-2.6c0-0.9-0.2-2-0.6-3.4c-0.4-1.4-0.9-3.3-1.5-5.8s-1.5-5.7-2.5-9.7s-2.2-9.1-3.5-15.4
		c-0.6-3.1-1.1-6.1-1.3-9c-0.2-2.9-0.8-5.9-1.8-9c-0.1-2-0.3-3.8-0.7-5.4c-0.4-1.6-0.7-3-1.1-4.3c-0.4-1.3-0.7-2.5-1.1-3.7
		c-0.4-1.2-0.6-2.6-0.6-4.1c0-1.2,0.5-2.2,1.5-3.1s2.5-1.4,4.3-1.4c0.9,0,1.8,0.6,3,1.8c1.1,1.2,2.2,2.7,3.2,4.5
		c1,1.7,1.9,3.5,2.7,5.3c0.8,1.8,1.2,3.2,1.2,4.1c1.2,3.7,2.2,7,2.9,9.9c0.7,2.9,1.3,5.5,1.7,8c0.4,2.5,0.7,4.8,0.9,7
		c0.2,2.2,0.3,4.4,0.4,6.7c0,0.2,0.1,0.7,0.3,1.4c0.2,0.7,0.4,1.5,0.6,2.4s0.5,1.6,0.6,2.4c0.2,0.7,0.3,1.2,0.3,1.4
		c0.3,1.2,0.5,2.6,0.7,4.4c0.2,1.8,0.5,3.2,0.7,4.4c0.1,0.5,0.4,1.4,0.8,2.7c0.4,1.3,0.8,2.6,1.3,4.1c0.4,1.4,0.8,2.8,1.3,4.1
		c0.4,1.3,0.7,2.2,0.8,2.7l0.4,1.1c0.2-0.4,0.4-1.3,0.7-2.6c0.3-1.3,0.5-2.2,0.7-2.6c-0.1-2.7,0.1-4.9,0.7-6.8
		c0.5-1.8,0.8-3.5,0.7-5l-0.1-3c0-1.1,0-2.4,0.1-4s0.3-3.6,0.6-6c0.3-2.4,0.8-5.3,1.4-8.7c0.1-2,0.5-4.2,1.1-6.4
		c0.6-2.2,0.9-4.2,0.8-6.1c-0.1-3.6,0-6.6,0.5-9c0.5-2.4,0.9-4.7,1.4-7.1c0.1-1.4,0.1-2.8,0.1-4.3s0.1-2.9,0.4-4.2
		c0.3-1.3,0.9-2.4,1.7-3.2c0.9-0.8,2.2-1.3,4.1-1.3c2.9-0.1,4.8,0.6,5.6,2c0.9,1.4,1.3,3.1,1.4,5.2c0,0.9,0,1.8,0,2.7
		c0,1,0,1.9,0,2.7l0.1,1.6c0,0.5,0.1,1.1,0.4,1.6l-0.7,1.6c0.1,1.8,0,3.5-0.2,5s-0.5,2.9-0.8,4.3c-0.3,1.4-0.7,2.6-1,3.9
		c-0.3,1.2-0.5,2.5-0.6,3.8c0,0.2,0,0.8,0,1.8s0,2-0.1,3.1c0,1.1,0,2.1-0.1,3.1c0,1,0,1.6,0,1.8c-0.1,2.8-0.7,5.5-1.7,8.1
		c-1,2.6-1.6,5.3-1.8,8.1c-0.2,3.4-0.4,6.9-0.5,10.5c-0.1,3.5-0.4,7-0.7,10.5c0.1,2.8-0.2,5.6-0.8,8.4c-0.6,2.8-0.8,5.8-0.7,8.9
		c-0.2,0.2-0.6,0.9-1.1,1.9s-0.7,1.8-0.7,2.2c0,1.4-0.1,3-0.3,4.8c-0.3,1.8-1.8,3.7-4.6,5.5c-1.5,0.1-3.2,0-5.1-0.1
		C476.9,473.4,475.8,473.4,475.4,473.4z"/>
	<g id="XMLID_18_">
		<path id="XMLID_19_" class="st2" d="M717.7,453.2c-0.1-1.5,11.3-6,12.8-6.7c12-6.1,24.4-13.7,34.5-22.5c3.1-2.8,7.1-6,3-9.3
			c-4.4-3.5-8.5-7.4-13-10.8c-8-6-16.7-11-25.9-14.9c-4.2-1.8-8.8-3.7-13.3-4.6c-0.5,2.2-0.2,4.9-0.2,7.2c0,16.2,0.6,32.5,1.4,48.7
			C717.3,444.8,717.4,448.6,717.7,453.2z"/>
	</g>
	<path id="XMLID_16_" class="st0" d="M522.5,469.2c-1.4,0-2.3,0.1-2.6,0c-0.3,0-0.5-0.1-0.6-0.1c-0.5,0-1,0-1.4-0.1
		c-0.5-0.1-1-0.3-1.6-0.7c-0.6-0.4-1.1-0.8-1.4-1.2c-0.4-0.5-0.6-1.2-0.7-2.1c-0.2-0.6-0.3-1.2-0.4-1.9c0-0.7,0-1.4,0.2-2.2
		c0.5-1.8,1.8-2.9,3.8-3.1c2-0.2,3.6-0.3,4.7-0.4l1.1-1.2c0-0.5,0-1.6,0.1-3.2c0.1-1.7,0.1-3.1,0.1-4.3c0-0.9-0.2-1.7-0.5-2.6
		l-2.7-35.9c-0.2-0.1-0.3-0.3-0.3-0.6c-0.1-1.8,0-3.7,0.2-5.7s0.2-3.9,0.2-5.8c0-1.4-0.1-3-0.2-4.8c-0.1-1.8-0.2-3.5-0.4-5.2
		c-0.2-1.7-0.4-3.3-0.7-4.7c-0.3-1.4-0.7-2.5-1.1-3.3l-3.3,0.3c-0.7,0-1.3-0.2-1.7-0.6c-0.5-0.4-0.9-0.9-1.2-1.5s-0.5-1.2-0.7-1.8
		s-0.3-1.1-0.3-1.5c0.2-1,0.2-1.5,0.2-1.7c0-0.2,0-0.4-0.1-0.5s-0.1-0.3-0.1-0.4V372c0-0.9,0.2-1.5,0.7-1.9c0.3-0.3,0.7-0.5,1.3-0.5
		c0.3,0,0.6,0,0.9,0.1c1.1,0,2.1,0,3.2,0.1c1.1,0.1,2,0.1,2.7,0.1c1-0.1,1.6-0.2,1.9-0.2s1.2,0.1,2.7,0.2c0.6,0.2,1.2,0.2,1.9,0.2
		c0.5,0,1.1-0.1,1.7-0.3c1.2-0.2,2.4-0.4,3.4-0.5l4.7-0.3c1.1,0,2.1,0.2,3.1,0.8s1.6,1.7,2,3.3l0.1,2.3c-0.1,1.5-0.5,2.5-1.1,2.9
		c-0.6,0.4-1.3,0.7-2.1,1c-0.9,0.3-1.8,0.5-2.7,0.7c-1,0.2-1.8,0.3-2.4,0.3c-0.5,0-0.9,0.3-1.2,0.8c-0.3,0.5-0.6,1.2-0.7,2
		c-0.2,0.8-0.3,1.6-0.3,2.5c-0.1,0.9-0.1,1.7-0.1,2.4c0.1,2.5,0.3,5,0.6,7.5s0.7,5,1,7.5c0,1.4-0.1,2.9-0.4,4.5
		c-0.3,1.5-0.4,3-0.4,4.3c0,1.3,0.2,2.6,0.5,3.9c0.3,1.2,0.4,2.6,0.5,4.2c0,1.4,0,2.6-0.2,3.6s-0.3,2.1-0.2,3.3
		c0.1,2.1,0.4,4.9,1.1,8.3c0.6,3.4,1.1,8.1,1.3,13.9c0,0.6,0,1.2-0.1,1.9c-0.1,0.7-0.1,1.5-0.1,2.2c0,1.1,0.2,2,0.4,2.8
		c0.2,0.8,0.7,1.2,1.3,1.2l5.2,0.3c0.8,0,1.5,0.3,2.3,0.9c0.7,0.6,1.1,1.3,1.1,1.8l0.1,2c0,0.9-0.1,1.9-0.3,3c-1.6,2-2.8,3-3.9,3.1
		c-1,0.1-1.6,0.1-1.8,0.1H534c-1.1-0.3-2-0.4-2.9-0.3c-0.9,0-1.6,0.2-2.3,0.5c-1-0.2-1.5-0.2-1.7-0.2c-0.5,0-0.9,0.1-1.4,0.3
		C525.2,469,524.1,469.1,522.5,469.2z"/>
	<path id="XMLID_13_" class="st0" d="M558.1,466.3c-0.8-0.3-1.5-0.7-2-1.3c-0.5-0.5-0.8-0.7-0.9-0.7l-1.2-34.7c0-0.5,0-1.3,0-2.3
		c0-1.1,0.1-2.2,0.1-3.4c0-1.2,0-2.4,0.1-3.5c0-1.1,0.1-1.9,0-2.4c0-1.4-0.1-2.4-0.2-3.2c-0.1-0.7-0.2-1.5-0.2-2.3
		c-0.1-2.1-0.1-4.5,0.1-7.2c0.1-2.7,0.1-5.5,0-8.4c0-0.9-0.1-1.8-0.2-2.7c-0.1-0.9-0.1-1.8-0.2-2.7c-0.1-2.3,0.1-4.3,0.5-6.1
		c0.4-1.8,1.5-3.1,3.2-3.9c1.4,0,2.4-0.1,2.9,0c0.6,0,1.3,0.1,2.3,0.4c0.9,0.2,2.4,0.6,4.3,1c1.9,0.5,4.8,1.1,8.8,2
		c0.2,0,0.7,0.2,1.6,0.6c0.9,0.4,2,1,3.1,1.8c1.2,0.8,2.4,1.9,3.6,3.2c1.2,1.3,2.3,3,3.1,5l0.1,0.7c0.1,0.6,0.3,1.2,0.5,1.9
		c0.2,0.7,0.5,1.4,0.8,2s0.7,1.1,1.2,1.4c0.3,0.6,0.5,1.2,0.6,1.8v0.2c-0.1,0.2-0.1,0.3-0.1,0.5c0,0.7,0.1,1.2,0.3,1.7
		c0,0.2,0.1,0.5,0.2,1.1c0.1,0.6,0.2,1.2,0.4,1.8c0.1,0.7,0.3,1.3,0.4,1.8c0.1,0.6,0.2,0.9,0.2,1.1c0,0.2,0,0.8,0.1,1.9
		c0.1,1.1,0.2,2.4,0.3,3.9s0.2,3,0.3,4.7c0.1,1.6,0.2,3.1,0.2,4.3c0.1,1.8-0.1,3.3-0.5,4.5c-0.4,1.2-0.5,2.4-0.5,3.5
		c0,1.1-0.1,2.2-0.4,3.3c-0.3,1.1-0.7,2.2-1.1,3.3c-0.4,1.1-0.7,2.1-1.1,3c-0.3,0.9-0.5,1.7-0.5,2.5c-1.9,4.8-4.4,8.6-7.5,11.5
		c-3.1,2.8-6.4,4.9-10,6.3c-0.2,0-0.9,0.2-2.1,0.5c-1.3,0.3-2.7,1.1-4.3,2.2c-0.7,0-1.3,0.1-1.8,0.2c-0.5,0.1-0.9,0.2-1.3,0.2
		c-0.6,0-1.1,0-1.5-0.1C559.5,466.9,558.9,466.6,558.1,466.3z M565.4,456.8c0.2,0.2,0.4,0.4,0.7,0.4c0.3,0,0.5,0,0.7,0
		c1.2,0,2.4-0.5,3.4-1.3c1-0.9,2.2-1.7,3.5-2.5c2.1-1.7,3.7-3.8,4.8-6.3s2.1-5.1,2.9-7.7c0.3,0,0.6-0.7,0.8-2.2
		c0.2-1.4,0.3-3.2,0.4-5.3c0-2.1,0.1-4.5,0.1-7s0-4.9-0.1-7c0,0.1-0.1-0.2-0.2-0.9c-0.1-0.7-0.2-1.5-0.3-2.6c-0.1-1-0.2-2.1-0.3-3.2
		c-0.1-1.1-0.2-2.2-0.2-3.1c-0.4-1.7-1.1-3.5-2.3-5.3c-1.1-1.8-2.5-3.6-4-5.1c-1.5-1.6-3.2-2.9-4.9-3.9c-1.8-1-3.4-1.5-5-1.4
		c-0.9,0-1.6,0.3-2.2,0.7l0.3,9.6l-0.8,1.5l1.2,34.3c0.6,2.6,0.9,5.1,1,7.6l0.1,1.6c0,0.6-0.1,1.1-0.4,1.6c0,0.6,0.1,1.2,0.2,2
		c0.1,0.7,0.2,1.5,0.3,2.2c0.1,0.7,0.1,1.4,0.3,2C565.3,456,565.4,456.5,565.4,456.8z"/>
	<g id="XMLID_11_">
		<path id="XMLID_12_" class="st1" d="M721.1,452.6c-0.1-1.5,11.9-6.1,13.3-6.8c11.4-5.9,22.4-12.7,32-21.2c3-2.6,5.8-6.6,2-9.7
			c-4.1-3.4-8.1-7.1-12.3-10.4c-7.5-5.8-15.8-10.7-24.6-14.4c-4-1.7-8.2-4-12.5-4.9c-0.5,2.1-0.2,5.1-0.2,7.3
			c0.1,15.6,0.7,31.3,1.4,46.9C720.5,443.7,720.8,448.1,721.1,452.6z"/>
	</g>
	<path id="XMLID_9_" class="st0" d="M634.7,465.8c-0.3-0.1-0.8-0.2-1.5-0.2c-0.7-0.1-1.5-0.1-2.4-0.2c-0.8-0.1-1.6-0.1-2.4-0.1
		l-2,0.1c-1.1,0-2.3,0.2-3.4,0.6c-1.2,0.4-2.2,0.6-3.3,0.6c-2.4,0.1-4.4,0.1-5.9-0.1c-1.5-0.1-2.7-0.5-3.5-1.1
		c-0.9-0.6-1.5-1.4-2-2.6c-0.5-1.1-0.9-2.6-1.2-4.5l-0.9-26.9c-0.1-3.8-0.3-7.2-0.6-10.3c-0.2-3.1-0.5-6-0.7-8.6s-0.5-5.1-0.7-7.5
		s-0.4-4.8-0.5-7.3c0-0.6-0.1-1.4-0.3-2.4c-0.2-1.1-0.4-2.2-0.7-3.3s-0.5-2.2-0.7-3.1s-0.3-1.5-0.3-1.8c0-0.2,0.1-0.7,0.4-1.4
		l-0.3-7.3c0-0.3,0.2-0.8,0.5-1.5c0.3-0.8,0.7-1.5,1-2.3c0-0.1,0-0.2-0.1-0.2c0,0-0.1-0.1-0.1-0.2c0-0.7,0.5-1.3,1.5-1.7
		s2.4-0.7,4.1-0.9c1.7-0.2,3.7-0.3,5.9-0.4l6.7-0.2l0.7-0.4c1.2,0,2.5-0.2,4-0.3c1.4-0.2,2.3-0.4,2.6-0.6c0.8,0.2,1.8,0.4,2.7,0.4
		c1,0,2,0.1,2.9,0.3c1,0.2,1.9,0.5,2.7,1s1.5,1.3,2,2.5c0.1,1.5,0,2.6-0.2,3.4c-0.2,0.8-0.5,1.4-1.1,1.8c-0.5,0.4-1.3,0.8-2.1,1
		c-0.9,0.2-2,0.5-3.4,0.8c-0.7,0-1.6,0.4-2.5,1c-1,0.6-1.7,1-2.3,1c-0.9,0-1.8,0.1-2.6,0.2c-0.8,0.1-1.3,0.2-1.6,0.2
		c-0.4,0-0.7-0.1-1-0.2l-6,0.2l-2.7,1.5c-0.1,0-0.1,0.1-0.1,0.1c0,0.3,0.1,0.9,0.3,1.9s0.3,1.5,0.3,1.7l0.7,19.7
		c0,0.6,0.2,1.5,0.7,2.7c0.4,1.2,1,2,1.9,2.4h1.1c0.4,0,0.6,0.1,0.7,0.4l10.7-0.4c1.1,0.5,2.2,0.9,3.3,1.2s2.1,0.6,3,0.9
		c0.9,0.3,1.6,0.8,2.2,1.4c0.6,0.6,0.9,1.5,0.9,2.7c0,1.1-0.4,2.1-1.4,2.8c-1,0.8-2.1,1.4-3.4,1.9c-1.3,0.5-2.6,0.8-4,1
		c-1.4,0.2-2.6,0.3-3.5,0.3c-0.8,0-2,0-3.6,0s-3.3,0-5,0c-0.5,1.6-0.8,3.4-0.9,5.4c-0.1,2-0.1,4.4,0,6.9l0.2,5.7
		c0.1,2,0.2,3.9,0.4,5.7c0.2,1.8,0.5,3.2,0.9,4.5c0.4,1.2,0.9,1.9,1.5,2.1c1.4,0,2.8-0.2,4.1-0.3c1.3-0.2,2.5-0.3,3.4-0.3
		c2.3-0.1,4.5-0.1,6.5-0.2c2,0,4.2,0.1,6.5,0.4c0.7,1,1.6,1.9,2.7,2.6c1.1,0.8,1.7,1.4,1.7,1.8c0,0.1-0.3,0.5-0.9,1.3
		c-0.7,1-1.4,1.7-2.2,2.2l-0.1-0.1c-0.3,0-0.8,0.4-1.5,1.2c-0.7,0.8-2,1.2-3.9,1.2c-0.5,0-0.7,0.2-0.7,0.7c0,0.4-0.1,0.6-0.3,0.6
		c-0.1-0.1-0.2-0.2-0.4-0.3C635.1,466.1,634.8,465.9,634.7,465.8z"/>
	<path id="XMLID_6_" class="st0" d="M666.2,465.1c-1.2-0.4-2.3-0.7-3.1-0.8s-1.7-0.6-2.6-1.5c-0.9-0.9-2-2.4-3.1-4.5
		c-1.2-2.1-2.7-5.3-4.5-9.6c0-0.2-0.1-0.6-0.3-1.5c-0.2-0.8-0.4-1.8-0.7-3c-0.2-1.2-0.5-2.4-0.7-3.6c-0.2-1.2-0.4-2.4-0.4-3.5
		c0-1.2-0.2-2.8-0.3-4.8c-0.2-2-0.3-4-0.4-6c-0.2-5.2,0.1-10.3,0.8-15.2c0.7-5,1.6-10,2.5-15.1c0-0.1,0.2-0.5,0.5-1.2
		c0.3-0.7,0.7-1.5,1.2-2.3s1.1-1.5,1.7-2.2c0.6-0.7,1.2-1,1.7-1c1.3-1.3,2.3-2.3,3.2-2.9s2.1-0.9,3.6-1c2.5-0.1,4.6,0.4,6.5,1.3
		c1.9,1,3.5,2.1,4.9,3.4c1.3,1.3,2.4,2.6,3.2,3.9c0.8,1.3,1.3,2.2,1.6,2.7c0.8,1.9,1.5,3.6,2.1,5.2s1.1,3.3,1.4,5.2
		c0,0.9,0.1,1.8,0.2,2.8c0.1,0.9,0.3,1.9,0.5,2.8c0.2,0.9,0.4,1.7,0.7,2.4c0.2,0.7,0.4,1.3,0.7,1.6l0.4,10.5c0,1.2,0.1,2.3,0.2,3.1
		c0.1,0.9,0.2,1.7,0.2,2.6c0,1.1,0,2.1,0,3s-0.2,2-0.6,3.3c-0.1,0.3-0.2,0.9-0.3,1.7c-0.2,0.8-0.3,1.7-0.5,2.6
		c-0.2,1-0.4,1.9-0.6,2.8c-0.2,0.9-0.4,1.5-0.5,1.8c0.1,2.3-0.5,4.2-1.6,5.9c-1.2,1.6-2.3,3.4-3.5,5.2c-1.5,2.3-3.1,3.9-4.8,4.6
		c-1.7,0.7-3.9,1.2-6.7,1.5c-0.4,0-0.8,0-1.3-0.1C667.1,465.1,666.6,465.1,666.2,465.1z M667.6,455.5l3.7-0.1
		c1.4-0.6,2.3-1.2,2.8-1.9c0.5-0.7,0.9-1.6,1.1-2.6c0.2-1,0.4-2.2,0.6-3.6c0.2-1.4,0.7-3.1,1.4-5c0.3-3.6,0.4-6.5,0.6-8.7
		c0.1-2.2,0.2-4.2,0.4-6.2c0.1-1.9,0.2-3.2,0.2-3.6c-0.1-3.6-0.3-6.8-0.4-9.5c-0.2-2.8-0.5-5.3-1.1-7.6s-1.4-4.4-2.6-6.4
		c-1.1-1.9-2.8-3.9-4.9-5.9c-2.2,0.1-4,0.5-5.2,1.3c-1.2,0.8-1.8,2.1-1.8,3.8c0,0.2-0.1,0.5-0.2,1c-0.1,0.5-0.3,1-0.4,1.6
		c-0.1,0.6-0.3,1.1-0.4,1.6c-0.1,0.5-0.2,0.8-0.2,1c0,1.3-0.1,2.6-0.3,3.9c-0.3,1.3-0.5,2.6-0.8,4c-0.3,1.3-0.6,2.7-0.8,4
		c-0.3,1.3-0.4,2.7-0.3,4.1l0.3,8.2c0.1,2.8,0.3,5.6,0.7,8.4c0.4,2.8,1,5.5,1.8,8.2c0.8,2.6,2,5.1,3.6,7.4c0.3,0.4,0.6,0.9,0.8,1.2
		c0.2,0.4,0.5,0.7,1,1L667.6,455.5z"/>
	<path id="XMLID_5_" class="st0" d="M751.6,463.9c2.9-2.1,5.7-4.1,7.7-7.2c0.7-1.2,1.5-1.1,2.3,0.1c0.4,0.7,0.8,1.4,1.2,2.2
		c2.4,4.3,5,8.4,9,11.5c2,1.5,4.1,2.7,6.6,2.8c4.8,0.3,7.9-2.5,10.8-5.8c0.4-0.5,0.1-0.7-0.2-1c-1.3-1.1-2.6-2.3-3.9-3.4
		c-4.2-3.8-8.4-7.6-12.6-11.4c-0.4-0.4-1.2-1-0.6-1.4c0.9-0.6,1-1.7,1.8-2.2c2.8-1.7,5.6-3.3,8.9-3.9c0.5,0.3,0.9,0.6,0.8,1.2
		c-1,1.3-2.6,1.6-3.9,2.1c-2,0.7-3.7,1.9-5.8,3c1.9,0.9,3.1,2.2,4.5,3.2c3.7,2.8,7,6.2,10.4,9.3c1.1,1,2.1,2,3.2,2.9
		c0.9,0.7,0.6,1.6,0.1,2.1c-2.4,2.4-4.5,5.1-7.8,6.5c-3.6,1.5-7,1.6-10.6-0.2c-3.8-1.9-6.5-4.8-9-8c-1.7-2.1-2.9-4.4-3.9-6.6
		c-1.2,1.1-2.5,2.2-3.8,3.4c-0.1,0.1-0.3,0.2-0.4,0.3c-1.4,1.1-2.9,2.3-4.3,3.4c-2.2,1.5-2.1,1.6-3.6-0.4c-0.7-0.6-1.3-1.3-2-1.9
		c-2-2.6-4.1-5.1-5.1-8.3l0,0c-0.7-2-1.5-4.1-2.2-6.2c-0.7-2.4-1.4-4.8-1.9-7.3c-0.4-1.9-1-3.8-1.3-5.7c-0.4-2.3-0.8-4.6-1.2-6.9
		c0-0.1-0.2-0.2-0.2-0.3c-0.2-0.3,0.3-0.8-0.2-1.1c-0.1-1.8-0.5-3.5-0.8-5.3c-0.4-2.5-0.7-4.9-1.4-7.4c-0.1-0.5-0.3-1.3,0.2-1.5
		c0.8-0.3,0.9-0.9,1.4-1.4c0.4,0,0.7,0,1.1,0c8.3,3.1,14.8,8.8,21.8,13.8c4.1,2.9,8.2,5.7,13,7.5c0.8,0.7,1.8,0.9,2.7,1.3
		c2.8,1.4,5.6,2.7,8.4,4.1c1.1,0.6,2.5,0.8,3.3,2.1c0.4,0.6,0.7,1.3-0.3,1.8c-0.3,0-0.7,0.1-1,0.1c-1.5-1-3.2-1.8-4.9-2.7
		c-5-2.5-10.2-4.5-15.1-7.3c-5.4-3-10.1-7-15.1-10.6c-4.3-3.2-8.8-6.2-13.7-8.5c0-0.1-0.1-0.2-0.2-0.1c0,0,0,0.2,0,0.3
		c0.4,1.6,0.9,3.1,1.3,4.7c1.8,8.2,2.8,16.5,4.9,24.6c1.3,5,2.7,9.9,5.4,14.4c1,1.8,2.2,3.5,3.7,4.9"/>
	<path id="XMLID_4_" class="st2" d="M750.6,463.1c-0.3-0.5-0.1-1.6-1.1-1.4c-0.9,0.2-0.2,1.1-0.6,1.7c-1.5-1.4-2.7-3.1-3.7-4.9
		c-2.6-4.5-4.1-9.4-5.4-14.4c-2.1-8.1-3.1-16.4-4.9-24.6c-0.3-1.2-1.8-3.7-1-4.8c4.8,1.6,9.5,5.4,13.6,8.4
		c4.9,3.7,9.7,7.6,15.1,10.6c4.9,2.7,10.1,4.8,15.1,7.3c1.7,0.8,3.3,1.6,4.9,2.7c0,0.2,0,0.4-0.2,0.5c-0.3,0.3-0.9,0.2-1.3,0.3
		c-0.7,0.2-1.4,0.4-2.1,0.7c-1.4,0.6-2.7,1.3-4,2c-0.6,0.3-1.1,0.6-1.6,1.1s-0.7,1.1-1.1,1.6c-0.3,0.3-0.6,0.4-0.5,0.8
		c0.1,0.4,0.5,0.6,0.8,0.9c5.5,5,11.2,10,16.7,15c0.1,0.1,0.2,0.2,0.2,0.3c0,0.2-0.1,0.3-0.2,0.4c-3.1,3.5-7.3,6.7-12.2,5.6
		c-6.8-1.5-11-8.5-14.2-14.1c-0.4-0.7-0.7-1.5-1.2-2.2c-0.7-1.2-1.5-1.2-2.3-0.1c-1.9,3.1-4.8,5.1-7.7,7.2c-0.5,0.4-0.7,0.2-0.8-0.3
		"/>
	<path id="XMLID_3_" class="st2" d="M748.8,463.4c0,0,1.3,1.3,2.8,0.5c1.9-1.2-0.8-2.6-0.9-2.6"/>
</g>
</svg>
